<?xml version="1.0" encoding="UTF-8" standalone="no"?>
<svg width="450px" height="150px" viewBox="0 0 450 150" version="1.1" xmlns="http://www.w3.org/2000/svg" xmlns:xlink="http://www.w3.org/1999/xlink">
    <!-- Generator: Sketch 39.1 (31720) - http://www.bohemiancoding.com/sketch -->
    <title>Performance</title>
    <desc>Created with Sketch.</desc>
    <defs></defs>
    <g id="Symbols" stroke="none" stroke-width="1" fill="none" fill-rule="evenodd">
        <g id="Performance">
            <g>
                <polygon id="Fill-1450" fill="#00C489" points="115 115 336 115 336 35 115 35"></polygon>
                <path d="M127,43.5 C127,41.5674847 125.433716,40 123.497318,40 C121.566284,40 120,41.5674847 120,43.5 C120,45.4325153 121.566284,47 123.497318,47 C125.433716,47 127,45.4325153 127,43.5" id="Fill-1451" fill="#FFFFFF"></path>
                <path d="M127,108.502682 C127,110.433716 125.433716,112 123.497318,112 C121.566284,112 120,110.433716 120,108.502682 C120,106.566284 121.566284,105 123.497318,105 C125.433716,105 127,106.566284 127,108.502682" id="Fill-1452" fill="#FFFFFF"></path>
                <path d="M325,43.5 C325,41.5674847 326.571648,40 328.502682,40 C330.433716,40 332,41.5674847 332,43.5 C332,45.4325153 330.433716,47 328.502682,47 C326.571648,47 325,45.4325153 325,43.5" id="Fill-1453" fill="#FFFFFF"></path>
                <path d="M325,108.502682 C325,110.433716 326.571648,112 328.502682,112 C330.433716,112 332,110.433716 332,108.502682 C332,106.566284 330.433716,105 328.502682,105 C326.571648,105 325,106.566284 325,108.502682" id="Fill-1454" fill="#86866F"></path>
                <path d="M176.21382,53.7861804 C164.493893,42.0712732 145.501088,42.0712732 133.78618,53.7861804 C122.071273,65.5010875 122.071273,84.4938933 133.78618,96.2138196 C145.501088,107.928727 164.493893,107.928727 176.21382,96.2138196 C187.928727,84.4938933 187.928727,65.5010875 176.21382,53.7861804" id="Fill-1455" fill="#DFDFDF"></path>
                <path d="M180,74.9975196 C180,61.1915865 168.809524,50 155,50 C141.195437,50 130,61.1915865 130,74.9975196 C130,88.8084135 141.195437,100 155,100 C168.809524,100 180,88.8084135 180,74.9975196" id="Fill-1456" fill="#FFFFFF"></path>
                <path d="M169.539251,91 L164,85.6812356 C169.559786,80.3427539 169.559786,71.6572461 164,66.3187644 L169.539251,61 C178.153583,69.2714427 178.153583,82.7334867 169.539251,91" id="Fill-1457" fill="#00FFDD"></path>
                <path d="M141.464301,90 C137.293288,85.997371 135,80.6687479 135,75 C135,69.3361814 137.293288,64.0075583 141.464301,60 L147,65.3187644 C144.311672,67.906671 142.828987,71.3473546 142.828987,75 C142.828987,78.6575748 144.311672,82.0982583 147,84.6812356 L141.464301,90" id="Fill-1458" fill="#22DA27"></path>
                <path d="M164.681236,67 C162.098258,64.3116717 158.657575,62.8289867 155,62.8289867 C151.342425,62.8289867 147.906671,64.3116717 145.318764,67 L140,61.464301 C144.007558,57.2932877 149.336181,55 155,55 C160.668748,55 165.997371,57.2932877 170,61.464301 L164.681236,67" id="Fill-1459" fill="#00FF00"></path>
                <path d="M157.774533,80.4058455 L140,83 L156.359794,75.2386701 C157.659146,74.6257944 159.189271,75.2333866 159.77122,76.6017899 C160.358186,77.9701933 159.776237,79.57635 158.476885,80.1945091 L157.774533,80.4058455" id="Fill-1460" fill="#86866F"></path>
                <path d="M246.21382,53.7861804 C234.498912,42.0712732 215.506107,42.0712732 203.78618,53.7861804 C192.071273,65.5010875 192.071273,84.4938933 203.78618,96.2138196 C215.506107,107.928727 234.498912,107.928727 246.21382,96.2138196 C257.928727,84.4938933 257.928727,65.5010875 246.21382,53.7861804" id="Fill-1461" fill="#DFDFDF"></path>
                <path d="M250,74.9975196 C250,61.1915865 238.808414,50 225.00248,50 C211.191586,50 200,61.1915865 200,74.9975196 C200,88.8084135 211.191586,100 225.00248,100 C238.808414,100 250,88.8084135 250,74.9975196" id="Fill-1462" fill="#FFFFFF"></path>
                <path d="M239.535699,91 L234,85.6812356 C236.688328,83.0982583 238.171013,79.6575748 238.171013,76 C238.171013,72.3473546 236.688328,68.906671 234,66.3187644 L239.535699,61 C243.706712,65.0075583 246,70.3361814 246,76 C246,81.6687479 243.706712,86.997371 239.535699,91" id="Fill-1463" fill="#00FFDD"></path>
                <path d="M211.460749,90 C202.846417,81.7334867 202.846417,68.2714427 211.460749,60 L217,65.3187644 C211.440214,70.6572461 211.440214,79.3427539 217,84.6812356 L211.460749,90" id="Fill-1464" fill="#22DA27"></path>
                <path d="M234.681236,67 C232.093329,64.3116717 228.657575,62.8289867 225,62.8289867 C221.342425,62.8289867 217.901742,64.3116717 215.318764,67 L210,61.464301 C214.002629,57.2932877 219.331252,55 225,55 C230.663819,55 235.992442,57.2932877 240,61.464301 L234.681236,67" id="Fill-1465" fill="#00FF00"></path>
                <path d="M221.946986,77.7194943 L220,60 L226.802128,76.4474022 C227.344327,77.7494258 226.733121,79.2559819 225.446632,79.799739 C224.155213,80.3484846 222.671561,79.7298986 222.129362,78.427875 L221.946986,77.7194943" id="Fill-1466" fill="#86866F"></path>
                <path d="M316.209871,53.7861804 C304.494719,42.0712732 285.501516,42.0712732 273.786364,53.7861804 C262.071212,65.5010875 262.071212,84.4938933 273.786364,96.2138196 C285.501516,107.928727 304.494719,107.928727 316.209871,96.2138196 C327.930043,84.4938933 327.930043,65.5010875 316.209871,53.7861804" id="Fill-1467" fill="#DFDFDF"></path>
                <path d="M320,74.9975196 C320,61.1915865 308.809524,50 295,50 C281.195437,50 270,61.1915865 270,74.9975196 C270,88.8084135 281.195437,100 295,100 C308.809524,100 320,88.8084135 320,74.9975196" id="Fill-1468" fill="#FFFFFF"></path>
                <path d="M309.539251,91 L304,85.6812356 C309.559786,80.3427539 309.559786,71.6572461 304,66.3187644 L309.539251,61 C318.153583,69.2714427 318.153583,82.7334867 309.539251,91" id="Fill-1469" fill="#00FFDD"></path>
                <path d="M280.458971,91 C271.84701,82.7334867 271.84701,69.2714427 280.458971,61 L286,66.3187644 C280.443565,71.6572461 280.443565,80.3427539 286,85.6812356 L280.458971,91" id="Fill-1470" fill="#22DA27"></path>
                <path d="M304.681236,67 C299.342754,61.4453476 290.657246,61.4453476 285.318764,67 L280,61.4607487 C288.271443,52.8464171 301.728557,52.8464171 310,61.4607487 L304.681236,67" id="Fill-1471" fill="#00FF00"></path>
                <path d="M293.654793,75.2245173 L311,83 L292.274308,80.4134619 C290.837788,80.212463 289.834262,78.8477864 290.022742,77.3614527 C290.216315,75.8751189 291.530578,74.827809 292.962003,75.0235184 L293.654793,75.2245173" id="Fill-1472" fill="#86866F"></path>
                <path d="M328.502682,112 C326.571648,112 325,110.433716 325,108.502682 C325,106.566284 326.571648,105 328.502682,105 C330.433716,105 332,106.566284 332,108.502682 C332,110.433716 330.433716,112 328.502682,112" id="Fill-1474" fill="#FFFFFF"></path>
                <path d="M180,97 C192,85.3982018 192,66.5968295 180,55 C192,66.5968295 192,85.3982018 180,97" id="Fill-1475" fill="#73735C"></path>
                <path d="M225.000577,106 L225.000577,106 C232.10788,106 239.215183,103.500735 244.876933,98.5022052 C239.215183,103.500735 232.10788,106 225.000577,106 M203.784073,97.2525728 C203.758977,97.2275801 203.7389,97.2025875 203.713803,97.1775948 C203.7389,97.2025875 203.758977,97.2275801 203.784073,97.2525728 M203.688707,97.1526022 C203.66863,97.1376066 203.653572,97.1176125 203.638514,97.1026169 C203.653572,97.1176125 203.66863,97.1326081 203.688707,97.1526022 M246.347582,97.1176125 C246.372679,97.0876213 246.397775,97.0626286 246.422872,97.037636 C246.397775,97.0626286 246.372679,97.0876213 246.347582,97.1176125 M203.613417,97.0776242 L203.558205,97.0226404 C203.578282,97.0426345 203.59334,97.0576301 203.613417,97.0776242 M203.538128,96.9976478 C203.518051,96.9826522 203.502993,96.962658 203.482916,96.9426639 C203.497974,96.962658 203.518051,96.9826522 203.538128,96.9976478 M203.462839,96.9226698 C203.442762,96.9026757 203.417665,96.877683 203.397588,96.8576889 C203.417665,96.877683 203.442762,96.9026757 203.462839,96.9226698 M203.392569,96.8526904 C196.877541,90.1196707 194.157091,81.0973243 195.226198,72.4498677 L195.251294,72.4748603 C194.187206,81.1173184 196.882561,90.1246692 203.392569,96.8526904 M246.884646,96.5577771 L246.889665,96.5577771 L246.884646,96.5577771 M246.99507,96.4428109 C247.015147,96.4178183 247.035224,96.3978242 247.055301,96.37783 C247.035224,96.3978242 247.015147,96.4178183 246.99507,96.4428109 M247.095455,96.3328433 C247.150668,96.2778595 247.20086,96.2178771 247.256072,96.1578947 C247.20086,96.2178771 247.150668,96.2778595 247.095455,96.3328433 M247.376535,96.027933 C257.912008,84.2963834 257.525523,66.2666863 246.212062,55 L246.317467,55.1049691 C257.530542,66.3766539 257.881892,84.3313731 247.376535,96.027933" id="Fill-1476" fill="#73735C"></path>
                <path d="M273.788972,97 C273.763876,96.9751567 273.738779,96.9503135 273.713683,96.9254702 C273.738779,96.9503135 273.763876,96.9751567 273.788972,97 M273.688587,96.900627 L273.638395,96.8509405 C273.653453,96.8658464 273.67353,96.8807524 273.688587,96.900627 M273.613299,96.8260972 C273.598242,96.8062226 273.578165,96.7913167 273.563107,96.7714421 C273.578165,96.7913167 273.598242,96.8062226 273.613299,96.8260972 M273.538011,96.7465988 C273.522953,96.7316929 273.502876,96.7118183 273.4828,96.6919437 C273.502876,96.7118183 273.522953,96.7316929 273.538011,96.7465988 M273.467742,96.6720691 C273.442646,96.6521945 273.422569,96.6273512 273.397473,96.6074766 C273.422569,96.6273512 273.442646,96.6521945 273.467742,96.6720691 M273.392454,96.602508 C266.877516,89.9097362 264.157102,80.9413226 265.226195,72.3455578 L265.251291,72.370401 C264.192237,80.9611972 266.887554,89.9147048 273.392454,96.602508 M325,75.9975157 C325,68.4004495 322.073799,60.7984148 316.211358,55 C322.073799,60.7984148 325,68.4004495 325,75.9975157" id="Fill-1477" fill="#73735C"></path>
                <rect id="Rectangle-125" x="0" y="0" width="450" height="150"></rect>
            </g>
        </g>
    </g>
</svg>