<?xml version="1.0" encoding="UTF-8" standalone="no"?>
<svg width="452px" height="150px" viewBox="0 0 452 150" version="1.1" xmlns="http://www.w3.org/2000/svg" xmlns:xlink="http://www.w3.org/1999/xlink">
    <!-- Generator: Sketch 39.1 (31720) - http://www.bohemiancoding.com/sketch -->
    <title>Collaboration</title>
    <desc>Created with Sketch.</desc>
    <defs>
        <rect id="path-1" x="0" y="0" width="452" height="104"></rect>
        <rect id="path-3" x="0" y="0" width="450" height="150"></rect>
    </defs>
    <g id="Symbols" stroke="none" stroke-width="1" fill="none" fill-rule="evenodd">
        <g id="Collaboration">
            <g>
                <g id="Group-+-Group-2-Mask" transform="translate(0.000000, 29.000000)">
                    <mask id="mask-2" fill="white">
                        <use xlink:href="#path-1"></use>
                    </mask>
                    <g id="Mask"></g>
                    <g id="Group" mask="url(#mask-2)">
                        <g transform="translate(-7.836075, 48.218058) rotate(-90.000000) translate(7.836075, -48.218058) translate(-42.336075, -150.781942)">
                            <path d="M9.20834628,215.38875 C7.11487259,215.38875 5.01743399,214.589167 3.41560943,212.993958 C0.215925223,209.799583 0.215925223,204.618125 3.41560943,201.42375 L28.6721007,176.209167 C31.8757498,173.014792 37.061855,173.014792 40.2615393,176.209167 C43.4612235,179.403542 43.4612235,184.581042 40.2615393,187.775417 L15.005048,212.993958 C13.4032235,214.589167 11.3057849,215.38875 9.20834628,215.38875" id="Fill-2219" fill="#2F5F63"></path>
                            <path d="M34.4688024,240.607292 C32.3713638,240.607292 30.2739252,239.807708 28.6721007,238.2125 C25.4724165,235.018125 25.4724165,229.836667 28.6721007,226.642292 L53.9325568,201.42375 C57.1362059,198.233333 62.3183463,198.233333 65.5219954,201.42375 C68.7216796,204.618125 68.7216796,209.799583 65.5219954,212.993958 L40.2615393,238.2125 C38.6636796,239.807708 36.566241,240.607292 34.4688024,240.607292" id="Fill-2220" fill="#2F5F63"></path>
                            <path d="M59.7292586,215.38875 C57.63182,215.38875 55.5343814,214.589167 53.9325568,212.993958 L28.6721007,187.775417 C25.4724165,184.581042 25.4724165,179.403542 28.6721007,176.209167 C31.8757498,173.014792 37.061855,173.014792 40.2615393,176.209167 L65.5219954,201.42375 C68.7216796,204.618125 68.7216796,209.799583 65.5219954,212.993958 C63.9201708,214.589167 61.8227322,215.38875 59.7292586,215.38875" id="Fill-2222" fill="#6EAE97"></path>
                            <path d="M59.7292586,215.38875 C57.63182,215.38875 55.5343814,214.589167 53.9325568,212.993958 L28.6721007,187.775417 C25.4724165,184.581042 25.4724165,179.403542 28.6721007,176.209167 C31.8757498,173.014792 37.061855,173.014792 40.2615393,176.209167 L65.5219954,201.42375 C68.7216796,204.618125 68.7216796,209.799583 65.5219954,212.993958 C63.9201708,214.589167 61.8227322,215.38875 59.7292586,215.38875" id="Fill-2223" fill="#00C489"></path>
                            <path d="M34.4688024,240.607292 C32.3713638,240.607292 30.2739252,239.807708 28.6721007,238.2125 L3.41560943,212.993958 C0.215925223,209.799583 0.215925223,204.618125 3.41560943,201.42375 C6.61925856,198.233333 11.8013989,198.233333 15.005048,201.42375 L40.2615393,226.642292 C43.4612235,229.836667 43.4612235,235.018125 40.2615393,238.2125 C38.6636796,239.807708 36.566241,240.607292 34.4688024,240.607292" id="Fill-2224" fill="#00C489"></path>
                            <path d="M61.5967322,207.210833 C61.5967322,206.181667 60.7601357,205.346458 59.7292586,205.346458 C58.6944165,205.346458 57.8617849,206.181667 57.8617849,207.210833 C57.8617849,208.24 58.6944165,209.075208 59.7292586,209.075208 C60.7601357,209.075208 61.5967322,208.24 61.5967322,207.210833" id="Fill-2228" fill="#FFFFFF"></path>
                            <path d="M36.3362761,232.425417 C36.3362761,231.39625 35.4996796,230.561042 34.4688024,230.561042 C33.4379252,230.561042 32.6013287,231.39625 32.6013287,232.425417 C32.6013287,233.458542 33.4379252,234.289792 34.4688024,234.289792 C35.4996796,234.289792 36.3362761,233.458542 36.3362761,232.425417" id="Fill-2230" fill="#F6C155"></path>
                            <path d="M14.7349474,206.864375 C14.7349474,205.835208 13.8983509,205 12.8674737,205 C11.8365965,205 11,205.835208 11,206.864375 C11,207.893542 11.8365965,208.72875 12.8674737,208.72875 C13.8983509,208.72875 14.7349474,207.893542 14.7349474,206.864375" id="Fill-2231" fill="#FFFFFF"></path>
                            <path d="M59.7292586,265.825833 C57.63182,265.825833 55.5343814,265.02625 53.9325568,263.431042 L28.6721007,238.2125 C25.4724165,235.018125 25.4724165,229.836667 28.6721007,226.642292 C31.8757498,223.447917 37.061855,223.447917 40.2615393,226.642292 L65.5219954,251.860833 C68.7216796,255.055208 68.7216796,260.236667 65.5219954,263.431042 C63.9201708,265.02625 61.8227322,265.825833 59.7292586,265.825833" id="Fill-2232" fill="#6EAE97"></path>
                            <path d="M9.20834628,265.825833 C7.11487259,265.825833 5.01743399,265.02625 3.41560943,263.431042 C0.215925223,260.236667 0.215925223,255.055208 3.41560943,251.860833 L28.6721007,226.642292 C31.8757498,223.447917 37.061855,223.447917 40.2615393,226.642292 C43.4612235,229.836667 43.4612235,235.018125 40.2615393,238.2125 L15.005048,263.431042 C13.4032235,265.02625 11.3057849,265.825833 9.20834628,265.825833" id="Fill-2233" fill="#2F5F63"></path>
                            <path d="M34.4688024,291.040417 C32.3713638,291.040417 30.2739252,290.244792 28.6721007,288.645625 C25.4724165,285.45125 25.4724165,280.27375 28.6721007,277.079375 L53.9325568,251.860833 C57.1362059,248.666458 62.3183463,248.666458 65.5219954,251.860833 C68.7216796,255.055208 68.7216796,260.236667 65.5219954,263.431042 L40.2615393,288.645625 C38.6636796,290.244792 36.566241,291.040417 34.4688024,291.040417" id="Fill-2234" fill="#2F5F63"></path>
                            <path d="M59.7292586,265.825833 C57.63182,265.825833 55.5343814,265.02625 53.9325568,263.431042 L28.6721007,238.2125 C25.4724165,235.018125 25.4724165,229.836667 28.6721007,226.642292 C31.8757498,223.447917 37.061855,223.447917 40.2615393,226.642292 L65.5219954,251.860833 C68.7216796,255.055208 68.7216796,260.236667 65.5219954,263.431042 C63.9201708,265.02625 61.8227322,265.825833 59.7292586,265.825833" id="Fill-2235" fill="#00C489"></path>
                            <path d="M9.20834628,316.258958 C7.11487259,316.258958 5.01743399,315.459375 3.41560943,313.864167 C0.215925223,310.669792 0.215925223,305.488333 3.41560943,302.293958 L28.6721007,277.079375 C31.8757498,273.885 37.061855,273.885 40.2615393,277.079375 C43.4612235,280.27375 43.4612235,285.45125 40.2615393,288.645625 L15.005048,313.864167 C13.4032235,315.459375 11.3057849,316.258958 9.20834628,316.258958" id="Fill-2236" fill="#2F5F63"></path>
                            <path d="M34.4688024,341.4775 C32.3713638,341.4775 30.2739252,340.677917 28.6721007,339.082708 C25.4724165,335.884375 25.4724165,330.706875 28.6721007,327.5125 L53.9325568,302.293958 C57.1362059,299.103542 62.3183463,299.103542 65.5219954,302.293958 C68.7216796,305.488333 68.7216796,310.669792 65.5219954,313.864167 L40.2615393,339.082708 C38.6636796,340.677917 36.566241,341.4775 34.4688024,341.4775" id="Fill-2237" fill="#2F5F63"></path>
                            <path d="M34.4688024,291.040417 C32.3713638,291.040417 30.2739252,290.244792 28.6721007,288.645625 L3.41560943,263.431042 C0.215925223,260.236667 0.215925223,255.055208 3.41560943,251.860833 C6.61925856,248.666458 11.8013989,248.666458 15.005048,251.860833 L40.2615393,277.079375 C43.4612235,280.27375 43.4612235,285.45125 40.2615393,288.645625 C38.6636796,290.244792 36.566241,291.040417 34.4688024,291.040417" id="Fill-2238" fill="#00C489"></path>
                            <path d="M59.7292586,316.258958 C57.63182,316.258958 55.5343814,315.459375 53.9325568,313.864167 L28.6721007,288.645625 C25.4724165,285.45125 25.4724165,280.27375 28.6721007,277.079375 C31.8757498,273.885 37.061855,273.885 40.2615393,277.079375 L65.5219954,302.293958 C68.7216796,305.488333 68.7216796,310.669792 65.5219954,313.864167 C63.9201708,315.459375 61.8227322,316.258958 59.7292586,316.258958" id="Fill-2239" fill="#6EAE97"></path>
                            <path d="M59.7292586,316.258958 C57.63182,316.258958 55.5343814,315.459375 53.9325568,313.864167 L28.6721007,288.645625 C25.4724165,285.45125 25.4724165,280.27375 28.6721007,277.079375 C31.8757498,273.885 37.061855,273.885 40.2615393,277.079375 L65.5219954,302.293958 C68.7216796,305.488333 68.7216796,310.669792 65.5219954,313.864167 C63.9201708,315.459375 61.8227322,316.258958 59.7292586,316.258958" id="Fill-2240" fill="#00C489"></path>
                            <path d="M34.4688024,341.4775 C32.3713638,341.4775 30.2739252,340.677917 28.6721007,339.082708 L3.41560943,313.864167 C0.215925223,310.669792 0.215925223,305.488333 3.41560943,302.293958 C6.61925856,299.103542 11.8013989,299.103542 15.005048,302.293958 L40.2615393,327.5125 C43.4612235,330.706875 43.4612235,335.884375 40.2615393,339.082708 C38.6636796,340.677917 36.566241,341.4775 34.4688024,341.4775" id="Fill-2241" fill="#00C489"></path>
                            <path d="M64.7349474,257.864375 C64.7349474,256.835208 63.8983509,256 62.8674737,256 C61.8326316,256 61,256.835208 61,257.864375 C61,258.893542 61.8326316,259.72875 62.8674737,259.72875 C63.8983509,259.72875 64.7349474,258.893542 64.7349474,257.864375" id="Fill-2242" fill="#FFFFFF"></path>
                            <path d="M39.7349474,232.864375 C39.7349474,231.835208 38.8983509,231 37.8674737,231 C36.8365965,231 36,231.835208 36,232.864375 C36,233.8975 36.8365965,234.72875 37.8674737,234.72875 C38.8983509,234.72875 39.7349474,233.8975 39.7349474,232.864375" id="Fill-2243" fill="#FFFFFF"></path>
                            <path d="M39.7349474,282.864375 C39.7349474,281.835208 38.8983509,281 37.8674737,281 C36.8365965,281 36,281.835208 36,282.864375 C36,283.893542 36.8365965,284.72875 37.8674737,284.72875 C38.8983509,284.72875 39.7349474,283.893542 39.7349474,282.864375" id="Fill-2244" fill="#FFFFFF"></path>
                            <path d="M64.7349474,307.864375 C64.7349474,306.83125 63.8983509,306 62.8674737,306 C61.8326316,306 61,306.83125 61,307.864375 C61,308.893542 61.8326316,309.72875 62.8674737,309.72875 C63.8983509,309.72875 64.7349474,308.893542 64.7349474,307.864375" id="Fill-2245" fill="#FFFFFF"></path>
                            <path d="M14.7349474,257.864375 C14.7349474,256.835208 13.8983509,256 12.8674737,256 C11.8365965,256 11,256.835208 11,257.864375 C11,258.893542 11.8365965,259.72875 12.8674737,259.72875 C13.8983509,259.72875 14.7349474,258.893542 14.7349474,257.864375" id="Fill-2246" fill="#FFFFFF"></path>
                            <path d="M11.07582,308.081042 C11.07582,307.047917 10.2392235,306.216667 9.20834628,306.216667 C8.17746908,306.216667 7.34087259,307.047917 7.34087259,308.081042 C7.34087259,309.110208 8.17746908,309.945417 9.20834628,309.945417 C10.2392235,309.945417 11.07582,309.110208 11.07582,308.081042" id="Fill-2247" fill="#FFFFFF"></path>
                            <path d="M34.4688024,326.487292 C26.9354691,326.487292 20.8255393,332.583125 20.8255393,340.103958 L48.1081007,340.103958 C48.1081007,332.583125 42.0021357,326.487292 34.4688024,326.487292" id="Fill-2249" fill="#00FFDD"></path>
                            <path d="M25.0600656,397.092083 C16.0953989,393.303958 10.3026621,384.579792 10.3026621,374.866042 C10.3026621,361.562083 21.1427322,350.74 34.4688024,350.74 L34.4688024,360.806042 C26.7055042,360.806042 20.385434,367.111667 20.385434,374.866042 C20.385434,380.526458 23.7635393,385.612917 28.9892936,387.817708 L25.0600656,397.092083" id="Fill-2250" fill="#00FF00"></path>
                            <path d="M43.8775393,397.092083 L39.9483112,387.817708 C45.1740656,385.612917 48.5482059,380.526458 48.5482059,374.866042 C48.5482059,367.111667 42.2321007,360.806042 34.4688024,360.806042 L34.4688024,350.74 C47.7948726,350.74 58.6349428,361.562083 58.6349428,374.866042 C58.6349428,384.58375 52.8422059,393.307917 43.8775393,397.092083" id="Fill-2251" fill="#00FF00"></path>
                            <path d="M20.9603463,370.923542 C20.9563814,370.923542 20.9524165,370.919583 20.9524165,370.919583 C22.597855,365.310625 27.6570831,361.1425 33.7233989,360.825833 C27.6570831,361.1425 22.6057849,365.314583 20.9603463,370.923542 M33.7233989,360.825833 C33.7947673,360.821875 33.8701007,360.821875 33.9414691,360.817917 C33.8701007,360.821875 33.7947673,360.821875 33.7233989,360.825833 M33.9493989,360.817917 C33.9969779,360.813958 34.0405919,360.813958 34.0881708,360.813958 C34.0405919,360.813958 33.9969779,360.813958 33.9493989,360.817917 M34.0961007,360.813958 C34.1198901,360.81 34.1436796,360.81 34.1635042,360.81 C34.1436796,360.81 34.1198901,360.81 34.0961007,360.813958 M34.1753989,360.81 L34.2428024,360.81 L34.1753989,360.81 M34.2428024,360.81 L34.3102059,360.81 L34.2428024,360.81 M34.3221007,360.81 C34.3458901,360.81 34.3657147,360.81 34.3895042,360.806042 C34.3657147,360.81 34.3458901,360.81 34.3221007,360.81 M34.4013989,360.806042 L34.4688024,360.806042 L34.4688024,350.74 L34.4688024,360.806042 L34.4013989,360.806042 M33.4894691,350.759792 L33.4973989,350.759792 L33.4894691,350.759792 M33.6480656,350.755833 C33.6559954,350.751875 33.6639252,350.751875 33.6678901,350.751875 C33.6639252,350.751875 33.6559954,350.751875 33.6480656,350.755833 M33.7115042,350.751875 L33.7392586,350.751875 L33.7115042,350.751875 M33.7789077,350.751875 C33.7987322,350.747917 33.8185568,350.747917 33.8383814,350.747917 C33.8185568,350.747917 33.7987322,350.747917 33.7789077,350.751875 M33.8661357,350.747917 L33.9057849,350.747917 L33.8661357,350.747917 M33.9375042,350.747917 C33.9533638,350.743958 33.9652586,350.743958 33.9811182,350.743958 C33.9652586,350.743958 33.9533638,350.743958 33.9375042,350.747917 M34.0049077,350.743958 L34.0723112,350.743958 L34.0049077,350.743958 M34.0961007,350.743958 L34.1436796,350.743958 L34.0961007,350.743958 M34.1674691,350.743958 C34.1833287,350.74 34.2031533,350.74 34.2229779,350.74 C34.2031533,350.74 34.1833287,350.74 34.1674691,350.743958 M34.2348726,350.74 L34.306241,350.74 L34.2348726,350.74 M34.3221007,350.74 L34.3776094,350.74 L34.3221007,350.74 M34.397434,350.74 L34.4688024,350.74 L34.397434,350.74" id="Fill-2252" fill="#D3D1C2"></path>
                            <path d="M20.9524165,370.919583 C17.7804866,369.451042 14.8900656,367.487708 12.3802761,365.116667 C16.0161007,356.942708 24.0609077,351.135833 33.4894691,350.759792 L33.4973989,350.759792 C33.5489428,350.755833 33.5965217,350.755833 33.6480656,350.755833 C33.6559954,350.751875 33.6639252,350.751875 33.6678901,350.751875 L33.7115042,350.751875 L33.7392586,350.751875 L33.7789077,350.751875 C33.7987322,350.747917 33.8185568,350.747917 33.8383814,350.747917 L33.8661357,350.747917 L33.9057849,350.747917 L33.9375042,350.747917 C33.9533638,350.743958 33.9652586,350.743958 33.9811182,350.743958 L34.0049077,350.743958 L34.0723112,350.743958 L34.0961007,350.743958 L34.1436796,350.743958 L34.1674691,350.743958 C34.1833287,350.74 34.2031533,350.74 34.2229779,350.74 L34.2348726,350.74 L34.306241,350.74 L34.3221007,350.74 L34.3776094,350.74 L34.397434,350.74 L34.4688024,350.74 L34.4688024,360.806042 L34.4013989,360.806042 L34.3895042,360.806042 C34.3657147,360.81 34.3458901,360.81 34.3221007,360.81 L34.3102059,360.81 L34.2428024,360.81 L34.1753989,360.81 L34.1635042,360.81 C34.1436796,360.81 34.1198901,360.81 34.0961007,360.813958 L34.0881708,360.813958 C34.0405919,360.813958 33.9969779,360.813958 33.9493989,360.817917 L33.9414691,360.817917 C33.8701007,360.821875 33.7947673,360.821875 33.7233989,360.825833 C27.6570831,361.1425 22.597855,365.310625 20.9524165,370.919583" id="Fill-2253" fill="#00C489"></path>
                            <path d="M47.9772586,370.923542 C46.33182,365.314583 41.2765568,361.1425 35.2142059,360.825833 C41.2805217,361.1425 46.3397498,365.310625 47.9851884,370.919583 C47.9812235,370.923542 47.9812235,370.923542 47.9772586,370.923542 M35.2142059,360.825833 C35.1388726,360.821875 35.0675042,360.821875 34.9921708,360.817917 C35.0675042,360.821875 35.1388726,360.821875 35.2142059,360.825833 M34.9882059,360.817917 C34.9644165,360.817917 34.940627,360.813958 34.9168375,360.813958 C34.940627,360.813958 34.9644165,360.817917 34.9882059,360.817917 M34.9168375,360.813958 L34.849434,360.813958 L34.9168375,360.813958 M34.8375393,360.813958 C34.8177147,360.81 34.7939252,360.81 34.7701357,360.81 C34.7939252,360.81 34.8177147,360.81 34.8375393,360.813958 M34.7622059,360.81 L34.6908375,360.81 L34.7622059,360.81 M34.6908375,360.81 L34.623434,360.81 L34.6908375,360.81 M34.6155042,360.81 C34.5917147,360.81 34.5718901,360.81 34.5481007,360.806042 C34.5718901,360.81 34.5917147,360.81 34.6155042,360.81 M34.5362059,360.806042 L34.4688024,360.806042 L34.5362059,360.806042 M35.4481357,350.759792 L35.4402059,350.759792 L35.4481357,350.759792 M35.2895393,350.755833 C35.2816094,350.751875 35.2736796,350.751875 35.2657498,350.751875 C35.2736796,350.751875 35.2816094,350.751875 35.2895393,350.755833 M35.2261007,350.751875 L35.1943814,350.751875 L35.2261007,350.751875 M35.1586972,350.751875 C35.1388726,350.747917 35.119048,350.747917 35.0992235,350.747917 C35.119048,350.747917 35.1388726,350.747917 35.1586972,350.751875 M35.0714691,350.747917 L35.03182,350.747917 L35.0714691,350.747917 M35.0001007,350.747917 C34.984241,350.743958 34.9683814,350.743958 34.9564866,350.743958 C34.9723463,350.743958 34.984241,350.743958 35.0001007,350.747917 M34.9287322,350.743958 L34.8652936,350.743958 L34.9287322,350.743958 M34.8415042,350.743958 L34.7939252,350.743958 L34.8415042,350.743958 M34.7701357,350.743958 C34.7503112,350.74 34.7304866,350.74 34.7106621,350.74 C34.7304866,350.74 34.7503112,350.74 34.7701357,350.743958 M34.6987673,350.74 L34.6313638,350.74 L34.6987673,350.74 M34.6115393,350.74 L34.5560305,350.74 L34.6115393,350.74 M34.5401708,350.74 L34.4688024,350.74 L34.5401708,350.74" id="Fill-2254" fill="#D3D1C2"></path>
                            <path d="M47.9851884,370.919583 C46.3397498,365.310625 41.2805217,361.1425 35.2142059,360.825833 C35.1388726,360.821875 35.0675042,360.821875 34.9921708,360.817917 L34.9882059,360.817917 C34.9644165,360.817917 34.940627,360.813958 34.9168375,360.813958 L34.849434,360.813958 L34.8375393,360.813958 C34.8177147,360.81 34.7939252,360.81 34.7701357,360.81 L34.7622059,360.81 L34.6908375,360.81 L34.623434,360.81 L34.6155042,360.81 C34.5917147,360.81 34.5718901,360.81 34.5481007,360.806042 L34.5362059,360.806042 L34.4688024,360.806042 L34.4688024,350.74 L34.5401708,350.74 L34.5560305,350.74 L34.6115393,350.74 L34.6313638,350.74 L34.6987673,350.74 L34.7106621,350.74 C34.7304866,350.74 34.7503112,350.74 34.7701357,350.743958 L34.7939252,350.743958 L34.8415042,350.743958 L34.8652936,350.743958 L34.9287322,350.743958 L34.9564866,350.743958 C34.9683814,350.743958 34.984241,350.743958 35.0001007,350.747917 L35.03182,350.747917 L35.0714691,350.747917 L35.0992235,350.747917 C35.119048,350.747917 35.1388726,350.747917 35.1586972,350.751875 L35.1943814,350.751875 L35.2261007,350.751875 L35.2657498,350.751875 C35.2736796,350.751875 35.2816094,350.751875 35.2895393,350.755833 C35.3371182,350.755833 35.3886621,350.755833 35.4402059,350.759792 L35.4481357,350.759792 C44.8766972,351.135833 52.9215042,356.942708 56.5533638,365.116667 C54.0435743,367.487708 51.1571182,369.451042 47.9851884,370.919583" id="Fill-2255" fill="#00C489"></path>
                            <polygon id="Fill-2256" fill="#00FF00" points="14.1367322 347.707917 54.8008726 347.707917 54.8008726 340.103958 14.1367322 340.103958"></polygon>
                            <path d="M34.4688024,368.00625 C45.697434,368.00625 54.8008726,358.917917 54.8008726,347.707917 L14.1367322,347.707917 C14.1367322,358.917917 23.2401708,368.00625 34.4688024,368.00625" id="Fill-2257" fill="#6C9894"></path>
                        </g>
                    </g>
                    <g id="Group-2" mask="url(#mask-2)">
                        <g transform="translate(385.277980, 73.741334) rotate(-270.000000) translate(-385.277980, -73.741334) translate(329.777980, -50.758666)">
                            <polygon id="Fill-2258" fill="#405860" points="19.4201404 191.92375 44.0025965 191.92375 44.0025965 155.625833 19.4201404 155.625833"></polygon>
                            <polyline id="Fill-2259" fill="#00FF00" points="28.4641053 203.707708 4.01249123 217.803333 7.44610526 223.736875 31.8977193 209.645208 28.4641053 203.707708"></polyline>
                            <polyline id="Fill-2260" fill="#00FF00" points="0.0674035088 227.992083 21.5334386 248.100417 4.01249123 217.803333 0.0674035088 227.992083"></polyline>
                            <polyline id="Fill-2261" fill="#00FF00" points="34.9546667 203.707708 59.4062807 217.803333 55.9766316 223.736875 31.5210526 209.645208 34.9546667 203.707708"></polyline>
                            <polyline id="Fill-2262" fill="#00FF00" points="63.3553333 227.992083 41.8853333 248.100417 59.4062807 217.803333 63.3553333 227.992083"></polyline>
                            <path d="M31.7113684,179.14625 C18.4804561,179.14625 7.75933333,189.849583 7.75933333,203.054583 L55.6594386,203.054583 C55.6594386,189.849583 44.9383158,179.14625 31.7113684,179.14625" id="Fill-2263" fill="#00FFDD"></path>
                            <polyline id="Fill-2264" fill="#00C489" points="31.7113684 220.617708 7.75933333 203.054583 55.6594386 203.054583 31.7113684 220.617708"></polyline>
                            <path d="M56.5832632,226.9075 C56.5832632,225.842708 57.447614,224.979792 58.5181404,224.979792 C59.5847018,224.979792 60.4490526,225.842708 60.4490526,226.9075 C60.4490526,227.972292 59.5847018,228.839167 58.5181404,228.839167 C57.447614,228.839167 56.5832632,227.972292 56.5832632,226.9075" id="Fill-2266" fill="#FFFFFF"></path>
                            <polygon id="Fill-2271" fill="#00C489" points="26.668 155.625833 31.7113684 155.625833 31.7113684 16.4864583 26.668 16.4864583"></polygon>
                            <polygon id="Fill-2272" fill="#405860" points="31.7113684 155.625833 36.7507719 155.625833 36.7507719 16.4864583 31.7113684 16.4864583"></polygon>
                            <path d="M47.7494386,155.625833 C47.7494386,146.782917 40.5689825,139.614375 31.7113684,139.614375 C22.8497895,139.614375 15.6693333,146.782917 15.6693333,155.625833 C15.6693333,164.472708 22.8497895,171.64125 31.7113684,171.64125 C40.5689825,171.64125 47.7494386,164.472708 47.7494386,155.625833" id="Fill-2293" fill="#00C489"></path>
                            <path d="M40.4024561,155.625833 C40.4024561,150.83625 36.5089123,146.949167 31.7113684,146.949167 C26.9098596,146.949167 23.0202807,150.83625 23.0202807,155.625833 C23.0202807,160.419375 26.9098596,164.3025 31.7113684,164.3025 C36.5089123,164.3025 40.4024561,160.419375 40.4024561,155.625833" id="Fill-2295" fill="#02303A"></path>
                        </g>
                    </g>
                    <g id="Group-3" mask="url(#mask-2)">
                        <g transform="translate(221.719486, 38.880717)">
                            <polyline id="Fill-2321" fill="#86866F" points="0.179331032 22.3052083 7.47873454 22.3052083 0.179331032 0.233541667 0.179331032 22.3052083"></polyline>
                            <polyline id="Fill-2322" fill="#86866F" points="45.9740679 0.233541667 0.179331032 0.233541667 7.47873454 22.3052083 45.9740679 22.3052083 45.9740679 0.233541667"></polyline>
                            <polyline id="Fill-2323" fill="#73735C" points="7.47873454 22.3052083 0.179331032 22.3052083 0.179331032 0.233541667 7.47873454 22.3052083"></polyline>
                        </g>
                    </g>
                </g>
                <mask id="mask-4" fill="white">
                    <use xlink:href="#path-3"></use>
                </mask>
                <g id="Rectangle-125"></g>
            </g>
        </g>
    </g>
</svg>