<?xml version="1.0" encoding="UTF-8" standalone="no"?>
<svg width="329px" height="183px" viewBox="0 0 329 183" version="1.1" xmlns="http://www.w3.org/2000/svg" xmlns:xlink="http://www.w3.org/1999/xlink">
    <!-- Generator: Sketch 39.1 (31720) - http://www.bohemiancoding.com/sketch -->
    <title>CompareAndDiscover</title>
    <desc>Created with Sketch.</desc>
    <defs></defs>
    <g id="Symbols" stroke="none" stroke-width="1" fill="none" fill-rule="evenodd">
        <g id="CompareAndDiscover">
            <g id="Group-21">
                <g id="noun_100987_cc" transform="translate(117.756831, 117.438136)">
                    <g id="Group">
                        <g transform="translate(0.000000, 0.664274)" id="Shape">
                            <path d="M31.7426671,23.7474985 L35.9148524,25.8303128 C36.153263,25.4547234 36.4087029,24.9767004 36.6471135,24.6011109 L32.7303681,22.0232013 C32.3557229,22.6378023 31.9810777,23.2524032 31.7426671,23.7474985 L31.7426671,23.7474985 Z"></path>
                            <path d="M48.1759684,18.8306907 L48.414379,14.1528945 L46.4560063,14.1528945 L46.4560063,14.1528945 L46.6944169,18.8306907 L48.1759684,18.8306907 L48.1759684,18.8306907 Z"></path>
                            <path d="M37.7540198,16.9868878 L40.3254483,20.9135051 C40.7000935,20.6744936 41.1769147,20.4184099 41.5515599,20.1793984 L39.4739819,15.9966974 C38.8609261,16.3722869 38.3670756,16.6283706 37.7540198,16.9868878 L37.7540198,16.9868878 Z"></path>
                            <path d="M29.7842944,32.7275015 L29.7842944,32.7275015 L34.4503302,32.48849 L34.4503302,31.0202766 L29.7842944,30.7812651 L29.7842944,32.7275015 L29.7842944,32.7275015 Z"></path>
                            <path d="M64.8476804,30.8836986 L60.1816446,31.1227101 L60.1816446,32.5909235 L64.8476804,32.829935 C64.8476804,32.2324063 64.9668857,31.6178053 64.8476804,30.8836986 L64.8476804,30.8836986 L64.8476804,30.8836986 Z"></path>
                            <path d="M62.020812,22.1597793 L58.1040666,24.7376889 C58.3424771,25.1132784 58.5979171,25.5913014 58.8363277,25.9668908 L63.008513,23.8840765 C62.7701024,23.3889812 62.3954572,22.7743803 62.020812,22.1597793 L62.020812,22.1597793 Z"></path>
                            <path d="M53.1996201,20.3159764 C53.5742654,20.5549879 54.0510865,20.8110716 54.4257317,21.0500831 L56.9971602,17.1234658 C56.5033097,16.7478763 55.8902539,16.3893591 55.2771981,16.1332754 L53.1996201,20.3159764 L53.1996201,20.3159764 Z"></path>
                            <g fill="#00C489">
                                <path d="M74.4181626,0.153650242 L20.4692521,0.153650242 C20.4692521,0.153650242 0.613055802,61.9893364 0,62.8429488 L46.5922409,62.8429488 L48.1929978,62.8429488 L94.7852387,62.8429488 C94.2743589,61.9722641 74.4181626,0.153650242 74.4181626,0.153650242 L74.4181626,0.153650242 Z M47.4437073,52.2752267 C36.0340577,52.2752267 26.7190154,42.9367064 26.7190154,31.4982995 C26.7190154,20.0598927 36.0340577,10.7213724 47.4437073,10.7213724 C58.853357,10.7213724 68.1683993,19.9403869 68.1683993,31.4982995 C68.15137,42.9196342 58.8363277,52.2752267 47.4437073,52.2752267 L47.4437073,52.2752267 Z"></path>
                            </g>
                        </g>
                    </g>
                </g>
                <g id="Scale" transform="translate(117.756831, 70.855060)">
                    <g id="Group">
                        <g transform="translate(0.000000, 47.247351)" id="Shape">
                            <path d="M31.7426671,23.7474985 L35.9148524,25.8303128 C36.153263,25.4547234 36.4087029,24.9767004 36.6471135,24.6011109 L32.7303681,22.0232013 C32.3557229,22.6378023 31.9810777,23.2524032 31.7426671,23.7474985 L31.7426671,23.7474985 Z"></path>
                            <path d="M48.1759684,18.8306907 L48.414379,14.1528945 L46.4560063,14.1528945 L46.4560063,14.1528945 L46.6944169,18.8306907 L48.1759684,18.8306907 L48.1759684,18.8306907 Z"></path>
                            <path d="M37.7540198,16.9868878 L40.3254483,20.9135051 C40.7000935,20.6744936 41.1769147,20.4184099 41.5515599,20.1793984 L39.4739819,15.9966974 C38.8609261,16.3722869 38.3670756,16.6283706 37.7540198,16.9868878 L37.7540198,16.9868878 Z"></path>
                            <path d="M29.7842944,32.7275015 L29.7842944,32.7275015 L34.4503302,32.48849 L34.4503302,31.0202766 L29.7842944,30.7812651 L29.7842944,32.7275015 L29.7842944,32.7275015 Z"></path>
                            <path d="M64.8476804,30.8836986 L60.1816446,31.1227101 L60.1816446,32.5909235 L64.8476804,32.829935 C64.8476804,32.2324063 64.9668857,31.6178053 64.8476804,30.8836986 L64.8476804,30.8836986 L64.8476804,30.8836986 Z"></path>
                            <path d="M62.020812,22.1597793 L58.1040666,24.7376889 C58.3424771,25.1132784 58.5979171,25.5913014 58.8363277,25.9668908 L63.008513,23.8840765 C62.7701024,23.3889812 62.3954572,22.7743803 62.020812,22.1597793 L62.020812,22.1597793 Z"></path>
                            <path d="M53.1996201,20.3159764 C53.5742654,20.5549879 54.0510865,20.8110716 54.4257317,21.0500831 L56.9971602,17.1234658 C56.5033097,16.7478763 55.8902539,16.3893591 55.2771981,16.1332754 L53.1996201,20.3159764 L53.1996201,20.3159764 Z"></path>
                            <g fill="#00C489">
                                <path d="M74.4181626,0.153650242 L20.4692521,0.153650242 C20.4692521,0.153650242 0.613055802,61.9893364 0,62.8429488 L46.5922409,62.8429488 L48.1929978,62.8429488 L94.7852387,62.8429488 C94.2743589,61.9722641 74.4181626,0.153650242 74.4181626,0.153650242 L74.4181626,0.153650242 Z M47.4437073,52.2752267 C36.0340577,52.2752267 26.7190154,42.9367064 26.7190154,31.4982995 C26.7190154,20.0598927 36.0340577,10.7213724 47.4437073,10.7213724 C58.853357,10.7213724 68.1683993,19.9403869 68.1683993,31.4982995 C68.15137,42.9196342 58.8363277,52.2752267 47.4437073,52.2752267 L47.4437073,52.2752267 Z"></path>
                            </g>
                        </g>
                        <rect id="Rectangle-path" fill="#00C489" x="41.5515599" y="9.00990099" width="11.6480602" height="35.3902235"></rect>
                        <rect id="Rectangle-path" fill="#00C489" x="3.59562842" y="0" width="86.6792787" height="6.02650392"></rect>
                    </g>
                    <g id="Group-19" transform="translate(26.193814, 57.699748)">
                        <path d="M36.2048577,6.2371115 C27.9196279,-2.07903717 14.4929428,-2.07903717 6.21126118,6.2371115 C-2.07042039,14.5532602 -2.07042039,28.0358251 6.21126118,36.3555368 C14.4929428,44.6716855 27.9196279,44.6716855 36.2048577,36.3555368 C44.4865393,28.0358251 44.4865393,14.5532602 36.2048577,6.2371115" id="Fill-1455" fill="#00C489"></path>
                        <path d="M38.8814424,21.2945634 C38.8814424,11.4940425 30.9704995,3.54938736 21.2080595,3.54938736 C11.449126,3.54938736 3.53467658,11.4940425 3.53467658,21.2945634 C3.53467658,31.0986059 11.449126,39.043261 21.2080595,39.043261 C30.9704995,39.043261 38.8814424,31.0986059 38.8814424,21.2945634" id="Fill-1456" fill="#FFFFFF"></path>
                        <path d="M31.4863697,32.6543637 L27.5704773,28.8786927 C31.5008864,25.0890248 31.5008864,18.9233785 27.5704773,15.1337106 L31.4863697,11.3580396 C37.5761449,17.2297504 37.5761449,26.7861522 31.4863697,32.6543637" id="Fill-1457" fill="#00FFDD"></path>
                        <path d="M7.06935315,21.2963242 C7.06935315,17.2757069 8.69055924,13.4930375 11.6391958,10.6481621 L15.5525769,14.4238331 C13.6521027,16.2609297 12.6039404,18.7033935 12.6039404,21.2963242 C12.6039404,23.8927541 13.6521027,26.3352178 15.5525769,28.1688152 L11.6391958,31.9444863 C8.69055924,29.1031101 7.06935315,25.3204406 7.06935315,21.2963242 Z" id="Fill-1458" fill="#22DA27"></path>
                        <path d="M28.0520668,15.6173044 C26.2260689,13.7089207 23.7937282,12.656396 21.2080595,12.656396 C18.6223907,12.656396 16.1935347,13.7089207 14.3640521,15.6173044 L10.6040297,11.6876364 C13.4371142,8.72672802 17.2041061,7.09877472 21.2080595,7.09877472 C25.2154976,7.09877472 28.9824894,8.72672802 31.8120892,11.6876364 L28.0520668,15.6173044" id="Fill-1459" fill="#00FF00"></path>
                        <path d="M23.1694746,25.1338121 L10.6040297,26.9753439 L22.1693461,21.4657507 C23.0879039,21.0306841 24.1696032,21.4620001 24.5810036,22.4333988 C24.9959505,23.4047974 24.5845501,24.544972 23.6659923,24.9837891 L23.1694746,25.1338121" id="Fill-1460" fill="#86866F"></path>
                        <path d="M38.8814424,36.9136286 C47.3646661,28.6777734 47.3646661,15.3311028 38.8814424,7.09877472 C47.3646661,15.3311028 47.3646661,28.6777734 38.8814424,36.9136286" id="Fill-1475" fill="#73735C"></path>
                    </g>
                </g>
                <g id="Scale-Copy" transform="translate(233.247737, 103.078832)">
                    <g id="Group">
                        <g transform="translate(0.000000, 15.023579)" id="Shape">
                            <path d="M31.7426671,23.7474985 L35.9148524,25.8303128 C36.153263,25.4547234 36.4087029,24.9767004 36.6471135,24.6011109 L32.7303681,22.0232013 C32.3557229,22.6378023 31.9810777,23.2524032 31.7426671,23.7474985 L31.7426671,23.7474985 Z"></path>
                            <path d="M48.1759684,18.8306907 L48.414379,14.1528945 L46.4560063,14.1528945 L46.4560063,14.1528945 L46.6944169,18.8306907 L48.1759684,18.8306907 L48.1759684,18.8306907 Z"></path>
                            <path d="M37.7540198,16.9868878 L40.3254483,20.9135051 C40.7000935,20.6744936 41.1769147,20.4184099 41.5515599,20.1793984 L39.4739819,15.9966974 C38.8609261,16.3722869 38.3670756,16.6283706 37.7540198,16.9868878 L37.7540198,16.9868878 Z"></path>
                            <path d="M29.7842944,32.7275015 L29.7842944,32.7275015 L34.4503302,32.48849 L34.4503302,31.0202766 L29.7842944,30.7812651 L29.7842944,32.7275015 L29.7842944,32.7275015 Z"></path>
                            <path d="M64.8476804,30.8836986 L60.1816446,31.1227101 L60.1816446,32.5909235 L64.8476804,32.829935 C64.8476804,32.2324063 64.9668857,31.6178053 64.8476804,30.8836986 L64.8476804,30.8836986 L64.8476804,30.8836986 Z"></path>
                            <path d="M62.020812,22.1597793 L58.1040666,24.7376889 C58.3424771,25.1132784 58.5979171,25.5913014 58.8363277,25.9668908 L63.008513,23.8840765 C62.7701024,23.3889812 62.3954572,22.7743803 62.020812,22.1597793 L62.020812,22.1597793 Z"></path>
                            <path d="M53.1996201,20.3159764 C53.5742654,20.5549879 54.0510865,20.8110716 54.4257317,21.0500831 L56.9971602,17.1234658 C56.5033097,16.7478763 55.8902539,16.3893591 55.2771981,16.1332754 L53.1996201,20.3159764 L53.1996201,20.3159764 Z"></path>
                            <g fill="#00C489">
                                <path d="M74.4181626,0.153650242 L20.4692521,0.153650242 C20.4692521,0.153650242 0.613055802,61.9893364 0,62.8429488 L46.5922409,62.8429488 L48.1929978,62.8429488 L94.7852387,62.8429488 C94.2743589,61.9722641 74.4181626,0.153650242 74.4181626,0.153650242 L74.4181626,0.153650242 Z M47.4437073,52.2752267 C36.0340577,52.2752267 26.7190154,42.9367064 26.7190154,31.4982995 C26.7190154,20.0598927 36.0340577,10.7213724 47.4437073,10.7213724 C58.853357,10.7213724 68.1683993,19.9403869 68.1683993,31.4982995 C68.15137,42.9196342 58.8363277,52.2752267 47.4437073,52.2752267 L47.4437073,52.2752267 Z"></path>
                            </g>
                        </g>
                        <rect id="Rectangle-path" fill="#00C489" x="41.5515599" y="8.53612454" width="11.6480602" height="4.54121825"></rect>
                        <rect id="Rectangle-path" fill="#00C489" x="4.0359507" y="0.0512167472" width="86.6792787" height="6.02650392"></rect>
                    </g>
                    <g id="Group-19" transform="translate(26.193814, 25.475977)">
                        <path d="M36.2048577,6.2371115 C27.9196279,-2.07903717 14.4929428,-2.07903717 6.21126118,6.2371115 C-2.07042039,14.5532602 -2.07042039,28.0358251 6.21126118,36.3555368 C14.4929428,44.6716855 27.9196279,44.6716855 36.2048577,36.3555368 C44.4865393,28.0358251 44.4865393,14.5532602 36.2048577,6.2371115" id="Fill-1455" fill="#00C489"></path>
                        <path d="M38.8814424,21.2945634 C38.8814424,11.4940425 30.9704995,3.54938736 21.2080595,3.54938736 C11.449126,3.54938736 3.53467658,11.4940425 3.53467658,21.2945634 C3.53467658,31.0986059 11.449126,39.043261 21.2080595,39.043261 C30.9704995,39.043261 38.8814424,31.0986059 38.8814424,21.2945634" id="Fill-1456" fill="#FFFFFF"></path>
                        <path d="M31.4863697,32.6543637 L27.5704773,28.8786927 C31.5008864,25.0890248 31.5008864,18.9233785 27.5704773,15.1337106 L31.4863697,11.3580396 C37.5761449,17.2297504 37.5761449,26.7861522 31.4863697,32.6543637" id="Fill-1457" fill="#00FFDD"></path>
                        <path d="M11.6391958,31.9444863 C8.69055924,29.1031101 7.06935315,25.3204406 7.06935315,21.2963242 C7.06935315,17.2757069 8.69055924,13.4930375 11.6391958,10.6481621 L15.5525769,14.4238331 C13.6521027,16.2609297 12.6039404,18.7033935 12.6039404,21.2963242 C12.6039404,23.8927541 13.6521027,26.3352178 15.5525769,28.1688152 L11.6391958,31.9444863" id="Fill-1458" fill="#22DA27"></path>
                        <path d="M28.0520668,15.6173044 C26.2260689,13.7089207 23.7937282,12.656396 21.2080595,12.656396 C18.6223907,12.656396 16.1935347,13.7089207 14.3640521,15.6173044 L10.6040297,11.6876364 C13.4371142,8.72672802 17.2041061,7.09877472 21.2080595,7.09877472 C25.2154976,7.09877472 28.9824894,8.72672802 31.8120892,11.6876364 L28.0520668,15.6173044" id="Fill-1459" fill="#00FF00"></path>
                        <path d="M31.4018061,24.1504439 L18.8363613,25.9919758 L30.4016776,20.4823825 C31.3202354,20.0473159 32.4019347,20.4786319 32.8133351,21.4500306 C33.2282821,22.4214293 32.8168817,23.5616038 31.8983239,24.0004209 L31.4018061,24.1504439" id="Fill-1460" fill="#86866F" transform="translate(25.905714, 23.152466) rotate(207.000000) translate(-25.905714, -23.152466) "></path>
                        <path d="M38.8814424,36.9136286 C47.3646661,28.6777734 47.3646661,15.3311028 38.8814424,7.09877472 C47.3646661,15.3311028 47.3646661,28.6777734 38.8814424,36.9136286" id="Fill-1475" fill="#73735C"></path>
                    </g>
                </g>
                <g id="Gradle-Copy-5" transform="translate(132.838117, 0.000000)" fill="#868670">
                    <rect id="Rectangle-2-Copy" x="0" y="0" width="67.3708039" height="67.5721592"></rect>
                </g>
                <g id="Gradle-Copy-2" transform="translate(247.932148, 32.621834)" fill="#868670">
                    <rect id="Rectangle-2-Copy" x="0" y="0" width="67.3708039" height="67.5721592"></rect>
                </g>
                <g id="Scale-Copy-2" transform="translate(0.000000, 94.603960)">
                    <g id="Group">
                        <g transform="translate(0.000000, 23.132490)" id="Shape">
                            <path d="M31.7426671,23.7474985 L35.9148524,25.8303128 C36.153263,25.4547234 36.4087029,24.9767004 36.6471135,24.6011109 L32.7303681,22.0232013 C32.3557229,22.6378023 31.9810777,23.2524032 31.7426671,23.7474985 L31.7426671,23.7474985 Z"></path>
                            <path d="M48.1759684,18.8306907 L48.414379,14.1528945 L46.4560063,14.1528945 L46.4560063,14.1528945 L46.6944169,18.8306907 L48.1759684,18.8306907 L48.1759684,18.8306907 Z"></path>
                            <path d="M37.7540198,16.9868878 L40.3254483,20.9135051 C40.7000935,20.6744936 41.1769147,20.4184099 41.5515599,20.1793984 L39.4739819,15.9966974 C38.8609261,16.3722869 38.3670756,16.6283706 37.7540198,16.9868878 L37.7540198,16.9868878 Z"></path>
                            <path d="M29.7842944,32.7275015 L29.7842944,32.7275015 L34.4503302,32.48849 L34.4503302,31.0202766 L29.7842944,30.7812651 L29.7842944,32.7275015 L29.7842944,32.7275015 Z"></path>
                            <path d="M64.8476804,30.8836986 L60.1816446,31.1227101 L60.1816446,32.5909235 L64.8476804,32.829935 C64.8476804,32.2324063 64.9668857,31.6178053 64.8476804,30.8836986 L64.8476804,30.8836986 L64.8476804,30.8836986 Z"></path>
                            <path d="M62.020812,22.1597793 L58.1040666,24.7376889 C58.3424771,25.1132784 58.5979171,25.5913014 58.8363277,25.9668908 L63.008513,23.8840765 C62.7701024,23.3889812 62.3954572,22.7743803 62.020812,22.1597793 L62.020812,22.1597793 Z"></path>
                            <path d="M53.1996201,20.3159764 C53.5742654,20.5549879 54.0510865,20.8110716 54.4257317,21.0500831 L56.9971602,17.1234658 C56.5033097,16.7478763 55.8902539,16.3893591 55.2771981,16.1332754 L53.1996201,20.3159764 L53.1996201,20.3159764 Z"></path>
                            <g fill="#00C489">
                                <path d="M74.4181626,0.153650242 L20.4692521,0.153650242 C20.4692521,0.153650242 0.613055802,61.9893364 0,62.8429488 L46.5922409,62.8429488 L48.1929978,62.8429488 L94.7852387,62.8429488 C94.2743589,61.9722641 74.4181626,0.153650242 74.4181626,0.153650242 L74.4181626,0.153650242 Z M47.4437073,52.2752267 C36.0340577,52.2752267 26.7190154,42.9367064 26.7190154,31.4982995 C26.7190154,20.0598927 36.0340577,10.7213724 47.4437073,10.7213724 C58.853357,10.7213724 68.1683993,19.9403869 68.1683993,31.4982995 C68.15137,42.9196342 58.8363277,52.2752267 47.4437073,52.2752267 L47.4437073,52.2752267 Z"></path>
                            </g>
                        </g>
                        <rect id="Rectangle-path" fill="#00C489" x="41.5515599" y="8.10891089" width="11.6480602" height="12.1763527"></rect>
                        <rect id="Rectangle-path" fill="#00C489" x="3.59562842" y="0" width="86.6792787" height="6.02650392"></rect>
                    </g>
                    <g id="Group-19" transform="translate(26.193814, 33.584887)">
                        <path d="M36.2048577,6.2371115 C27.9196279,-2.07903717 14.4929428,-2.07903717 6.21126118,6.2371115 C-2.07042039,14.5532602 -2.07042039,28.0358251 6.21126118,36.3555368 C14.4929428,44.6716855 27.9196279,44.6716855 36.2048577,36.3555368 C44.4865393,28.0358251 44.4865393,14.5532602 36.2048577,6.2371115" id="Fill-1455" fill="#00C489"></path>
                        <path d="M38.8814424,21.2945634 C38.8814424,11.4940425 30.9704995,3.54938736 21.2080595,3.54938736 C11.449126,3.54938736 3.53467658,11.4940425 3.53467658,21.2945634 C3.53467658,31.0986059 11.449126,39.043261 21.2080595,39.043261 C30.9704995,39.043261 38.8814424,31.0986059 38.8814424,21.2945634" id="Fill-1456" fill="#FFFFFF"></path>
                        <path d="M31.4863697,32.6543637 L27.5704773,28.8786927 C31.5008864,25.0890248 31.5008864,18.9233785 27.5704773,15.1337106 L31.4863697,11.3580396 C37.5761449,17.2297504 37.5761449,26.7861522 31.4863697,32.6543637" id="Fill-1457" fill="#00FFDD"></path>
                        <path d="M11.6391958,31.9444863 C8.69055924,29.1031101 7.06935315,25.3204406 7.06935315,21.2963242 C7.06935315,17.2757069 8.69055924,13.4930375 11.6391958,10.6481621 L15.5525769,14.4238331 C13.6521027,16.2609297 12.6039404,18.7033935 12.6039404,21.2963242 C12.6039404,23.8927541 13.6521027,26.3352178 15.5525769,28.1688152 L11.6391958,31.9444863" id="Fill-1458" fill="#22DA27"></path>
                        <path d="M28.0520668,15.6173044 C26.2260689,13.7089207 23.7937282,12.656396 21.2080595,12.656396 C18.6223907,12.656396 16.1935347,13.7089207 14.3640521,15.6173044 L10.6040297,11.6876364 C13.4371142,8.72672802 17.2041061,7.09877472 21.2080595,7.09877472 C25.2154976,7.09877472 28.9824894,8.72672802 31.8120892,11.6876364 L28.0520668,15.6173044" id="Fill-1459" fill="#00FF00"></path>
                        <path d="M30.9264754,20.7660707 L18.3610305,22.6076026 L29.9263468,17.0980093 C30.8449046,16.6629427 31.9266039,17.0942587 32.3380043,18.0656574 C32.7529513,19.0370561 32.3415509,20.1772306 31.4229931,20.6160477 L30.9264754,20.7660707" id="Fill-1460" fill="#86866F" transform="translate(25.430384, 19.768093) rotate(152.000000) translate(-25.430384, -19.768093) "></path>
                        <path d="M38.8814424,36.9136286 C47.3646661,28.6777734 47.3646661,15.3311028 38.8814424,7.09877472 C47.3646661,15.3311028 47.3646661,28.6777734 38.8814424,36.9136286" id="Fill-1475" fill="#73735C"></path>
                    </g>
                </g>
                <g id="Gradle-Copy-3" transform="translate(15.281421, 23.316832)">
                    <rect id="Rectangle-2-Copy" fill="#868670" x="0" y="0.108910891" width="67.3708039" height="67.5721592"></rect>
                    <path d="M11.60285,36.6942125 C11.997052,36.6942125 12.3583984,36.6120883 12.6869,36.4478375 C13.0154016,36.2835867 13.3028363,36.0495328 13.5492125,35.7456688 C13.7955887,35.4418047 13.9885806,35.0804583 14.1281938,34.6616188 C14.2678069,34.2427792 14.3376125,33.7705651 14.3376125,33.2449625 C14.3376125,32.2101823 14.0994524,31.397153 13.623125,30.80585 C13.1467976,30.214547 12.4158924,29.9189 11.4303875,29.9189 C10.937635,29.9189 10.3997217,30.0790421 9.81663125,30.3993313 C9.23354083,30.7196204 8.67920263,31.2493213 8.1536,31.98845 C8.28500066,33.5324077 8.64224083,34.7026773 9.22533125,35.4992937 C9.80842167,36.2959102 10.60092,36.6942125 11.60285,36.6942125 L11.60285,36.6942125 Z M14.8303625,24.9174875 C14.5018609,24.5397106 14.111771,24.2399574 13.6600813,24.0182188 C13.2083915,23.7964801 12.7361775,23.6856125 12.243425,23.6856125 C11.7013973,23.6856125 11.184015,23.8005864 10.6912625,24.0305375 C10.19851,24.2604886 9.76325189,24.6382599 9.385475,25.1638625 C9.00769811,25.6894651 8.70383865,26.375202 8.4738875,27.2210938 C8.24393635,28.0669855 8.12075008,29.1140688 8.104325,30.362375 C8.59707746,29.754647 9.17194672,29.2742205 9.82895,28.9210813 C10.4859533,28.567942 11.1347343,28.391375 11.7753125,28.391375 C13.1385943,28.391375 14.2267397,28.7937835 15.0397813,29.5986125 C15.8528228,30.4034415 16.2593375,31.6188794 16.2593375,33.2449625 C16.2593375,34.0005163 16.1361512,34.6862532 15.889775,35.3021938 C15.6433988,35.9181343 15.3066896,36.4478353 14.8796375,36.8913125 C14.4525854,37.3347897 13.9598403,37.6797113 13.4013875,37.9260875 C12.8429347,38.1724637 12.2434282,38.29565 11.60285,38.29565 C10.8308711,38.29565 10.1163908,38.1396141 9.4593875,37.8275375 C8.80238422,37.5154609 8.23162117,37.0432469 7.74708125,36.4108813 C7.26254133,35.7785156 6.8806639,34.9901235 6.6014375,34.0456813 C6.3222111,33.101239 6.1826,31.9966688 6.1826,30.7319375 C6.1826,29.1551296 6.34684836,27.8123993 6.67535,26.7037062 C7.00385164,25.5950132 7.44732221,24.6916472 8.005775,23.9935812 C8.56422779,23.2955153 9.20069018,22.7863454 9.91518125,22.4660563 C10.6296723,22.1457671 11.3811086,21.985625 12.1695125,21.985625 C13.0236168,21.985625 13.7586282,22.1457671 14.3745688,22.4660563 C14.9905093,22.7863454 15.5202103,23.1846476 15.9636875,23.660975 L14.8303625,24.9174875 Z M17.7429875,35.04755 L18.1560875,35.04755 L18.1986125,35.4728 L18.2168375,35.4728 C18.3464381,35.3310493 18.4871742,35.212588 18.63905,35.1174125 C18.7909258,35.022237 18.9559616,34.97465 19.1341625,34.97465 C19.3609636,34.97465 19.5381494,35.024262 19.665725,35.1234875 C19.7933006,35.222713 19.8874622,35.3614241 19.9482125,35.539625 C20.1021133,35.3695241 20.2570242,35.232838 20.41295,35.1295625 C20.5688758,35.026287 20.7379616,34.97465 20.9202125,34.97465 C21.223964,34.97465 21.4497493,35.071849 21.597575,35.26625 C21.7454007,35.460651 21.8193125,35.7481981 21.8193125,36.1289 L21.8193125,38 L21.3211625,38 L21.3211625,36.195725 C21.3211625,35.9162736 21.2766129,35.7147881 21.1875125,35.5912625 C21.0984121,35.4677369 20.9607134,35.405975 20.7744125,35.405975 C20.5516614,35.405975 20.3046139,35.5578485 20.0332625,35.8616 L20.0332625,38 L19.5351125,38 L19.5351125,36.195725 C19.5351125,35.9162736 19.4905629,35.7147881 19.4014625,35.5912625 C19.3123621,35.4677369 19.1726385,35.405975 18.9822875,35.405975 C18.7595364,35.405975 18.5124889,35.5578485 18.2411375,35.8616 L18.2411375,38 L17.7429875,38 L17.7429875,35.04755 Z M23.0343125,34.44005 C22.937112,34.44005 22.8551003,34.4096753 22.788275,34.348925 C22.7214497,34.2881747 22.6880375,34.2112255 22.6880375,34.118075 C22.6880375,34.0208745 22.7214497,33.9429128 22.788275,33.8841875 C22.8551003,33.8254622 22.937112,33.7961 23.0343125,33.7961 C23.131513,33.7961 23.2135247,33.8254622 23.28035,33.8841875 C23.3471753,33.9429128 23.3805875,34.0208745 23.3805875,34.118075 C23.3805875,34.2112255 23.3471753,34.2881747 23.28035,34.348925 C23.2135247,34.4096753 23.131513,34.44005 23.0343125,34.44005 L23.0343125,34.44005 Z M22.7791625,35.04755 L23.2773125,35.04755 L23.2773125,38 L22.7791625,38 L22.7791625,35.04755 Z M24.2736125,35.04755 L24.6867125,35.04755 L24.7292375,35.4728 L24.7474625,35.4728 C24.8892132,35.3310493 25.0380492,35.212588 25.193975,35.1174125 C25.3499008,35.022237 25.5311365,34.97465 25.7376875,34.97465 C26.0495391,34.97465 26.2773493,35.071849 26.421125,35.26625 C26.5649007,35.460651 26.6367875,35.7481981 26.6367875,36.1289 L26.6367875,38 L26.1386375,38 L26.1386375,36.195725 C26.1386375,35.9162736 26.0940879,35.7147881 26.0049875,35.5912625 C25.9158871,35.4677369 25.7741385,35.405975 25.5797375,35.405975 C25.4258367,35.405975 25.2901631,35.4444496 25.1727125,35.5214 C25.0552619,35.5983504 24.9216132,35.7117493 24.7717625,35.8616 L24.7717625,38 L24.2736125,38 L24.2736125,35.04755 Z M29.927075,34.8217625 C30.3869773,35.2980899 30.9331031,35.7169232 31.5654688,36.078275 C32.1978344,36.4396268 32.9739079,36.6203 33.8937125,36.6203 C34.3700399,36.6203 34.8176167,36.5340696 35.2364563,36.3616063 C35.6552958,36.1891429 36.0207484,35.9468766 36.332825,35.6348 C36.6449016,35.3227234 36.8912741,34.9449522 37.07195,34.501475 C37.2526259,34.0579978 37.3429625,33.5652527 37.3429625,33.023225 C37.3429625,31.9391696 37.039103,31.0932905 36.431375,30.4855625 C35.823647,29.8778345 35.0106176,29.573975 33.9922625,29.573975 C33.4502348,29.573975 32.9862332,29.6560992 32.6002438,29.82035 C32.2142543,29.9846008 31.7831024,30.2227609 31.306775,30.5348375 L30.222725,29.8449875 L30.7401125,22.281275 L38.599475,22.281275 L38.599475,24.0305375 L32.5140125,24.0305375 L32.095175,28.687025 C32.4729519,28.489924 32.8507231,28.3338881 33.2285,28.2189125 C33.6062769,28.1039369 34.0333226,28.04645 34.50965,28.04645 C35.1830784,28.04645 35.8154345,28.144999 36.4067375,28.3421 C36.9980405,28.539201 37.5154228,28.8389542 37.9589,29.2413687 C38.4023772,29.6437833 38.751405,30.1529532 39.0059938,30.7688938 C39.2605825,31.3848343 39.387875,32.1198457 39.387875,32.97395 C39.387875,33.8280543 39.2400515,34.5835967 38.9444,35.2406 C38.6487485,35.8976033 38.2545525,36.4519415 37.7618,36.9036313 C37.2690475,37.355321 36.7064969,37.7002426 36.0741313,37.9384062 C35.4417656,38.1765699 34.7806659,38.29565 34.0908125,38.29565 C33.4666594,38.29565 32.8958963,38.2340569 32.3785063,38.1108688 C31.8611162,37.9876806 31.3930083,37.8275385 30.9741688,37.6304375 C30.5553292,37.4333365 30.1775579,37.207495 29.8408438,36.9529062 C29.5041296,36.6983175 29.2043763,36.4314139 28.941575,36.1521875 L29.927075,34.8217625 Z M44.9313125,38 C44.9970128,36.5217426 45.1284115,35.1666937 45.3255125,33.9348125 C45.5226135,32.7029313 45.7977295,31.5326618 46.1508688,30.4239688 C46.504008,29.3152757 46.955691,28.2435552 47.5059313,27.208775 C48.0561715,26.1739948 48.7172711,25.1145929 49.48925,24.0305375 L41.654525,24.0305375 L41.654525,22.281275 L51.7805375,22.281275 L51.7805375,23.5377875 C50.8443078,24.7203934 50.0846592,25.8537071 49.5015688,26.9377625 C48.9184783,28.0218179 48.4544767,29.1263881 48.10955,30.2515062 C47.7646233,31.3766244 47.5141445,32.567425 47.3581063,33.8239437 C47.202068,35.0804625 47.0912003,36.4724674 47.0255,38 L44.9313125,38 Z M54.4616375,37.33175 C54.5912381,37.4370505 54.7238743,37.5220997 54.85955,37.5869 C54.9952257,37.6517003 55.1521616,37.6841 55.3303625,37.6841 C55.5247635,37.6841 55.670562,37.6395504 55.7677625,37.55045 C55.864963,37.4613496 55.9135625,37.3520006 55.9135625,37.2224 C55.9135625,37.1454496 55.8933127,37.0786253 55.8528125,37.021925 C55.8123123,36.9652247 55.7606753,36.9156127 55.6979,36.8730875 C55.6351247,36.8305623 55.5632379,36.7931002 55.4822375,36.7607 C55.4012371,36.7282998 55.3202379,36.6959002 55.2392375,36.6635 C55.133937,36.6270498 55.028638,36.5855377 54.9233375,36.5389625 C54.818037,36.4923873 54.7238754,36.4356878 54.64085,36.3688625 C54.5578246,36.3020372 54.4899878,36.2240754 54.4373375,36.134975 C54.3846872,36.0458746 54.3583625,35.9385506 54.3583625,35.813 C54.3583625,35.6955494 54.3816498,35.585188 54.428225,35.4819125 C54.4748002,35.378637 54.5416246,35.2895379 54.6287,35.2146125 C54.7157754,35.1396871 54.8220869,35.0809627 54.9476375,35.0384375 C55.0731881,34.9959123 55.2149367,34.97465 55.3728875,34.97465 C55.5591884,34.97465 55.7302992,35.0070497 55.886225,35.07185 C56.0421508,35.1366503 56.1768119,35.2156245 56.2902125,35.308775 L56.0532875,35.624675 C55.952037,35.5477246 55.846738,35.4849502 55.7373875,35.43635 C55.628037,35.3877498 55.5085631,35.36345 55.3789625,35.36345 C55.1926616,35.36345 55.0559754,35.4059746 54.9689,35.491025 C54.8818246,35.5760754 54.8382875,35.6752994 54.8382875,35.7887 C54.8382875,35.8575503 54.8565123,35.9172872 54.8929625,35.9679125 C54.9294127,36.0185378 54.9780122,36.0630873 55.0387625,36.1015625 C55.0995128,36.1400377 55.1693746,36.1744623 55.24835,36.2048375 C55.3273254,36.2352127 55.4093371,36.2665998 55.4943875,36.299 C55.599688,36.3395002 55.7059995,36.3820248 55.813325,36.426575 C55.9206505,36.4711252 56.0168371,36.5268122 56.1018875,36.5936375 C56.1869379,36.6604628 56.2567997,36.7424745 56.311475,36.839675 C56.3661503,36.9368755 56.3934875,37.0543243 56.3934875,37.192025 C56.3934875,37.3135256 56.3702002,37.4269245 56.323625,37.532225 C56.2770498,37.6375255 56.2082005,37.7306746 56.117075,37.811675 C56.0259495,37.8926754 55.9125507,37.9564623 55.776875,38.0030375 C55.6411993,38.0496127 55.4862884,38.0729 55.3121375,38.0729 C55.1015364,38.0729 54.9010635,38.0344254 54.7107125,37.957475 C54.5203615,37.8805246 54.3543132,37.7833256 54.2125625,37.665875 L54.4616375,37.33175 Z M56.8673375,36.52985 C56.8673375,36.2868488 56.9047996,36.0691635 56.979725,35.8767875 C57.0546504,35.6844115 57.1538744,35.5214007 57.2774,35.38775 C57.4009256,35.2540993 57.5416617,35.1518379 57.6996125,35.0809625 C57.8575633,35.0100871 58.0215866,34.97465 58.1916875,34.97465 C58.3779884,34.97465 58.5450493,35.0070497 58.692875,35.07185 C58.8407007,35.1366503 58.9642245,35.2297994 59.06345,35.3513 C59.1626755,35.4728006 59.2386122,35.6185991 59.2912625,35.7887 C59.3439128,35.9588009 59.3702375,36.1491489 59.3702375,36.35975 C59.3702375,36.4691005 59.3641626,36.5602246 59.3520125,36.633125 L57.3594125,36.633125 C57.3796626,36.9530766 57.4778741,37.2061991 57.65405,37.3925 C57.8302259,37.5788009 58.0600611,37.67195 58.3435625,37.67195 C58.4853132,37.67195 58.6159244,37.6506877 58.7354,37.6081625 C58.8548756,37.5656373 58.969287,37.5099503 59.0786375,37.4411 L59.2548125,37.76915 C59.1252119,37.8501504 58.9814383,37.9210247 58.8234875,37.981775 C58.6655367,38.0425253 58.4853135,38.0729 58.2828125,38.0729 C58.0843615,38.0729 57.8990759,38.0374629 57.72695,37.9665875 C57.5548241,37.8957121 57.4049756,37.7944632 57.2774,37.6628375 C57.1498244,37.5312118 57.0495879,37.370226 56.9766875,37.179875 C56.9037871,36.989524 56.8673375,36.7728512 56.8673375,36.52985 L56.8673375,36.52985 Z M58.9328375,36.305075 C58.9328375,36.0013235 58.8690506,35.7694633 58.741475,35.6094875 C58.6138994,35.4495117 58.4346887,35.369525 58.2038375,35.369525 C58.098537,35.369525 57.9983005,35.3907873 57.903125,35.4333125 C57.8079495,35.4758377 57.7218879,35.5365871 57.6449375,35.6155625 C57.5679871,35.6945379 57.5042003,35.7917369 57.453575,35.9071625 C57.4029497,36.0225881 57.3695376,36.1552243 57.3533375,36.305075 L58.9328375,36.305075 Z M59.8805375,36.52985 C59.8805375,36.2827988 59.9190121,36.0630885 59.9959625,35.8707125 C60.0729129,35.6783365 60.1761869,35.5153257 60.3057875,35.381675 C60.4353881,35.2480243 60.5862491,35.1467753 60.758375,35.077925 C60.9305009,35.0090747 61.1117365,34.97465 61.3020875,34.97465 C61.4964885,34.97465 61.6635493,35.0100871 61.803275,35.0809625 C61.9430007,35.1518379 62.063487,35.2338495 62.1647375,35.327 L61.9156625,35.648975 C61.8265621,35.5720246 61.7344255,35.5092502 61.63925,35.46065 C61.5440745,35.4120498 61.4377631,35.38775 61.3203125,35.38775 C61.1866618,35.38775 61.0631381,35.4150872 60.9497375,35.4697625 C60.8363369,35.5244378 60.7391379,35.6023995 60.6581375,35.70365 C60.5771371,35.8049005 60.5133502,35.9253868 60.466775,36.0651125 C60.4201998,36.2048382 60.3969125,36.3597491 60.3969125,36.52985 C60.3969125,36.6999509 60.4191873,36.8538493 60.4637375,36.99155 C60.5082877,37.1292507 60.5700496,37.247712 60.649025,37.3469375 C60.7280004,37.446163 60.8241869,37.5231122 60.9375875,37.5777875 C61.0509881,37.6324628 61.1745118,37.6598 61.3081625,37.6598 C61.4499132,37.6598 61.5784994,37.6304378 61.693925,37.5717125 C61.8093506,37.5129872 61.9116121,37.4431254 62.0007125,37.362125 L62.2254875,37.690175 C62.0918368,37.8076256 61.9430008,37.9007747 61.778975,37.969625 C61.6149492,38.0384753 61.4438384,38.0729 61.2656375,38.0729 C61.0712365,38.0729 60.8889884,38.0384753 60.7188875,37.969625 C60.5487866,37.9007747 60.4019756,37.8005382 60.27845,37.6689125 C60.1549244,37.5372868 60.0577254,37.3752885 59.98685,37.1829125 C59.9159746,36.9905365 59.8805375,36.7728512 59.8805375,36.52985 L59.8805375,36.52985 Z" id="6min-57-sec" fill="#FFFFFF"></path>
                    <path d="M242.789812,41.362375 C243.29899,41.362375 243.845116,41.2022329 244.428206,40.8819437 C245.011297,40.5616546 245.565635,40.0237413 246.091237,39.2681875 C245.959837,37.7242298 245.59849,36.5580664 245.007187,35.7696625 C244.415885,34.9812586 243.61928,34.5870625 242.61735,34.5870625 C242.239573,34.5870625 241.882333,34.6691867 241.545619,34.8334375 C241.208905,34.9976883 240.917364,35.2317422 240.670987,35.5356063 C240.424611,35.8394703 240.231619,36.2049229 240.092006,36.631975 C239.952393,37.0590271 239.882587,37.527135 239.882587,38.0363125 C239.882587,39.0710927 240.120748,39.884122 240.597075,40.475425 C241.073402,41.066728 241.804308,41.362375 242.789812,41.362375 L242.789812,41.362375 Z M239.389837,46.3637875 C239.718339,46.7415644 240.108429,47.0454239 240.560119,47.275375 C241.011809,47.5053261 241.484023,47.6203 241.976775,47.6203 C242.535228,47.6203 243.060823,47.5053261 243.553575,47.275375 C244.046327,47.0454239 244.481586,46.6635464 244.859362,46.1297312 C245.237139,45.5959161 245.540999,44.9019668 245.77095,44.0478625 C246.000901,43.1937582 246.124087,42.1343563 246.140512,40.869625 C245.64776,41.4937781 245.072891,41.9865232 244.415887,42.347875 C243.758884,42.7092268 243.101891,42.8899 242.444887,42.8899 C241.081606,42.8899 239.997567,42.4874915 239.192737,41.6826625 C238.387908,40.8778335 237.9855,39.6623956 237.9855,38.0363125 C237.9855,37.2807587 238.108686,36.5950218 238.355062,35.9790813 C238.601439,35.3631407 238.934042,34.8334397 239.352881,34.3899625 C239.771721,33.9464853 240.264466,33.6015637 240.831131,33.3551875 C241.397797,33.1088113 241.993197,32.985625 242.61735,32.985625 C243.389329,32.985625 244.107915,33.1416609 244.773131,33.4537375 C245.438347,33.7658141 246.013216,34.2380281 246.497756,34.8703937 C246.982296,35.5027594 247.360067,36.2911515 247.631081,37.2355937 C247.902095,38.180036 248.0376,39.2846062 248.0376,40.5493375 C248.0376,42.1261454 247.873352,43.4688757 247.54485,44.5775687 C247.216348,45.6862618 246.772878,46.5896278 246.214425,47.2876938 C245.655972,47.9857597 245.01951,48.4949296 244.305019,48.8152187 C243.590528,49.1355079 242.839091,49.29565 242.050687,49.29565 C241.213008,49.29565 240.477997,49.1396141 239.845631,48.8275375 C239.213266,48.5154609 238.683565,48.1212649 238.256512,47.6449375 L239.389837,46.3637875 Z M249.742987,46.04755 L250.156087,46.04755 L250.198612,46.4728 L250.216837,46.4728 C250.346438,46.3310493 250.487174,46.212588 250.63905,46.1174125 C250.790926,46.022237 250.955962,45.97465 251.134162,45.97465 C251.360964,45.97465 251.538149,46.024262 251.665725,46.1234875 C251.793301,46.222713 251.887462,46.3614241 251.948212,46.539625 C252.102113,46.3695241 252.257024,46.232838 252.41295,46.1295625 C252.568876,46.026287 252.737962,45.97465 252.920212,45.97465 C253.223964,45.97465 253.449749,46.071849 253.597575,46.26625 C253.745401,46.460651 253.819312,46.7481981 253.819312,47.1289 L253.819312,49 L253.321162,49 L253.321162,47.195725 C253.321162,46.9162736 253.276613,46.7147881 253.187512,46.5912625 C253.098412,46.4677369 252.960713,46.405975 252.774412,46.405975 C252.551661,46.405975 252.304614,46.5578485 252.033262,46.8616 L252.033262,49 L251.535112,49 L251.535112,47.195725 C251.535112,46.9162736 251.490563,46.7147881 251.401462,46.5912625 C251.312362,46.4677369 251.172638,46.405975 250.982287,46.405975 C250.759536,46.405975 250.512489,46.5578485 250.241137,46.8616 L250.241137,49 L249.742987,49 L249.742987,46.04755 Z M255.034312,45.44005 C254.937112,45.44005 254.8551,45.4096753 254.788275,45.348925 C254.72145,45.2881747 254.688037,45.2112255 254.688037,45.118075 C254.688037,45.0208745 254.72145,44.9429128 254.788275,44.8841875 C254.8551,44.8254622 254.937112,44.7961 255.034312,44.7961 C255.131513,44.7961 255.213525,44.8254622 255.28035,44.8841875 C255.347175,44.9429128 255.380587,45.0208745 255.380587,45.118075 C255.380587,45.2112255 255.347175,45.2881747 255.28035,45.348925 C255.213525,45.4096753 255.131513,45.44005 255.034312,45.44005 L255.034312,45.44005 Z M254.779162,46.04755 L255.277312,46.04755 L255.277312,49 L254.779162,49 L254.779162,46.04755 Z M256.273612,46.04755 L256.686712,46.04755 L256.729237,46.4728 L256.747462,46.4728 C256.889213,46.3310493 257.038049,46.212588 257.193975,46.1174125 C257.349901,46.022237 257.531136,45.97465 257.737687,45.97465 C258.049539,45.97465 258.277349,46.071849 258.421125,46.26625 C258.564901,46.460651 258.636787,46.7481981 258.636787,47.1289 L258.636787,49 L258.138637,49 L258.138637,47.195725 C258.138637,46.9162736 258.094088,46.7147881 258.004987,46.5912625 C257.915887,46.4677369 257.774138,46.405975 257.579737,46.405975 C257.425837,46.405975 257.290163,46.4444496 257.172712,46.5214 C257.055262,46.5983504 256.921613,46.7117493 256.771762,46.8616 L256.771762,49 L256.273612,49 L256.273612,46.04755 Z M267.815437,43.037725 L267.815437,38.4797875 C267.815437,38.0527354 267.827756,37.5476717 267.852394,36.9645813 C267.877031,36.3814908 267.905775,35.8764271 267.938625,35.449375 L267.840075,35.449375 C267.642974,35.8271519 267.437664,36.1967107 267.224137,36.5580625 C267.010611,36.9194143 266.788876,37.2889731 266.558925,37.66675 L262.887937,43.037725 L267.815437,43.037725 Z M271.880625,44.6638 L269.737162,44.6638 L269.737162,49 L267.815437,49 L267.815437,44.6638 L260.744475,44.6638 L260.744475,43.333375 L267.470512,33.281275 L269.737162,33.281275 L269.737162,43.037725 L271.880625,43.037725 L271.880625,44.6638 Z M274.245825,45.74785 C274.722152,46.2406025 275.276491,46.6758606 275.908856,47.0536375 C276.541222,47.4314144 277.325508,47.6203 278.261737,47.6203 C279.214392,47.6203 279.994572,47.3616088 280.6023,46.8442187 C281.210028,46.3268287 281.513887,45.6246669 281.513887,44.7377125 C281.513887,44.2778102 281.427657,43.8548707 281.255194,43.4688812 C281.08273,43.0828918 280.799402,42.7502889 280.4052,42.4710625 C280.010998,42.1918361 279.493616,41.9783132 278.853037,41.8304875 C278.212459,41.6826618 277.424067,41.60875 276.487837,41.60875 L276.487837,40.0565875 C277.325517,40.0565875 278.027678,39.9826757 278.594344,39.83485 C279.161009,39.6870243 279.620904,39.4817138 279.974044,39.2189125 C280.327183,38.9561112 280.577662,38.6440393 280.725487,38.2826875 C280.873313,37.9213357 280.947225,37.5353521 280.947225,37.124725 C280.947225,36.3527461 280.704959,35.7450272 280.220419,35.30155 C279.735879,34.8580728 279.074779,34.6363375 278.2371,34.6363375 C277.580097,34.6363375 276.976484,34.784161 276.426244,35.0798125 C275.876003,35.375464 275.362727,35.7614476 274.8864,36.237775 L273.80235,34.956625 C274.410078,34.3817471 275.07939,33.9095331 275.810306,33.5399687 C276.541222,33.1704044 277.374783,32.985625 278.311012,32.985625 C279.000866,32.985625 279.633222,33.0759616 280.2081,33.2566375 C280.782978,33.4373134 281.279829,33.6960046 281.698669,34.0327188 C282.117508,34.3694329 282.441899,34.78416 282.67185,35.2769125 C282.901801,35.769665 283.016775,36.3363218 283.016775,36.9769 C283.016775,37.9295548 282.753978,38.7097345 282.228375,39.3174625 C281.702772,39.9251905 281.012929,40.3932984 280.158825,40.7218 L280.158825,40.82035 C280.635152,40.9353256 281.078623,41.1036801 281.48925,41.3254187 C281.899877,41.5471574 282.261223,41.8263796 282.5733,42.1630938 C282.885377,42.4998079 283.127643,42.8898978 283.300106,43.333375 C283.47257,43.7768522 283.5588,44.2695973 283.5588,44.811625 C283.5588,45.5014784 283.423295,46.1256222 283.152281,46.684075 C282.881267,47.2425278 282.511709,47.7147418 282.043594,48.1007312 C281.575479,48.4867207 281.029353,48.7823677 280.4052,48.9876813 C279.781047,49.1929948 279.107629,49.29565 278.384925,49.29565 C277.760772,49.29565 277.190009,49.2340569 276.672619,49.1108688 C276.155229,48.9876806 275.683015,48.8234323 275.255962,48.6181188 C274.82891,48.4128052 274.447033,48.1787513 274.110319,47.91595 C273.773605,47.6531487 273.473851,47.3739265 273.21105,47.078275 L274.245825,45.74785 Z M286.461637,48.33175 C286.591238,48.4370505 286.723874,48.5220997 286.85955,48.5869 C286.995226,48.6517003 287.152162,48.6841 287.330362,48.6841 C287.524763,48.6841 287.670562,48.6395504 287.767762,48.55045 C287.864963,48.4613496 287.913562,48.3520006 287.913562,48.2224 C287.913562,48.1454496 287.893313,48.0786253 287.852812,48.021925 C287.812312,47.9652247 287.760675,47.9156127 287.6979,47.8730875 C287.635125,47.8305623 287.563238,47.7931002 287.482237,47.7607 C287.401237,47.7282998 287.320238,47.6959002 287.239237,47.6635 C287.133937,47.6270498 287.028638,47.5855377 286.923337,47.5389625 C286.818037,47.4923873 286.723875,47.4356878 286.64085,47.3688625 C286.557825,47.3020372 286.489988,47.2240754 286.437337,47.134975 C286.384687,47.0458746 286.358362,46.9385506 286.358362,46.813 C286.358362,46.6955494 286.38165,46.585188 286.428225,46.4819125 C286.4748,46.378637 286.541625,46.2895379 286.6287,46.2146125 C286.715775,46.1396871 286.822087,46.0809627 286.947637,46.0384375 C287.073188,45.9959123 287.214937,45.97465 287.372887,45.97465 C287.559188,45.97465 287.730299,46.0070497 287.886225,46.07185 C288.042151,46.1366503 288.176812,46.2156245 288.290212,46.308775 L288.053287,46.624675 C287.952037,46.5477246 287.846738,46.4849502 287.737387,46.43635 C287.628037,46.3877498 287.508563,46.36345 287.378962,46.36345 C287.192662,46.36345 287.055975,46.4059746 286.9689,46.491025 C286.881825,46.5760754 286.838287,46.6752994 286.838287,46.7887 C286.838287,46.8575503 286.856512,46.9172872 286.892962,46.9679125 C286.929413,47.0185378 286.978012,47.0630873 287.038762,47.1015625 C287.099513,47.1400377 287.169375,47.1744623 287.24835,47.2048375 C287.327325,47.2352127 287.409337,47.2665998 287.494387,47.299 C287.599688,47.3395002 287.705999,47.3820248 287.813325,47.426575 C287.920651,47.4711252 288.016837,47.5268122 288.101887,47.5936375 C288.186938,47.6604628 288.2568,47.7424745 288.311475,47.839675 C288.36615,47.9368755 288.393487,48.0543243 288.393487,48.192025 C288.393487,48.3135256 288.3702,48.4269245 288.323625,48.532225 C288.27705,48.6375255 288.2082,48.7306746 288.117075,48.811675 C288.02595,48.8926754 287.912551,48.9564623 287.776875,49.0030375 C287.641199,49.0496127 287.486288,49.0729 287.312137,49.0729 C287.101536,49.0729 286.901063,49.0344254 286.710712,48.957475 C286.520362,48.8805246 286.354313,48.7833256 286.212562,48.665875 L286.461637,48.33175 Z M288.867337,47.52985 C288.867337,47.2868488 288.9048,47.0691635 288.979725,46.8767875 C289.05465,46.6844115 289.153874,46.5214007 289.2774,46.38775 C289.400926,46.2540993 289.541662,46.1518379 289.699612,46.0809625 C289.857563,46.0100871 290.021587,45.97465 290.191687,45.97465 C290.377988,45.97465 290.545049,46.0070497 290.692875,46.07185 C290.840701,46.1366503 290.964225,46.2297994 291.06345,46.3513 C291.162675,46.4728006 291.238612,46.6185991 291.291262,46.7887 C291.343913,46.9588009 291.370237,47.1491489 291.370237,47.35975 C291.370237,47.4691005 291.364163,47.5602246 291.352012,47.633125 L289.359412,47.633125 C289.379663,47.9530766 289.477874,48.2061991 289.65405,48.3925 C289.830226,48.5788009 290.060061,48.67195 290.343562,48.67195 C290.485313,48.67195 290.615924,48.6506877 290.7354,48.6081625 C290.854876,48.5656373 290.969287,48.5099503 291.078637,48.4411 L291.254812,48.76915 C291.125212,48.8501504 290.981438,48.9210247 290.823487,48.981775 C290.665537,49.0425253 290.485314,49.0729 290.282812,49.0729 C290.084362,49.0729 289.899076,49.0374629 289.72695,48.9665875 C289.554824,48.8957121 289.404976,48.7944632 289.2774,48.6628375 C289.149824,48.5312118 289.049588,48.370226 288.976687,48.179875 C288.903787,47.989524 288.867337,47.7728512 288.867337,47.52985 L288.867337,47.52985 Z M290.932837,47.305075 C290.932837,47.0013235 290.869051,46.7694633 290.741475,46.6094875 C290.613899,46.4495117 290.434689,46.369525 290.203837,46.369525 C290.098537,46.369525 289.9983,46.3907873 289.903125,46.4333125 C289.80795,46.4758377 289.721888,46.5365871 289.644937,46.6155625 C289.567987,46.6945379 289.5042,46.7917369 289.453575,46.9071625 C289.40295,47.0225881 289.369538,47.1552243 289.353337,47.305075 L290.932837,47.305075 Z M291.880537,47.52985 C291.880537,47.2827988 291.919012,47.0630885 291.995962,46.8707125 C292.072913,46.6783365 292.176187,46.5153257 292.305787,46.381675 C292.435388,46.2480243 292.586249,46.1467753 292.758375,46.077925 C292.930501,46.0090747 293.111737,45.97465 293.302087,45.97465 C293.496488,45.97465 293.663549,46.0100871 293.803275,46.0809625 C293.943001,46.1518379 294.063487,46.2338495 294.164737,46.327 L293.915662,46.648975 C293.826562,46.5720246 293.734425,46.5092502 293.63925,46.46065 C293.544075,46.4120498 293.437763,46.38775 293.320312,46.38775 C293.186662,46.38775 293.063138,46.4150872 292.949737,46.4697625 C292.836337,46.5244378 292.739138,46.6023995 292.658137,46.70365 C292.577137,46.8049005 292.51335,46.9253868 292.466775,47.0651125 C292.4202,47.2048382 292.396912,47.3597491 292.396912,47.52985 C292.396912,47.6999509 292.419187,47.8538493 292.463737,47.99155 C292.508288,48.1292507 292.57005,48.247712 292.649025,48.3469375 C292.728,48.446163 292.824187,48.5231122 292.937587,48.5777875 C293.050988,48.6324628 293.174512,48.6598 293.308162,48.6598 C293.449913,48.6598 293.578499,48.6304378 293.693925,48.5717125 C293.809351,48.5129872 293.911612,48.4431254 294.000712,48.362125 L294.225487,48.690175 C294.091837,48.8076256 293.943001,48.9007747 293.778975,48.969625 C293.614949,49.0384753 293.443838,49.0729 293.265637,49.0729 C293.071237,49.0729 292.888988,49.0384753 292.718887,48.969625 C292.548787,48.9007747 292.401976,48.8005382 292.27845,48.6689125 C292.154924,48.5372868 292.057725,48.3752885 291.98685,48.1829125 C291.915975,47.9905365 291.880537,47.7728512 291.880537,47.52985 L291.880537,47.52985 Z" id="9min-43-sec" fill="#FFFFFF"></path>
                    <path d="M132.4898,11.037725 L132.4898,6.4797875 C132.4898,6.05273536 132.502119,5.54767167 132.526756,4.96458125 C132.551394,4.38149083 132.580137,3.87642714 132.612988,3.449375 L132.514438,3.449375 C132.317337,3.82715189 132.112026,4.19671069 131.8985,4.5580625 C131.684974,4.91941431 131.463239,5.28897311 131.233288,5.66675 L127.5623,11.037725 L132.4898,11.037725 Z M136.554988,12.6638 L134.411525,12.6638 L134.411525,17 L132.4898,17 L132.4898,12.6638 L125.418838,12.6638 L125.418838,11.333375 L132.144875,1.281275 L134.411525,1.281275 L134.411525,11.037725 L136.554988,11.037725 L136.554988,12.6638 Z M144.734638,11.037725 L144.734638,6.4797875 C144.734638,6.05273536 144.746956,5.54767167 144.771594,4.96458125 C144.796231,4.38149083 144.824975,3.87642714 144.857825,3.449375 L144.759275,3.449375 C144.562174,3.82715189 144.356864,4.19671069 144.143338,4.5580625 C143.929811,4.91941431 143.708076,5.28897311 143.478125,5.66675 L139.807138,11.037725 L144.734638,11.037725 Z M148.799825,12.6638 L146.656363,12.6638 L146.656363,17 L144.734638,17 L144.734638,12.6638 L137.663675,12.6638 L137.663675,11.333375 L144.389713,1.281275 L146.656363,1.281275 L146.656363,11.037725 L148.799825,11.037725 L148.799825,12.6638 Z M151.091113,15.768125 C151.091113,15.2917976 151.23483,14.9099202 151.522269,14.6224812 C151.809708,14.3350423 152.158735,14.191325 152.569363,14.191325 C152.963564,14.191325 153.30438,14.3350423 153.591819,14.6224812 C153.879258,14.9099202 154.022975,15.2917976 154.022975,15.768125 C154.022975,16.2116022 153.879258,16.5770548 153.591819,16.8644938 C153.30438,17.1519327 152.963564,17.29565 152.569363,17.29565 C152.158735,17.29565 151.809708,17.1519327 151.522269,16.8644938 C151.23483,16.5770548 151.091113,16.2116022 151.091113,15.768125 L151.091113,15.768125 Z M156.609913,15.7927625 C157.792518,14.6101566 158.843708,13.5425423 159.763513,12.5898875 C160.683317,11.6372327 161.455284,10.7543978 162.079438,9.94135625 C162.703591,9.12831468 163.179911,8.38098466 163.508413,7.69934375 C163.836914,7.01770284 164.001163,6.3566032 164.001163,5.716025 C164.001163,4.81264548 163.75479,4.07352787 163.262038,3.49865 C162.769285,2.92377213 162.021955,2.6363375 161.020025,2.6363375 C160.363022,2.6363375 159.755303,2.8211169 159.19685,3.19068125 C158.638397,3.5602456 158.129227,4.00782237 157.669325,4.533425 L156.511363,3.3754625 C157.168366,2.65275889 157.866421,2.07378343 158.60555,1.63851875 C159.344679,1.20325407 160.23162,0.985625 161.2664,0.985625 C162.728232,0.985625 163.877971,1.40856452 164.71565,2.25445625 C165.553329,3.10034798 165.972163,4.22134302 165.972163,5.617475 C165.972163,6.3566037 165.81202,7.09982751 165.491731,7.84716875 C165.171442,8.59450999 164.727972,9.36647727 164.161306,10.1630938 C163.594641,10.9597102 162.921223,11.7891644 162.141031,12.6514812 C161.36084,13.5137981 160.502642,14.4294827 159.566413,15.3985625 C159.993465,15.3657123 160.436935,15.3328627 160.896838,15.3000125 C161.35674,15.2671623 161.791998,15.2507375 162.202625,15.2507375 L166.760563,15.2507375 L166.760563,17 L156.609913,17 L156.609913,15.7927625 Z M169.515575,16.33175 C169.645176,16.4370505 169.777812,16.5220997 169.913488,16.5869 C170.049163,16.6517003 170.206099,16.6841 170.3843,16.6841 C170.578701,16.6841 170.7245,16.6395504 170.8217,16.55045 C170.9189,16.4613496 170.9675,16.3520006 170.9675,16.2224 C170.9675,16.1454496 170.94725,16.0786253 170.90675,16.021925 C170.86625,15.9652247 170.814613,15.9156127 170.751838,15.8730875 C170.689062,15.8305623 170.617175,15.7931002 170.536175,15.7607 C170.455175,15.7282998 170.374175,15.6959002 170.293175,15.6635 C170.187874,15.6270498 170.082576,15.5855377 169.977275,15.5389625 C169.871974,15.4923873 169.777813,15.4356878 169.694788,15.3688625 C169.611762,15.3020372 169.543925,15.2240754 169.491275,15.134975 C169.438625,15.0458746 169.4123,14.9385506 169.4123,14.813 C169.4123,14.6955494 169.435587,14.585188 169.482163,14.4819125 C169.528738,14.378637 169.595562,14.2895379 169.682638,14.2146125 C169.769713,14.1396871 169.876024,14.0809627 170.001575,14.0384375 C170.127126,13.9959123 170.268874,13.97465 170.426825,13.97465 C170.613126,13.97465 170.784237,14.0070497 170.940163,14.07185 C171.096088,14.1366503 171.230749,14.2156245 171.34415,14.308775 L171.107225,14.624675 C171.005974,14.5477246 170.900676,14.4849502 170.791325,14.43635 C170.681974,14.3877498 170.562501,14.36345 170.4329,14.36345 C170.246599,14.36345 170.109913,14.4059746 170.022838,14.491025 C169.935762,14.5760754 169.892225,14.6752994 169.892225,14.7887 C169.892225,14.8575503 169.91045,14.9172872 169.9469,14.9679125 C169.98335,15.0185378 170.03195,15.0630873 170.0927,15.1015625 C170.15345,15.1400377 170.223312,15.1744623 170.302288,15.2048375 C170.381263,15.2352127 170.463275,15.2665998 170.548325,15.299 C170.653626,15.3395002 170.759937,15.3820248 170.867263,15.426575 C170.974588,15.4711252 171.070775,15.5268122 171.155825,15.5936375 C171.240875,15.6604628 171.310737,15.7424745 171.365413,15.839675 C171.420088,15.9368755 171.447425,16.0543243 171.447425,16.192025 C171.447425,16.3135256 171.424138,16.4269245 171.377563,16.532225 C171.330987,16.6375255 171.262138,16.7306746 171.171013,16.811675 C171.079887,16.8926754 170.966488,16.9564623 170.830813,17.0030375 C170.695137,17.0496127 170.540226,17.0729 170.366075,17.0729 C170.155474,17.0729 169.955001,17.0344254 169.76465,16.957475 C169.574299,16.8805246 169.408251,16.7833256 169.2665,16.665875 L169.515575,16.33175 Z M171.921275,15.52985 C171.921275,15.2868488 171.958737,15.0691635 172.033663,14.8767875 C172.108588,14.6844115 172.207812,14.5214007 172.331338,14.38775 C172.454863,14.2540993 172.595599,14.1518379 172.75355,14.0809625 C172.911501,14.0100871 173.075524,13.97465 173.245625,13.97465 C173.431926,13.97465 173.598987,14.0070497 173.746813,14.07185 C173.894638,14.1366503 174.018162,14.2297994 174.117388,14.3513 C174.216613,14.4728006 174.29255,14.6185991 174.3452,14.7887 C174.39785,14.9588009 174.424175,15.1491489 174.424175,15.35975 C174.424175,15.4691005 174.4181,15.5602246 174.40595,15.633125 L172.41335,15.633125 C172.4336,15.9530766 172.531812,16.2061991 172.707988,16.3925 C172.884163,16.5788009 173.113999,16.67195 173.3975,16.67195 C173.539251,16.67195 173.669862,16.6506877 173.789338,16.6081625 C173.908813,16.5656373 174.023224,16.5099503 174.132575,16.4411 L174.30875,16.76915 C174.179149,16.8501504 174.035376,16.9210247 173.877425,16.981775 C173.719474,17.0425253 173.539251,17.0729 173.33675,17.0729 C173.138299,17.0729 172.953013,17.0374629 172.780888,16.9665875 C172.608762,16.8957121 172.458913,16.7944632 172.331338,16.6628375 C172.203762,16.5312118 172.103525,16.370226 172.030625,16.179875 C171.957725,15.989524 171.921275,15.7728512 171.921275,15.52985 L171.921275,15.52985 Z M173.986775,15.305075 C173.986775,15.0013235 173.922988,14.7694633 173.795413,14.6094875 C173.667837,14.4495117 173.488626,14.369525 173.257775,14.369525 C173.152474,14.369525 173.052238,14.3907873 172.957063,14.4333125 C172.861887,14.4758377 172.775825,14.5365871 172.698875,14.6155625 C172.621925,14.6945379 172.558138,14.7917369 172.507513,14.9071625 C172.456887,15.0225881 172.423475,15.1552243 172.407275,15.305075 L173.986775,15.305075 Z M174.934475,15.52985 C174.934475,15.2827988 174.97295,15.0630885 175.0499,14.8707125 C175.12685,14.6783365 175.230124,14.5153257 175.359725,14.381675 C175.489326,14.2480243 175.640187,14.1467753 175.812313,14.077925 C175.984438,14.0090747 176.165674,13.97465 176.356025,13.97465 C176.550426,13.97465 176.717487,14.0100871 176.857213,14.0809625 C176.996938,14.1518379 177.117424,14.2338495 177.218675,14.327 L176.9696,14.648975 C176.8805,14.5720246 176.788363,14.5092502 176.693188,14.46065 C176.598012,14.4120498 176.491701,14.38775 176.37425,14.38775 C176.240599,14.38775 176.117076,14.4150872 176.003675,14.4697625 C175.890274,14.5244378 175.793075,14.6023995 175.712075,14.70365 C175.631075,14.8049005 175.567288,14.9253868 175.520713,15.0651125 C175.474137,15.2048382 175.45085,15.3597491 175.45085,15.52985 C175.45085,15.6999509 175.473125,15.8538493 175.517675,15.99155 C175.562225,16.1292507 175.623987,16.247712 175.702963,16.3469375 C175.781938,16.446163 175.878124,16.5231122 175.991525,16.5777875 C176.104926,16.6324628 176.228449,16.6598 176.3621,16.6598 C176.503851,16.6598 176.632437,16.6304378 176.747863,16.5717125 C176.863288,16.5129872 176.96555,16.4431254 177.05465,16.362125 L177.279425,16.690175 C177.145774,16.8076256 176.996938,16.9007747 176.832913,16.969625 C176.668887,17.0384753 176.497776,17.0729 176.319575,17.0729 C176.125174,17.0729 175.942926,17.0384753 175.772825,16.969625 C175.602724,16.9007747 175.455913,16.8005382 175.332388,16.6689125 C175.208862,16.5372868 175.111663,16.3752885 175.040788,16.1829125 C174.969912,15.9905365 174.934475,15.7728512 174.934475,15.52985 L174.934475,15.52985 Z" id="44.2-sec" fill="#FFFFFF"></path>
                </g>
            </g>
        </g>
    </g>
</svg>