<?xml version="1.0" encoding="UTF-8" standalone="no"?><svg xmlns="http://www.w3.org/2000/svg" xmlns:xlink="http://www.w3.org/1999/xlink" contentScriptType="application/ecmascript" contentStyleType="text/css" height="733px" preserveAspectRatio="none" style="width:715px;height:733px;" version="1.1" viewBox="0 0 715 733" width="715px" zoomAndPan="magnify"><defs><filter height="300%" id="f1xb30s4jdlsyt" width="300%" x="-1" y="-1"><feGaussianBlur result="blurOut" stdDeviation="2.0"/><feColorMatrix in="blurOut" result="blurOut2" type="matrix" values="0 0 0 0 0 0 0 0 0 0 0 0 0 0 0 0 0 0 .4 0"/><feOffset dx="4.0" dy="4.0" in="blurOut2" result="blurOut3"/><feBlend in="SourceGraphic" in2="blurOut3" mode="normal"/></filter></defs><g><text fill="#000000" font-family="sans-serif" font-size="14" font-weight="bold" lengthAdjust="spacingAndGlyphs" textLength="115" x="299.25" y="23.5352">Running a build</text><rect fill="#FFFFFF" filter="url(#f1xb30s4jdlsyt)" height="101.9316" style="stroke: #000000; stroke-width: 2.0;" width="402.5" x="298" y="378.0625"/><line style="stroke: #02303A; stroke-width: 1.0;" x1="29" x2="29" y1="120.5098" y2="203.1309"/><line style="stroke: #02303A; stroke-width: 1.0; stroke-dasharray: 1.0,4.0;" x1="29" x2="29" y1="203.1309" y2="231.1309"/><line style="stroke: #02303A; stroke-width: 1.0;" x1="29" x2="29" y1="231.1309" y2="664.9258"/><line style="stroke: #02303A; stroke-width: 1.0; stroke-dasharray: 1.0,4.0;" x1="29" x2="29" y1="664.9258" y2="692.9258"/><line style="stroke: #02303A; stroke-width: 1.0;" x1="29" x2="29" y1="692.9258" y2="732.2363"/><line style="stroke: #02303A; stroke-width: 1.0;" x1="172" x2="172" y1="120.5098" y2="203.1309"/><line style="stroke: #02303A; stroke-width: 1.0; stroke-dasharray: 1.0,4.0;" x1="172" x2="172" y1="203.1309" y2="231.1309"/><line style="stroke: #02303A; stroke-width: 1.0;" x1="172" x2="172" y1="231.1309" y2="664.9258"/><line style="stroke: #02303A; stroke-width: 1.0; stroke-dasharray: 1.0,4.0;" x1="172" x2="172" y1="664.9258" y2="692.9258"/><line style="stroke: #02303A; stroke-width: 1.0;" x1="172" x2="172" y1="692.9258" y2="732.2363"/><line style="stroke: #02303A; stroke-width: 1.0;" x1="351" x2="351" y1="120.5098" y2="203.1309"/><line style="stroke: #02303A; stroke-width: 1.0; stroke-dasharray: 1.0,4.0;" x1="351" x2="351" y1="203.1309" y2="231.1309"/><line style="stroke: #02303A; stroke-width: 1.0;" x1="351" x2="351" y1="231.1309" y2="664.9258"/><line style="stroke: #02303A; stroke-width: 1.0; stroke-dasharray: 1.0,4.0;" x1="351" x2="351" y1="664.9258" y2="692.9258"/><line style="stroke: #02303A; stroke-width: 1.0;" x1="351" x2="351" y1="692.9258" y2="732.2363"/><text fill="#02303A" font-family="sans-serif" font-size="17" lengthAdjust="spacingAndGlyphs" textLength="37" x="8" y="116.9238">User</text><ellipse cx="29.5" cy="43.4883" fill="#FFFFFF" filter="url(#f1xb30s4jdlsyt)" rx="8" ry="8" style="stroke: #00C489; stroke-width: 2.0;"/><path d="M29.5,51.4883 L29.5,78.4883 M16.5,59.4883 L42.5,59.4883 M29.5,78.4883 L16.5,93.4883 M29.5,78.4883 L42.5,93.4883 " fill="#FFFFFF" filter="url(#f1xb30s4jdlsyt)" style="stroke: #00C489; stroke-width: 2.0;"/><rect fill="#FFFFFF" filter="url(#f1xb30s4jdlsyt)" height="30.4883" style="stroke: #00C489; stroke-width: 1.5;" width="59" x="141" y="85.0215"/><text fill="#02303A" font-family="sans-serif" font-size="14" lengthAdjust="spacingAndGlyphs" textLength="45" x="148" y="105.5566">Gradle</text><rect fill="#FFFFFF" filter="url(#f1xb30s4jdlsyt)" height="30.4883" style="stroke: #00C489; stroke-width: 1.5;" width="83" x="308" y="85.0215"/><text fill="#02303A" font-family="sans-serif" font-size="14" lengthAdjust="spacingAndGlyphs" textLength="69" x="315" y="105.5566">Kotlin DSL</text><polygon fill="#00C489" points="160.5,147.5098,170.5,151.5098,160.5,155.5098,164.5,151.5098" style="stroke: #00C489; stroke-width: 1.0;"/><line style="stroke: #00C489; stroke-width: 2.0;" x1="29.5" x2="166.5" y1="151.5098" y2="151.5098"/><text fill="#000000" font-family="sans-serif" font-size="13" lengthAdjust="spacingAndGlyphs" textLength="96" x="36.5" y="147.0781">./gradlew build</text><rect fill="#EEEEEE" filter="url(#f1xb30s4jdlsyt)" height="3" style="stroke: #EEEEEE; stroke-width: 1.0;" width="707.5" x="3" y="180.4756"/><line style="stroke: #000000; stroke-width: 1.0;" x1="3" x2="710.5" y1="180.4756" y2="180.4756"/><line style="stroke: #000000; stroke-width: 1.0;" x1="3" x2="710.5" y1="183.4756" y2="183.4756"/><rect fill="#EEEEEE" filter="url(#f1xb30s4jdlsyt)" height="23.3105" style="stroke: #000000; stroke-width: 2.0;" width="147" x="283.25" y="169.8203"/><text fill="#000000" font-family="sans-serif" font-size="13" font-weight="bold" lengthAdjust="spacingAndGlyphs" textLength="129" x="289.25" y="186.3887">Initialization phase</text><line style="stroke: #00C489; stroke-width: 2.0;" x1="172.5" x2="214.5" y1="252.4414" y2="252.4414"/><line style="stroke: #00C489; stroke-width: 2.0;" x1="214.5" x2="214.5" y1="252.4414" y2="265.4414"/><line style="stroke: #00C489; stroke-width: 2.0;" x1="173.5" x2="214.5" y1="265.4414" y2="265.4414"/><polygon fill="#00C489" points="183.5,261.4414,173.5,265.4414,183.5,269.4414,179.5,265.4414" style="stroke: #00C489; stroke-width: 1.0;"/><text fill="#000000" font-family="sans-serif" font-size="13" lengthAdjust="spacingAndGlyphs" textLength="153" x="179.5" y="247.6992">Finds `build.gradle.kts`</text><rect fill="#EEEEEE" filter="url(#f1xb30s4jdlsyt)" height="3" style="stroke: #EEEEEE; stroke-width: 1.0;" width="707.5" x="3" y="294.0967"/><line style="stroke: #000000; stroke-width: 1.0;" x1="3" x2="710.5" y1="294.0967" y2="294.0967"/><line style="stroke: #000000; stroke-width: 1.0;" x1="3" x2="710.5" y1="297.0967" y2="297.0967"/><rect fill="#EEEEEE" filter="url(#f1xb30s4jdlsyt)" height="23.3105" style="stroke: #000000; stroke-width: 2.0;" width="156" x="278.75" y="283.4414"/><text fill="#000000" font-family="sans-serif" font-size="13" font-weight="bold" lengthAdjust="spacingAndGlyphs" textLength="138" x="284.75" y="300.0098">Configuration phase</text><polygon fill="#00C489" points="339.5,358.752,349.5,362.752,339.5,366.752,343.5,362.752" style="stroke: #00C489; stroke-width: 1.0;"/><line style="stroke: #00C489; stroke-width: 2.0;" x1="172.5" x2="345.5" y1="362.752" y2="362.752"/><text fill="#000000" font-family="sans-serif" font-size="13" lengthAdjust="spacingAndGlyphs" textLength="155" x="179.5" y="358.3203">Apply `build.gradle.kts`</text><rect fill="none" height="101.9316" style="stroke: #000000; stroke-width: 2.0;" width="402.5" x="298" y="378.0625"/><polygon fill="#EEEEEE" points="298,378.0625,518,378.0625,518,385.0625,508,395.0625,298,395.0625,298,378.0625" style="stroke: #000000; stroke-width: 2.0;"/><text fill="#000000" font-family="sans-serif" font-size="13" font-weight="bold" lengthAdjust="spacingAndGlyphs" textLength="175" x="313" y="391.6309">Build script dependencies</text><line style="stroke: #00C489; stroke-width: 2.0;" x1="351.5" x2="393.5" y1="416.6836" y2="416.6836"/><line style="stroke: #00C489; stroke-width: 2.0;" x1="393.5" x2="393.5" y1="416.6836" y2="429.6836"/><line style="stroke: #00C489; stroke-width: 2.0;" x1="352.5" x2="393.5" y1="429.6836" y2="429.6836"/><polygon fill="#00C489" points="362.5,425.6836,352.5,429.6836,362.5,433.6836,358.5,429.6836" style="stroke: #00C489; stroke-width: 1.0;"/><text fill="#000000" font-family="sans-serif" font-size="13" lengthAdjust="spacingAndGlyphs" textLength="330" x="358.5" y="411.9414">Extracts, compiles and executes `buildscript` block</text><line style="stroke: #00C489; stroke-width: 2.0;" x1="351.5" x2="393.5" y1="458.9941" y2="458.9941"/><line style="stroke: #00C489; stroke-width: 2.0;" x1="393.5" x2="393.5" y1="458.9941" y2="471.9941"/><line style="stroke: #00C489; stroke-width: 2.0;" x1="352.5" x2="393.5" y1="471.9941" y2="471.9941"/><polygon fill="#00C489" points="362.5,467.9941,352.5,471.9941,362.5,475.9941,358.5,471.9941" style="stroke: #00C489; stroke-width: 1.0;"/><text fill="#000000" font-family="sans-serif" font-size="13" lengthAdjust="spacingAndGlyphs" textLength="309" x="358.5" y="454.252">Extracts, compiles and executes `plugins` block</text><line style="stroke: #00C489; stroke-width: 2.0;" x1="351.5" x2="393.5" y1="533.3047" y2="533.3047"/><line style="stroke: #00C489; stroke-width: 2.0;" x1="393.5" x2="393.5" y1="533.3047" y2="546.3047"/><line style="stroke: #00C489; stroke-width: 2.0;" x1="352.5" x2="393.5" y1="546.3047" y2="546.3047"/><polygon fill="#00C489" points="362.5,542.3047,352.5,546.3047,362.5,550.3047,358.5,546.3047" style="stroke: #00C489; stroke-width: 1.0;"/><text fill="#000000" font-family="sans-serif" font-size="13" lengthAdjust="spacingAndGlyphs" textLength="227" x="358.5" y="528.5625">Assemble dynamic model accessors</text><line style="stroke: #00C489; stroke-width: 2.0;" x1="351.5" x2="393.5" y1="575.6152" y2="575.6152"/><line style="stroke: #00C489; stroke-width: 2.0;" x1="393.5" x2="393.5" y1="575.6152" y2="588.6152"/><line style="stroke: #00C489; stroke-width: 2.0;" x1="352.5" x2="393.5" y1="588.6152" y2="588.6152"/><polygon fill="#00C489" points="362.5,584.6152,352.5,588.6152,362.5,592.6152,358.5,588.6152" style="stroke: #00C489; stroke-width: 1.0;"/><text fill="#000000" font-family="sans-serif" font-size="13" lengthAdjust="spacingAndGlyphs" textLength="341" x="358.5" y="570.873">Compiles and executes the body of `build.gradle.kts`</text><rect fill="#EEEEEE" filter="url(#f1xb30s4jdlsyt)" height="3" style="stroke: #EEEEEE; stroke-width: 1.0;" width="707.5" x="3" y="642.2705"/><line style="stroke: #000000; stroke-width: 1.0;" x1="3" x2="710.5" y1="642.2705" y2="642.2705"/><line style="stroke: #000000; stroke-width: 1.0;" x1="3" x2="710.5" y1="645.2705" y2="645.2705"/><rect fill="#EEEEEE" filter="url(#f1xb30s4jdlsyt)" height="23.3105" style="stroke: #000000; stroke-width: 2.0;" width="129" x="292.25" y="631.6152"/><text fill="#000000" font-family="sans-serif" font-size="13" font-weight="bold" lengthAdjust="spacingAndGlyphs" textLength="111" x="298.25" y="648.1836">Execution phase</text><polygon fill="#00C489" points="40.5,709.9258,30.5,713.9258,40.5,717.9258,36.5,713.9258" style="stroke: #00C489; stroke-width: 1.0;"/><line style="stroke: #00C489; stroke-width: 2.0;" x1="34.5" x2="171.5" y1="713.9258" y2="713.9258"/><text fill="#000000" font-family="sans-serif" font-size="13" lengthAdjust="spacingAndGlyphs" textLength="119" x="46.5" y="709.4941">BUILD SUCCESSFUL</text><!--
@startuml
skinparam sequence {
    ArrowThickness 2
    ArrowColor #00C489

	ParticipantBorderColor #00C489
	ParticipantBackgroundColor White
	ParticipantFontColor #02303A

    ActorBorderColor #00C489
	ActorBackgroundColor White
	ActorFontColor #02303A
	ActorFontSize 17

	LifeLineBorderColor #02303A
}

title Running a build
hide footbox

actor User as U
participant Gradle as G
participant "Kotlin DSL" as K

U -> G: ./gradlew build

== Initialization phase ==

...

G -> G: Finds `build.gradle.kts`
== Configuration phase ==

|||
G -> K: Apply `build.gradle.kts`
group Build script dependencies
    K -> K: Extracts, compiles and executes `buildscript` block
    K -> K: Extracts, compiles and executes `plugins` block
end
|||
K -> K: Assemble dynamic model accessors
K -> K: Compiles and executes the body of `build.gradle.kts`
|||

== Execution phase ==

...

G -> U: BUILD SUCCESSFUL

@enduml

PlantUML version 1.2017.13(Wed May 10 09:52:33 PDT 2017)
(GPL source distribution)
Java Runtime: Java(TM) SE Runtime Environment
JVM: Java HotSpot(TM) 64-Bit Server VM
Java Version: 1.8.0_71-b15
Operating System: Mac OS X
OS Version: 10.12.5
Default Encoding: UTF-8
Language: fr
Country: FR
--></g></svg>