<?xml version="1.0" encoding="UTF-8" standalone="no"?>
<svg width="450px" height="150px" viewBox="0 0 450 150" version="1.1" xmlns="http://www.w3.org/2000/svg" xmlns:xlink="http://www.w3.org/1999/xlink">
    <!-- Generator: Sketch 39.1 (31720) - http://www.bohemiancoding.com/sketch -->
    <title>Insights</title>
    <desc>Created with Sketch.</desc>
    <defs>
        <rect id="path-1" x="0" y="0" width="180" height="115.704163"></rect>
        <path d="M58.7856568,24.1314935 C54.3257269,15.9104953 46.3548726,13.4535283 40.7236455,13.3371208 C33.8145497,13.1944037 28.1402984,17.1170128 29.2131839,19.6921247 C29.4436355,20.2451222 30.73906,23.130985 31.5342662,24.3221138 C32.6850404,26.0456393 34.7452575,24.7214733 35.4670258,24.3280707 C37.6221929,23.1538197 39.9252248,22.7735718 42.5373388,23.0858119 C45.0344742,23.3841526 48.3517897,24.9619826 50.5771802,29.346002 C55.8150077,39.6638239 39.647051,60.8988792 19.4091024,46.1938113 C-0.82859904,31.4884951 -20.509211,36.3612274 -29.4194274,39.3252742 C-38.3296438,42.2880801 -42.4251041,45.2685084 -38.904289,52.1606248 C-34.1196994,61.5263378 -35.7056611,58.652637 -31.0659691,66.4055233 C-23.696712,78.7193982 -7.56609247,60.7387879 -7.56609247,60.7387879 C-19.5827068,78.8988494 -29.8832977,74.5111069 -33.8341076,68.1628045 C-37.3949797,62.4409679 -40.1613874,55.844462 -40.1613874,55.844462 C-70.59657,66.8490631 -62.3623778,115.098842 -62.3623778,115.098842 L-47.2477726,115.149972 C-43.3941381,97.2624377 -29.6167453,97.9896742 -27.2551115,115.217731 L-15.7226433,115.256947 C-5.52268944,80.3280055 20.3284359,115.379064 20.3284359,115.379064 L35.3621852,115.430194 C31.1517463,91.6031484 43.8189164,84.1175774 51.8018868,70.150915 C59.7853516,56.183508 67.3479704,39.0964306 58.7856568,24.1314935 L58.7856568,24.1314935 Z" id="path-3"></path>
        <mask id="mask-4" maskContentUnits="userSpaceOnUse" maskUnits="objectBoundingBox" x="0" y="0" width="125.94548" height="102.09686" fill="white">
            <use xlink:href="#path-3"></use>
        </mask>
        <path d="M11.9701164,70.8141149 C4.54967532,68.3308383 7.20382441,60.7606298 7.20382441,60.7606298 C7.20382441,60.7606298 9.06375635,61.3771675 12.1362789,62.3997661 C11.7324941,63.0269765 11.5294891,63.7830045 11.6130648,64.5740293 C11.8118664,66.4519374 13.5350604,67.8076252 15.4624959,67.6021127 C17.1387095,67.4234061 18.4158364,66.1223231 18.5896641,64.5511946 C19.8128871,64.9594894 21.1043554,65.3908672 22.4502221,65.8411084 C21.945553,68.1893623 17.5852712,72.693264 11.9701164,70.8141149 L11.9701164,70.8141149 Z" id="path-5"></path>
        <mask id="mask-6" maskContentUnits="userSpaceOnUse" maskUnits="objectBoundingBox" x="0" y="0" width="15.707997" height="10.5006892" fill="white">
            <use xlink:href="#path-5"></use>
        </mask>
    </defs>
    <g id="Symbols" stroke="none" stroke-width="1" fill="none" fill-rule="evenodd">
        <g id="Insights">
            <rect id="Rectangle-509" fill="#868670" x="108" y="14" width="178" height="111.387204"></rect>
            <path d="M206.3476,70.8141149 C198.927159,68.3308383 201.581308,60.7606298 201.581308,60.7606298 C201.581308,60.7606298 203.44124,61.3771675 206.513762,62.3997661 C206.109978,63.0269765 205.906972,63.7830045 205.990548,64.5740293 C206.18935,66.4519374 207.912544,67.8076252 209.839979,67.6021127 C211.516193,67.4234061 212.79332,66.1223231 212.967148,64.5511946 C214.190371,64.9594894 215.481839,65.3908672 216.827706,65.8411084 C216.323036,68.1893623 211.962755,72.693264 206.3476,70.8141149 L206.3476,70.8141149 Z M253.16314,24.1314935 C248.70321,15.9104953 240.732356,13.4535283 235.101129,13.3371208 C228.192033,13.1944037 222.517782,17.1170128 223.590667,19.6921247 C223.821119,20.2451222 225.116543,23.130985 225.91175,24.3221138 C227.062524,26.0456393 229.122741,24.7214733 229.844509,24.3280707 C231.999676,23.1538197 234.302708,22.7735718 236.914822,23.0858119 C239.411958,23.3841526 242.729273,24.9619826 244.954664,29.346002 C250.192491,39.6638239 234.024534,60.8988792 213.786586,46.1938113 C193.548884,31.4884951 173.868272,36.3612274 164.958056,39.3252742 C156.04784,42.2880801 151.952379,45.2685084 155.473194,52.1606248 C160.257784,61.5263378 158.671822,58.652637 163.311514,66.4055233 C170.680771,78.7193982 186.811391,60.7387879 186.811391,60.7387879 C174.794777,78.8988494 164.494186,74.5111069 160.543376,68.1628045 C156.982504,62.4409679 154.216096,55.844462 154.216096,55.844462 C123.780913,66.8490631 132.015106,115.098842 132.015106,115.098842 L147.129711,115.149972 C150.983345,97.2624377 164.760738,97.9896742 167.122372,115.217731 L178.65484,115.256947 C188.854794,80.3280055 214.705919,115.379064 214.705919,115.379064 L229.739669,115.430194 C225.52923,91.6031484 238.1964,84.1175774 246.17937,70.150915 C254.162835,56.183508 261.725454,39.0964306 253.16314,24.1314935 L253.16314,24.1314935 Z" id="Fill-3" fill="#FFFFFF"></path>
            <g id="Group-19" transform="translate(35.000000, 0.000000)">
                <rect id="Rectangle-507" fill="#02303A" x="0" y="115.458669" width="382" height="33.9311169" rx="16.9655584"></rect>
                <g id="Group-7" transform="translate(2.064865, 115.046956)">
                    <rect id="Rectangle-508" fill="#00C489" x="9.29189189" y="4.44931243" width="361.007207" height="25.362653" rx="12.6813265"></rect>
                    <path d="M151.345804,7.36594998 C153.587716,7.36594998 155.404385,9.17288033 155.404385,11.3996654 C155.404385,13.6295605 153.587716,15.4364909 151.345804,15.4364909 C149.107019,15.4364909 147.290351,13.6295605 147.290351,11.3996654 C147.290351,9.17288033 149.107019,7.36594998 151.345804,7.36594998 L151.345804,7.36594998 Z M141.443243,11.3996654 L141.477638,12.1709541 L145.783235,13.6948713 L143.819608,17.7970075 C144.157302,18.1888719 144.523137,18.552746 144.913986,18.8855197 L149.041356,16.9355278 L150.573486,21.218046 L151.345804,21.2491464 L152.121249,21.218046 L153.650252,16.9355278 L157.777622,18.8855197 C158.171598,18.552746 158.537434,18.1888719 158.872001,17.7970075 L156.9115,13.6948713 L161.217097,12.1709541 L161.248365,11.3996654 L161.217097,10.6314868 L156.9115,9.1075696 L158.872001,5.00232336 C158.537434,4.61356898 158.171598,4.24969488 157.777622,3.91381109 L153.650252,5.86691309 L152.121249,1.58439486 L151.345804,1.55018447 L150.573486,1.58439486 L149.041356,5.86691309 L144.913986,3.91381109 C144.523137,4.24969488 144.157302,4.61356898 143.819608,5.00232336 L145.783235,9.1075696 L141.477638,10.6314868 L141.443243,11.3996654 L141.443243,11.3996654 Z" id="Fill-2304" fill="#2F5F63"></path>
                    <path d="M151.349147,9.90519838 C152.187128,9.90519838 152.862516,10.580076 152.862516,11.4104553 C152.862516,12.2439447 152.187128,12.9188223 151.349147,12.9188223 C150.514293,12.9188223 149.835778,12.2439447 149.835778,11.4104553 C149.835778,10.580076 150.514293,9.90519838 151.349147,9.90519838 L151.349147,9.90519838 Z M151.349147,15.4472808 C153.59106,15.4472808 155.407728,13.6403504 155.407728,11.4104553 C155.407728,9.18367025 153.59106,7.3767399 151.349147,7.3767399 C149.110362,7.3767399 147.293694,9.18367025 147.293694,11.4104553 C147.293694,13.6403504 149.110362,15.4472808 151.349147,15.4472808 L151.349147,15.4472808 Z" id="Fill-2305" fill="#00FF00"></path>
                    <g id="Group-2" transform="translate(348.273874, 2.235662)">
                        <path d="M14.5877612,11.0431325 C16.5125055,11.0431325 18.0750206,12.5951403 18.0750206,14.5116993 C18.0750206,16.4261266 16.5125055,17.9802662 14.5877612,17.9802662 C12.6608735,17.9802662 11.1005018,16.4261266 11.1005018,14.5116993 C11.1005018,12.5951403 12.6608735,11.0431325 14.5877612,11.0431325 L14.5877612,11.0431325 Z M0,13.5864639 L0,15.4348029 L2.69206995,15.4348029 C2.72422046,15.8569149 2.77994803,16.2726313 2.8549659,16.6798201 L0.255060767,17.3726808 L0.73731852,19.1591952 L3.33508028,18.4663346 C3.47654256,18.8628641 3.63515177,19.250866 3.81733804,19.6282086 L1.48749725,20.9648966 L2.41771887,22.5659376 L4.74970303,21.2292496 C4.98761685,21.574614 5.24482099,21.9050552 5.51917206,22.2227052 L3.6137181,24.1158136 L4.92974592,25.4247872 L6.83305652,23.5295469 C7.15241832,23.8024274 7.4867837,24.0582528 7.83400928,24.2970233 L6.48797431,26.6143756 L8.09764352,27.539611 L9.44153512,25.2243906 C9.82091122,25.4034684 10.2110042,25.5633593 10.6096706,25.7019314 L9.91307604,28.2857686 L11.7092182,28.7654413 L12.4058128,26.1794723 C12.8173394,26.2540881 13.2331527,26.3095169 13.6575396,26.3414951 L13.6575396,29.0212668 L15.5179828,29.0212668 L15.5179828,26.3414951 C15.9402263,26.3095169 16.358183,26.2540881 16.7675662,26.1794723 L17.4641608,28.7654413 L19.260303,28.2857686 L18.5658518,25.7019314 C18.9645182,25.5633593 19.3524678,25.4034684 19.7318439,25.2243906 L21.0757355,27.539611 L22.6854047,26.6143756 L21.3415131,24.2970233 C21.6887387,24.0582528 22.0209607,23.8024274 22.3403225,23.5295469 L24.2457765,25.4247872 L25.5596609,24.1158136 L23.6563503,22.2227052 C23.928558,21.9050552 24.1857622,21.574614 24.4258194,21.2292496 L26.7556601,22.5659376 L27.6858818,20.9648966 L25.3581843,19.6282086 C25.5382272,19.250866 25.6989798,18.8628641 25.8404421,18.4663346 L28.4382039,19.1591952 L28.9183182,17.3726808 L26.3184131,16.6798201 C26.393431,16.2726313 26.4491586,15.8569149 26.4813091,15.4348029 L29.1755224,15.4348029 L29.1755224,13.5864639 L26.4813091,13.5864639 C26.4491586,13.1643519 26.393431,12.7486355 26.3184131,12.3414467 L28.9183182,11.648586 L28.4382039,9.86207157 L25.8382987,10.5549322 C25.6989798,10.1584027 25.5382272,9.77040078 25.3581843,9.39305822 L27.6858818,8.05637018 L26.7556601,6.45532916 L24.4258194,7.79414908 C24.1857622,7.44878471 23.928558,7.11621161 23.6563503,6.79856166 L25.5596609,4.90545324 L24.2457765,3.59647962 L22.3403225,5.49171992 C22.0209607,5.21883943 21.6887387,4.96301397 21.3415131,4.72637541 L22.6854047,2.40689122 L21.0757355,1.4816558 L19.7318439,3.79900811 C19.3524678,3.61779841 18.9645182,3.46003938 18.5658518,3.31933537 L19.260303,0.735498204 L17.4641608,0.255825462 L16.7675662,2.84179451 C16.358183,2.76717875 15.9402263,2.7117499 15.5179828,2.67977172 L15.5179828,0 L13.6575396,0 L13.6575396,2.67977172 C13.2331527,2.7117499 12.8173394,2.76717875 12.4058128,2.84179451 L11.7092182,0.255825462 L9.91307604,0.735498204 L10.6096706,3.31933537 C10.2110042,3.46003938 9.82091122,3.61779841 9.44153512,3.79900811 L8.09764352,1.4816558 L6.48797431,2.40689122 L7.83400928,4.72637541 C7.4867837,4.96301397 7.15241832,5.21883943 6.83305652,5.49171992 L4.92974592,3.59647962 L3.6137181,4.90545324 L5.51917206,6.79856166 C5.24482099,7.11621161 4.98761685,7.44878471 4.74970303,7.79414908 L2.41771887,6.45532916 L1.48749725,8.05637018 L3.81733804,9.39305822 C3.63515177,9.77040078 3.47654256,10.1584027 3.33508028,10.5549322 L0.73731852,9.86207157 L0.255060767,11.648586 L2.8549659,12.3414467 C2.77994803,12.7486355 2.72422046,13.1643519 2.69206995,13.5864639 L0,13.5864639 L0,13.5864639 Z" id="Fill-2306" fill="#2F5F63"></path>
                        <path d="M14.7096604,10.8256552 C16.6344047,10.8256552 18.1969198,12.377663 18.1969198,14.2942221 C18.1969198,16.2086493 16.6344047,17.762789 14.7096604,17.762789 C12.7827727,17.762789 11.222401,16.2086493 11.222401,14.2942221 C11.222401,12.377663 12.7827727,10.8256552 14.7096604,10.8256552 L14.7096604,10.8256552 Z M14.7096604,24.1307111 C20.1709615,24.1307111 24.5991594,19.7262494 24.5991594,14.2942221 C24.5991594,8.86006292 20.1709615,4.45560121 14.7096604,4.45560121 C9.24621588,4.45560121 4.81801802,8.86006292 4.81801802,14.2942221 C4.81801802,19.7262494 9.24621588,24.1307111 14.7096604,24.1307111 L14.7096604,24.1307111 Z" id="Fill-2307" fill="#00FFDD"></path>
                        <path d="M14.9253333,11.0445631 C16.8500776,11.0445631 18.4125927,12.5965709 18.4125927,14.51313 C18.4125927,16.4275572 16.8500776,17.9816969 14.9253333,17.9816969 C12.9984456,17.9816969 11.4380739,16.4275572 11.4380739,14.51313 C11.4380739,12.5965709 12.9984456,11.0445631 14.9253333,11.0445631 L14.9253333,11.0445631 Z M14.9253333,21.1411413 C18.6054958,21.1411413 21.5890638,18.173566 21.5890638,14.51313 C21.5890638,10.8505621 18.6054958,7.88298675 14.9253333,7.88298675 C11.2430274,7.88298675 8.25945946,10.8505621 8.25945946,14.51313 C8.25945946,18.173566 11.2430274,21.1411413 14.9253333,21.1411413 L14.9253333,21.1411413 Z" id="Fill-2308" fill="#2F5F63"></path>
                    </g>
                    <path d="M216.295244,7.44179675 C217.874275,7.44179675 219.153135,8.71380108 219.153135,10.2812587 C219.153135,11.8518264 217.874275,13.1238308 216.295244,13.1238308 C214.719339,13.1238308 213.440479,11.8518264 213.440479,10.2812587 C213.440479,8.71380108 214.719339,7.44179675 216.295244,7.44179675 L216.295244,7.44179675 Z M206.486486,11.2204893 L210.848366,11.7336451 L207.327594,14.3491846 L208.271887,15.9726228 L212.308579,14.2496634 L210.573208,18.2647187 L212.208522,19.2008392 L214.838157,15.7020498 L215.354078,20.0405487 L217.239536,20.0405487 L217.755457,15.7020498 L220.385092,19.2008392 L222.020406,18.2647187 L220.285034,14.2496634 L224.321727,15.9726228 L225.266019,14.3491846 L221.745248,11.7336451 L226.107127,11.2204893 L226.107127,9.34513819 L221.745248,8.82887238 L225.266019,6.21644295 L224.321727,4.58989463 L220.285034,6.31596407 L222.020406,2.30090885 L220.385092,1.36167827 L217.755457,4.86357771 L217.239536,0.521968808 L215.354078,0.521968808 L214.838157,4.86357771 L212.208522,1.36167827 L210.573208,2.30090885 L212.308579,6.31596407 L208.271887,4.58989463 L207.327594,6.21644295 L210.848366,8.82887238 L206.486486,9.34513819 L206.486486,11.2204893 L206.486486,11.2204893 Z" id="Fill-2309" fill="#00FFDD"></path>
                    <path d="M0,15.5478391 L0,18.3039433 L2.29141015,18.3039433 C2.3716963,19.0226455 2.51707933,19.7240816 2.71453987,20.4017767 L0.594551498,21.275874 L1.65563063,23.81831 L3.76910931,22.9485293 C4.11846257,23.5765843 4.52206322,24.1679489 4.96906179,24.7247812 L3.34814949,26.3391633 L5.30539567,28.2859182 L6.92847786,26.6715361 C7.48614113,27.1182969 8.08286252,27.5197342 8.71430225,27.8672148 L7.83766427,29.9693648 L10.3959716,31.0247563 L11.2747795,28.9161315 C11.9561268,29.1125336 12.6591731,29.2571374 13.3839184,29.3348349 L13.3839184,31.6161209 L16.1527057,31.6161209 L16.1527057,29.3369932 C16.8774509,29.2571374 17.5804972,29.1125336 18.2640144,28.9161315 L19.1406524,31.0247563 L21.6989598,29.9693648 L20.8244917,27.8672148 C21.4559314,27.5197342 22.0504829,27.1182969 22.6103161,26.6715361 L24.2333983,28.2859182 L26.1906445,26.3391633 L24.5675623,24.7247812 C25.0167307,24.1679489 25.4203314,23.5765843 25.7696846,22.9485293 L27.8831633,23.81831 L28.9442425,21.275874 L26.8242541,20.4017767 C27.0217146,19.7240816 27.1670976,19.0226455 27.2452139,18.3039433 L29.5366241,18.3039433 L29.5366241,15.5478391 L27.2452139,15.5478391 C27.1670976,14.8291369 27.0217146,14.1277009 26.8242541,13.4500057 L28.9442425,12.5759084 L27.8831633,10.0313142 L25.7696846,10.9032532 C25.4203314,10.2751981 25.0167307,9.68383355 24.5675623,9.12700122 L26.1906445,7.51261912 L24.2333983,5.56586423 L22.6103161,7.18024633 C22.0504829,6.73348551 21.4559314,6.33204825 20.8244917,5.98456761 L21.6989598,3.88241765 L19.1406524,2.82702615 L18.2640144,4.9356509 C17.5804972,4.7392488 16.8774509,4.59464505 16.1527057,4.51478925 L16.1527057,2.23566158 L13.3839184,2.23566158 L13.3839184,4.51478925 C12.6591731,4.59464505 11.9561268,4.7392488 11.2747795,4.9356509 L10.3959716,2.82702615 L7.83766427,3.88241765 L8.71430225,5.98456761 C8.08286252,6.33204825 7.48614113,6.73348551 6.92847786,7.18024633 L5.30539567,5.56586423 L3.34814949,7.51261912 L4.96906179,9.12700122 C4.52206322,9.68383355 4.11846257,10.2751981 3.76910931,10.9032532 L1.65563063,10.0313142 L0.594551498,12.5759084 L2.71453987,13.4500057 C2.51707933,14.1277009 2.3716963,14.8291369 2.29141015,15.5478391 L0,15.5478391" id="Fill-2310" fill="#405860"></path>
                    <path d="M4.29885052,16.9025247 C4.29885052,22.6391926 8.97280646,27.2902534 14.74039,27.2902534 C20.5079735,27.2902534 25.1840993,22.6391926 25.1840993,16.9025247 C25.1840993,11.168015 20.5079735,6.51695429 14.74039,6.51695429 C8.97280646,6.51695429 4.29885052,11.168015 4.29885052,16.9025247" id="Fill-2311" fill="#00FFDD"></path>
                    <path d="M14.7568075,13.7726883 C16.5100834,13.7726883 17.9291954,15.1863518 17.9291954,16.9280715 C17.9291954,18.6719495 16.5100834,20.085613 14.7568075,20.085613 C13.0035315,20.085613 11.5844196,18.6719495 11.5844196,16.9280715 C11.5844196,15.1863518 13.0035315,13.7726883 14.7568075,13.7726883 L14.7568075,13.7726883 Z M6.44827578,16.010809 L6.44827578,17.8474923 L8.04748912,17.8474923 C8.08437735,18.1172754 8.13862475,18.3805837 8.20589153,18.6374173 L6.72819237,19.2460479 L7.43557845,20.9424441 L8.91327762,20.3338134 C9.04998106,20.566906 9.20187378,20.7892073 9.36461598,21.0028755 L8.23193028,22.1294898 L9.53820766,23.4266069 L10.6708934,22.2999927 C10.8857131,22.4618626 11.1092123,22.6129411 11.3435611,22.7489118 L10.7316504,24.2208484 L12.4371887,24.9222845 L13.0512692,23.4481896 C13.3094869,23.5150958 13.5742142,23.5668942 13.8432813,23.6035847 L13.8432813,25.2007006 L15.6898628,25.2007006 L15.6898628,23.5992681 C15.9589299,23.5625776 16.2214873,23.5107793 16.4797049,23.4438731 L17.0959554,24.9222845 L18.8014936,24.2208484 L18.1852431,22.7381205 C18.417422,22.6021498 18.6387514,22.4532295 18.8535711,22.2913596 L19.9949364,23.4266069 L21.2990439,22.1294898 L20.1576786,20.9920842 C20.3182509,20.7805743 20.4679737,20.558273 20.6046771,20.3273386 L22.0975656,20.9424441 L22.8027818,19.2460479 L21.3098933,18.6309425 C21.3771601,18.374109 21.4292376,18.1129589 21.4661259,17.8474923 L23.0826984,17.8474923 L23.0826984,16.010809 L21.4661259,16.010809 C21.4292376,15.7453424 21.3771601,15.4841923 21.3098933,15.2273588 L22.8027818,14.6122533 L22.0975656,12.9158572 L20.6046771,13.5309626 C20.4679737,13.3000283 20.3182509,13.077727 20.1576786,12.8662171 L21.2990439,11.7288115 L19.9949364,10.4295361 L18.8535711,11.5669416 C18.6387514,11.4050718 18.417422,11.2561515 18.1852431,11.1201808 L18.8014936,9.63745288 L17.0959554,8.9360168 L16.4797049,10.4144282 C16.2214873,10.347522 15.9589299,10.2957237 15.6898628,10.2568749 L15.6898628,8.65760064 L13.8432813,8.65760064 L13.8432813,10.2547166 C13.5742142,10.2914071 13.3094869,10.3432055 13.0512692,10.4101117 L12.4371887,8.9360168 L10.7316504,9.63745288 L11.3435611,11.1093895 C11.1113822,11.2453602 10.8857131,11.3964387 10.6708934,11.5583086 L9.53820766,10.4295361 L8.23193028,11.7288115 L9.36461598,12.8554258 C9.20187378,13.069094 9.04998106,13.2913953 8.91327762,13.5244879 L7.43557845,12.9158572 L6.72819237,14.6122533 L8.20589153,15.220884 C8.13862475,15.4777175 8.08437735,15.7410258 8.04748912,16.010809 L6.44827578,16.010809 L6.44827578,16.010809 Z" id="Fill-2312" fill="#6C9894"></path>
                    <path d="M129.000289,23.1934895 L128.768906,23.420522 L129.228545,23.420522 L129.000289,23.1934895 L129.000289,23.1934895 Z M129.000289,29.8676247 C125.426362,29.8676247 122.515315,26.9784021 122.515315,23.420522 C122.515315,19.865752 125.426362,16.9734194 129.000289,16.9734194 C132.574216,16.9734194 135.482136,19.865752 135.482136,23.420522 C135.482136,26.9784021 132.574216,29.8676247 129.000289,29.8676247 L129.000289,29.8676247 Z" id="Fill-2314" fill="#62DD93"></path>
                    <path d="M165.132297,23.1934895 L164.904041,23.420522 L165.360553,23.420522 L165.132297,23.1934895 L165.132297,23.1934895 Z M165.132297,29.8676247 C161.55837,29.8676247 158.65045,26.9784021 158.65045,23.420522 C158.65045,19.865752 161.55837,16.9734194 165.132297,16.9734194 C168.706224,16.9734194 171.614144,19.865752 171.614144,23.420522 C171.614144,26.9784021 168.706224,29.8676247 165.132297,29.8676247 L165.132297,29.8676247 Z" id="Fill-2315" fill="#62DD93"></path>
                    <path d="M201.611577,23.1934895 L201.38332,23.420522 L201.842959,23.420522 L201.611577,23.1934895 L201.611577,23.1934895 Z M201.611577,29.8676247 C198.037649,29.8676247 195.12973,26.9784021 195.12973,23.420522 C195.12973,19.865752 198.037649,16.9734194 201.611577,16.9734194 C205.185504,16.9734194 208.09655,19.865752 208.09655,23.420522 C208.09655,26.9784021 205.185504,29.8676247 201.611577,29.8676247 L201.611577,29.8676247 Z" id="Fill-2316" fill="#62DD93"></path>
                    <path d="M237.746712,23.1934895 L237.518456,23.420522 L237.974968,23.420522 L237.746712,23.1934895 L237.746712,23.1934895 Z M237.746712,29.8676247 C234.172785,29.8676247 231.264865,26.9784021 231.264865,23.420522 C231.264865,19.865752 234.172785,16.9734194 237.746712,16.9734194 C241.320639,16.9734194 244.228558,19.865752 244.228558,23.420522 C244.228558,26.9784021 241.320639,29.8676247 237.746712,29.8676247 L237.746712,29.8676247 Z" id="Fill-2317" fill="#62DD93"></path>
                </g>
                <g id="Group" transform="translate(159.377483, 0.000000)">
                    <g id="Fill-3">
                        <mask id="mask-2" fill="white">
                            <use xlink:href="#path-1"></use>
                        </mask>
                        <use id="Mask" fill="#02303A" xlink:href="#path-1"></use>
                        <g mask="url(#mask-2)" stroke-width="6" stroke="#FFFFFF">
                            <use mask="url(#mask-4)" xlink:href="#path-3"></use>
                        </g>
                        <g id="Path" mask="url(#mask-2)" stroke-width="4" stroke="#FFFFFF" fill="#FFFFFF">
                            <use mask="url(#mask-6)" xlink:href="#path-5"></use>
                        </g>
                    </g>
                </g>
            </g>
            <g id="Group-5-Copy" transform="translate(276.000000, 10.000000)" fill="#FFFFFF">
                <path d="M0.155243321,10.7082222 C1.00686808,9.86910692 1.76385651,9.11158363 2.42623133,8.43562963 C3.08860614,7.75967563 3.64451952,7.13326214 4.09398815,6.55637037 C4.54345677,5.9794786 4.88646715,5.44921229 5.12302959,4.96555556 C5.35959202,4.48189882 5.47787146,4.01281709 5.47787146,3.5582963 C5.47787146,2.91730544 5.3004523,2.39286624 4.94560865,1.98496296 C4.590765,1.57705969 4.05259353,1.37311111 3.33107811,1.37311111 C2.85795324,1.37311111 2.42031931,1.50422091 2.01816317,1.76644444 C1.61600703,2.02866798 1.24934076,2.34624505 0.918153354,2.71918519 L0.0842749456,1.89755556 C0.557399813,1.38476287 1.06008744,0.973952161 1.59235292,0.665111111 C2.12461839,0.356270061 2.76332738,0.201851852 3.50849905,0.201851852 C4.56120188,0.201851852 5.38915798,0.501947616 5.99239218,1.10214815 C6.59562639,1.70234868 6.89723897,2.49774813 6.89723897,3.48837037 C6.89723897,4.01281744 6.78191651,4.54017019 6.55126814,5.07044444 C6.32061976,5.6007187 6.00126527,6.14846631 5.59319507,6.7137037 C5.18512487,7.2789411 4.70017916,7.86747842 4.13834338,8.47933333 C3.5765076,9.09118824 2.95849751,9.74091014 2.28429458,10.4285185 C2.59182574,10.4052098 2.91118024,10.3819014 3.24236764,10.3585926 C3.57355505,10.3352838 3.88699557,10.3236296 4.18269861,10.3236296 L7.46498597,10.3236296 L7.46498597,11.5648148 L0.155243321,11.5648148 L0.155243321,10.7082222 Z M9.6650056,10.3760741 L12.2553513,10.3760741 L12.2553513,2.15977778 L10.1972684,2.15977778 L10.1972684,1.23325926 C10.7177058,1.14002423 11.1701246,1.02639573 11.5545386,0.89237037 C11.9389525,0.758345009 12.2849199,0.598099698 12.5924511,0.41162963 L13.710203,0.41162963 L13.710203,10.3760741 L16.0521594,10.3760741 L16.0521594,11.5648148 L9.6650056,11.5648148 L9.6650056,10.3760741 Z M22.4747973,7.3342963 L22.4747973,4.10022222 C22.4747973,3.79720836 22.4836683,3.43884157 22.5014105,3.02511111 C22.5191526,2.61138065 22.5398516,2.25301386 22.5635078,1.95 L22.4925394,1.95 C22.350602,2.21805072 22.2027527,2.48027032 22.0489871,2.73666667 C21.8952215,2.99306301 21.7355442,3.25528261 21.5699505,3.52333333 L18.9263786,7.3342963 L22.4747973,7.3342963 Z M25.4022428,8.48807407 L23.8586806,8.48807407 L23.8586806,11.5648148 L22.4747973,11.5648148 L22.4747973,8.48807407 L17.3828164,8.48807407 L17.3828164,7.54407407 L22.226408,0.41162963 L23.8586806,0.41162963 L23.8586806,7.3342963 L25.4022428,7.3342963 L25.4022428,8.48807407 Z M29.039372,11.5648148 C29.0866845,10.5159207 29.1813081,9.55444881 29.3232455,8.68037037 C29.465183,7.80629193 29.6633011,6.97592986 29.9176057,6.18925926 C30.1719103,5.40258866 30.4971788,4.64215182 30.8934208,3.90792593 C31.2896629,3.17370003 31.7657377,2.42200385 32.3216594,1.65281481 L26.6796736,1.65281481 L26.6796736,0.41162963 L33.9716741,0.41162963 L33.9716741,1.30318519 C33.2974712,2.14230049 32.7504288,2.9464406 32.3305304,3.71562963 C31.9106321,4.48481866 31.5764927,5.26856391 31.3281021,6.06688889 C31.0797116,6.86521387 30.8993354,7.71014369 30.7869683,8.6017037 C30.6746011,9.49326372 30.5947625,10.4809575 30.54745,11.5648148 L29.039372,11.5648148 Z M40.4907847,7.44464815 L39.7722299,7.44464815 L39.7722299,6.83498148 L40.5307044,6.78581481 L40.6305037,5.44848148 L41.3191187,5.44848148 L41.3191187,6.78581481 L42.6264892,6.78581481 L42.6264892,7.44464815 L41.3191187,7.44464815 L41.3191187,10.0996481 C41.3191187,10.3946496 41.3740078,10.6224529 41.4837875,10.7830648 C41.5935673,10.9436767 41.7881739,11.0239815 42.0676133,11.0239815 C42.1541064,11.0239815 42.2472515,11.0108705 42.3470513,10.9846481 C42.446851,10.9584258 42.5366695,10.9289261 42.6165093,10.8961481 L42.7761882,11.5058148 C42.6431218,11.5517039 42.4984143,11.5926757 42.3420613,11.6287315 C42.1857083,11.6647872 42.031021,11.6828148 41.8779947,11.6828148 C41.6185152,11.6828148 41.4006223,11.6434819 41.2243094,11.5648148 C41.0479965,11.4861478 40.9049523,11.3779822 40.7951725,11.2403148 C40.6853927,11.1026475 40.6072174,10.9354825 40.5606442,10.7388148 C40.514071,10.5421472 40.4907847,10.325816 40.4907847,10.0898148 L40.4907847,7.44464815 Z M43.484763,10.3258148 C43.484763,9.80136775 43.7226156,9.39984399 44.1983279,9.12123148 C44.6740401,8.84261898 45.4308438,8.64759315 46.4687614,8.53614815 C46.4687614,8.38536962 46.4537917,8.23787109 46.4238518,8.09364815 C46.3939118,7.9494252 46.3406861,7.82159315 46.2641729,7.71014815 C46.1876598,7.59870315 46.0861982,7.50856516 45.9597851,7.43973148 C45.8333721,7.3708978 45.6703682,7.33648148 45.4707687,7.33648148 C45.184676,7.33648148 44.9202105,7.3889254 44.6773644,7.49381481 C44.4345183,7.59870423 44.2166254,7.71670305 44.0236791,7.84781481 L43.6943415,7.28731481 C43.9205543,7.14309187 44.1966629,7.00378771 44.5226755,6.86939815 C44.8486881,6.73500859 45.2079619,6.66781481 45.6005077,6.66781481 C46.1926531,6.66781481 46.6217857,6.84645192 46.8879184,7.20373148 C47.1540511,7.56101105 47.2871155,8.03792294 47.2871155,8.63448148 L47.2871155,11.5648148 L46.6084804,11.5648148 L46.5386209,10.9944815 L46.5186611,10.9944815 C46.2857949,11.1845935 46.0346359,11.3468419 45.7651765,11.4812315 C45.4957171,11.615621 45.211292,11.6828148 44.9118927,11.6828148 C44.499387,11.6828148 44.1584095,11.564816 43.8889501,11.3288148 C43.6194907,11.0928136 43.484763,10.7584836 43.484763,10.3258148 L43.484763,10.3258148 Z M44.2931372,10.2668148 C44.2931372,10.5421495 44.3746391,10.7388142 44.5376454,10.8568148 C44.7006517,10.9748154 44.9019116,11.0338148 45.141431,11.0338148 C45.3742972,11.0338148 45.5955167,10.979732 45.8050962,10.8715648 C46.0146758,10.7633976 46.2358953,10.604427 46.4687614,10.3946481 L46.4687614,9.06714815 C46.062909,9.11959285 45.7202682,9.18187001 45.4408289,9.25398148 C45.1613895,9.32609295 44.9368434,9.41131432 44.7671837,9.50964815 C44.5975241,9.60798197 44.4761029,9.72106418 44.4029164,9.84889815 C44.3297299,9.97673212 44.2931372,10.1160363 44.2931372,10.2668148 L44.2931372,10.2668148 Z M48.7042653,10.4831481 C48.9171714,10.6535934 49.1350644,10.7912587 49.3579505,10.8961481 C49.5808367,11.0010376 49.8386489,11.0534815 50.1313949,11.0534815 C50.4507542,11.0534815 50.6902701,10.9813711 50.8499497,10.8371481 C51.0096294,10.6929252 51.089468,10.515927 51.089468,10.3061481 C51.089468,10.181592 51.0562019,10.0734264 50.9896687,9.98164815 C50.9231355,9.88986991 50.838307,9.80956516 50.7351806,9.74073148 C50.6320541,9.6718978 50.5139595,9.61125952 50.3808931,9.55881481 C50.2478267,9.50637011 50.1147624,9.45392619 49.981696,9.40148148 C49.8087097,9.34248119 49.635726,9.27528741 49.4627398,9.19989815 C49.2897535,9.12450888 49.1350661,9.03273202 48.9986731,8.92456481 C48.8622801,8.81639761 48.7508387,8.69020442 48.6643455,8.54598148 C48.5778524,8.40175854 48.5346065,8.22803805 48.5346065,8.02481481 C48.5346065,7.83470275 48.5728625,7.65606565 48.6493756,7.48889815 C48.7258888,7.32173065 48.8356669,7.17750987 48.9787133,7.05623148 C49.1217596,6.9349531 49.2964066,6.83989849 49.5026595,6.77106481 C49.7089123,6.70223114 49.941775,6.66781481 50.2012544,6.66781481 C50.5073071,6.66781481 50.7884056,6.72025873 51.0445583,6.82514815 C51.3007111,6.93003756 51.5219306,7.05786962 51.7082235,7.20864815 L51.3190063,7.71998148 C51.1526734,7.5954253 50.9796897,7.49381521 50.8000501,7.41514815 C50.6204105,7.33648109 50.4241405,7.29714815 50.2112343,7.29714815 C49.9051817,7.29714815 49.6806356,7.36598079 49.5375892,7.50364815 C49.3945429,7.6413155 49.3230208,7.80192501 49.3230208,7.98548148 C49.3230208,8.09692648 49.3529603,8.19361996 49.4128401,8.27556481 C49.47272,8.35750967 49.5525586,8.42962006 49.6523584,8.49189815 C49.7521582,8.55417624 49.8669262,8.6098979 49.9966659,8.65906481 C50.1264056,8.70823173 50.2611333,8.75903677 50.400853,8.81148148 C50.5738393,8.87703736 50.7484862,8.94587001 50.9247992,9.01798148 C51.1011121,9.09009295 51.2591261,9.18023094 51.3988457,9.28839815 C51.5385654,9.39656536 51.6533335,9.52931403 51.7431533,9.68664815 C51.8329731,9.84398227 51.8778823,10.0340915 51.8778823,10.2569815 C51.8778823,10.4536491 51.8396263,10.6372029 51.7631131,10.8076481 C51.6866,10.9780934 51.5734952,11.1288697 51.4237956,11.2599815 C51.2740959,11.3910932 51.0878058,11.4943422 50.8649196,11.5697315 C50.6420334,11.6451207 50.3875478,11.6828148 50.1014551,11.6828148 C49.7554826,11.6828148 49.4261483,11.6205377 49.1134423,11.4959815 C48.8007363,11.3714253 48.5279544,11.2140935 48.2950882,11.0239815 L48.7042653,10.4831481 Z M53.015594,4.56348148 L53.8239682,4.56348148 L53.8239682,9.30314815 L53.853908,9.30314815 L55.919753,6.78581481 L56.8279265,6.78581481 L55.2011982,8.70331481 L57.0474849,11.5648148 L56.1492914,11.5648148 L54.7321416,9.26381481 L53.8239682,10.3061481 L53.8239682,11.5648148 L53.015594,11.5648148 L53.015594,4.56348148 Z M57.8259192,10.4831481 C58.0388254,10.6535934 58.2567183,10.7912587 58.4796045,10.8961481 C58.7024907,11.0010376 58.9603029,11.0534815 59.2530489,11.0534815 C59.5724082,11.0534815 59.8119241,10.9813711 59.9716037,10.8371481 C60.1312833,10.6929252 60.211122,10.515927 60.211122,10.3061481 C60.211122,10.181592 60.1778559,10.0734264 60.1113227,9.98164815 C60.0447895,9.88986991 59.959961,9.80956516 59.8568345,9.74073148 C59.7537081,9.6718978 59.6356135,9.61125952 59.5025471,9.55881481 C59.3694807,9.50637011 59.2364164,9.45392619 59.10335,9.40148148 C58.9303637,9.34248119 58.75738,9.27528741 58.5843937,9.19989815 C58.4114075,9.12450888 58.2567201,9.03273202 58.1203271,8.92456481 C57.9839341,8.81639761 57.8724927,8.69020442 57.7859995,8.54598148 C57.6995064,8.40175854 57.6562605,8.22803805 57.6562605,8.02481481 C57.6562605,7.83470275 57.6945165,7.65606565 57.7710296,7.48889815 C57.8475428,7.32173065 57.9573209,7.17750987 58.1003672,7.05623148 C58.2434136,6.9349531 58.4180606,6.83989849 58.6243135,6.77106481 C58.8305663,6.70223114 59.063429,6.66781481 59.3229084,6.66781481 C59.628961,6.66781481 59.9100595,6.72025873 60.1662123,6.82514815 C60.4223651,6.93003756 60.6435846,7.05786962 60.8298775,7.20864815 L60.4406603,7.71998148 C60.2743273,7.5954253 60.1013437,7.49381521 59.9217041,7.41514815 C59.7420645,7.33648109 59.5457945,7.29714815 59.3328883,7.29714815 C59.0268357,7.29714815 58.8022895,7.36598079 58.6592432,7.50364815 C58.5161969,7.6413155 58.4446748,7.80192501 58.4446748,7.98548148 C58.4446748,8.09692648 58.4746142,8.19361996 58.5344941,8.27556481 C58.594374,8.35750967 58.6742126,8.42962006 58.7740124,8.49189815 C58.8738121,8.55417624 58.9885802,8.6098979 59.1183199,8.65906481 C59.2480596,8.70823173 59.3827873,8.75903677 59.5225069,8.81148148 C59.6954932,8.87703736 59.8701402,8.94587001 60.0464532,9.01798148 C60.2227661,9.09009295 60.38078,9.18023094 60.5204997,9.28839815 C60.6602194,9.39656536 60.7749874,9.52931403 60.8648072,9.68664815 C60.954627,9.84398227 60.9995363,10.0340915 60.9995363,10.2569815 C60.9995363,10.4536491 60.9612803,10.6372029 60.8847671,10.8076481 C60.8082539,10.9780934 60.6951492,11.1288697 60.5454495,11.2599815 C60.3957499,11.3910932 60.2094598,11.4943422 59.9865736,11.5697315 C59.7636874,11.6451207 59.5092018,11.6828148 59.2231091,11.6828148 C58.8771366,11.6828148 58.5478022,11.6205377 58.2350963,11.4959815 C57.9223903,11.3714253 57.6496083,11.2140935 57.4167422,11.0239815 L57.8259192,10.4831481 Z" id="2147-tasks"></path>
                <path d="M0.155243321,32.5600741 C1.00686808,31.7209588 1.76385651,30.9634355 2.42623133,30.2874815 C3.08860614,29.6115275 3.64451952,28.985114 4.09398815,28.4082222 C4.54345677,27.8313304 4.88646715,27.3010641 5.12302959,26.8174074 C5.35959202,26.3337507 5.47787146,25.8646689 5.47787146,25.4101481 C5.47787146,24.7691573 5.3004523,24.2447181 4.94560865,23.8368148 C4.590765,23.4289115 4.05259353,23.224963 3.33107811,23.224963 C2.85795324,23.224963 2.42031931,23.3560728 2.01816317,23.6182963 C1.61600703,23.8805198 1.24934076,24.1980969 0.918153354,24.571037 L0.0842749456,23.7494074 C0.557399813,23.2366147 1.06008744,22.825804 1.59235292,22.516963 C2.12461839,22.2081219 2.76332738,22.0537037 3.50849905,22.0537037 C4.56120188,22.0537037 5.38915798,22.3537995 5.99239218,22.954 C6.59562639,23.5542005 6.89723897,24.3496 6.89723897,25.3402222 C6.89723897,25.8646693 6.78191651,26.392022 6.55126814,26.9222963 C6.32061976,27.4525706 6.00126527,28.0003182 5.59319507,28.5655556 C5.18512487,29.1307929 4.70017916,29.7193303 4.13834338,30.3311852 C3.5765076,30.9430401 2.95849751,31.592762 2.28429458,32.2803704 C2.59182574,32.2570616 2.91118024,32.2337532 3.24236764,32.2104444 C3.57355505,32.1871357 3.88699557,32.1754815 4.18269861,32.1754815 L7.46498597,32.1754815 L7.46498597,33.4166667 L0.155243321,33.4166667 L0.155243321,32.5600741 Z M13.0182613,32.4901481 C13.3021362,32.4901481 13.562351,32.4318771 13.7989135,32.3153333 C14.0354759,32.1987895 14.2424649,32.0327171 14.4198867,31.8171111 C14.5973086,31.6015051 14.7362869,31.3451126 14.8368259,31.0479259 C14.937365,30.7507393 14.9876337,30.4156809 14.9876337,30.0427407 C14.9876337,29.3085148 14.8161285,28.7316317 14.473113,28.3120741 C14.1300975,27.8925164 13.603754,27.6827407 12.8940667,27.6827407 C12.539223,27.6827407 12.1518578,27.7963692 11.7319595,28.0236296 C11.3120612,28.25089 10.9128681,28.6267381 10.5343682,29.1511852 C10.6289932,30.2466968 10.886251,31.0770589 11.3061493,31.6422963 C11.7260476,32.2075337 12.2967459,32.4901481 13.0182613,32.4901481 L13.0182613,32.4901481 Z M15.3424756,24.134 C15.1059132,23.8659493 14.8249995,23.65326 14.4997262,23.4959259 C14.1744528,23.3385918 13.8343994,23.2599259 13.4795558,23.2599259 C13.0892278,23.2599259 12.7166475,23.3415054 12.3618039,23.5046667 C12.0069602,23.667828 11.6935197,23.9358747 11.4214729,24.3088148 C11.1494261,24.681755 10.9306091,25.168318 10.7650154,25.7685185 C10.5994217,26.3687191 10.5107121,27.1116746 10.498884,27.9974074 C10.8537277,27.5661954 11.2677057,27.2253099 11.7408306,26.9747407 C12.2139554,26.7241716 12.6811592,26.5988889 13.142456,26.5988889 C14.1241901,26.5988889 14.9077914,26.8844169 15.4932834,27.4554815 C16.0787754,28.0265461 16.3715171,28.8889572 16.3715171,30.0427407 C16.3715171,30.5788422 16.2828075,31.0654052 16.1053857,31.5024444 C15.9279638,31.9394837 15.685491,32.3153318 15.3779598,32.63 C15.0704286,32.9446682 14.7155903,33.1894065 14.3134342,33.3642222 C13.911278,33.5390379 13.4795581,33.6264444 13.0182613,33.6264444 C12.4623396,33.6264444 11.947824,33.5157295 11.4746992,33.2942963 C11.0015743,33.0728631 10.5905532,32.7378047 10.2416236,32.2891111 C9.89269406,31.8404175 9.61769435,31.2810157 9.41661629,30.6108889 C9.21553822,29.9407621 9.11500069,29.1570168 9.11500069,28.2596296 C9.11500069,27.1408092 9.23328013,26.188078 9.46984257,25.4014074 C9.706405,24.6147368 10.0257595,23.9737556 10.4279156,23.4784444 C10.8300718,22.9831333 11.2884046,22.621853 11.8029279,22.3945926 C12.3174512,22.1673322 12.8585796,22.0537037 13.4263295,22.0537037 C14.0413918,22.0537037 14.5706923,22.1673322 15.0142469,22.3945926 C15.4578014,22.621853 15.8392526,22.9044674 16.1586119,23.2424444 L15.3424756,24.134 Z M22.4747973,29.1861481 L22.4747973,25.9520741 C22.4747973,25.6490602 22.4836683,25.2906934 22.5014105,24.876963 C22.5191526,24.4632325 22.5398516,24.1048657 22.5635078,23.8018519 L22.4925394,23.8018519 C22.350602,24.0699026 22.2027527,24.3321222 22.0489871,24.5885185 C21.8952215,24.8449149 21.7355442,25.1071345 21.5699505,25.3751852 L18.9263786,29.1861481 L22.4747973,29.1861481 Z M25.4022428,30.3399259 L23.8586806,30.3399259 L23.8586806,33.4166667 L22.4747973,33.4166667 L22.4747973,30.3399259 L17.3828164,30.3399259 L17.3828164,29.3959259 L22.226408,22.2634815 L23.8586806,22.2634815 L23.8586806,29.1861481 L25.4022428,29.1861481 L25.4022428,30.3399259 Z M31.1839476,31.037 C31.1839476,30.6502203 31.2421633,30.3011404 31.3585964,29.98975 C31.4750294,29.6783596 31.6297168,29.4145011 31.822663,29.1981667 C32.0156092,28.9818323 32.2384921,28.8146673 32.4913182,28.6966667 C32.7441443,28.5786661 33.010273,28.5196667 33.2897124,28.5196667 C33.5691518,28.5196667 33.8119942,28.5688328 34.0182471,28.6671667 C34.2245,28.7655005 34.4340764,28.899888 34.6469826,29.0703333 L34.6070628,28.2541667 L34.6070628,26.4153333 L35.4353968,26.4153333 L35.4353968,33.4166667 L34.7567618,33.4166667 L34.6869023,32.8561667 L34.6569625,32.8561667 C34.4640162,33.0397231 34.2427967,33.1986938 33.9932973,33.3330833 C33.7437978,33.4674729 33.4760058,33.5346667 33.1899131,33.5346667 C32.5778078,33.5346667 32.0904595,33.3183355 31.7278537,32.8856667 C31.3652478,32.4529978 31.1839476,31.8367818 31.1839476,31.037 L31.1839476,31.037 Z M32.0322415,31.0271667 C32.0322415,31.6040584 32.1486728,32.0531095 32.381539,32.3743333 C32.6144051,32.6955572 32.9437394,32.8561667 33.3695518,32.8561667 C33.5957646,32.8561667 33.8086676,32.8020839 34.0082672,32.6939167 C34.2078667,32.5857495 34.4074633,32.4202233 34.6070628,32.1973333 L34.6070628,29.6996667 C34.40081,29.5161102 34.2028767,29.3866393 34.0132571,29.31125 C33.8236376,29.2358607 33.6290309,29.1981667 33.4294314,29.1981667 C33.2364851,29.1981667 33.0551849,29.2424162 32.8855253,29.3309167 C32.7158657,29.4194171 32.5678316,29.5439714 32.4414185,29.7045833 C32.3150055,29.8651952 32.2152072,30.0569433 32.1420207,30.2798333 C32.0688342,30.5027233 32.0322415,30.751832 32.0322415,31.0271667 L32.0322415,31.0271667 Z M36.7128276,31.037 C36.7128276,30.6436647 36.7743699,30.2913071 36.8974563,29.9799167 C37.0205427,29.6685262 37.1835465,29.4046677 37.3864727,29.1883333 C37.5893989,28.9719989 37.8205983,28.8064728 38.0800777,28.69175 C38.3395571,28.5770272 38.6090125,28.5196667 38.8884519,28.5196667 C39.1945045,28.5196667 39.4689498,28.5721106 39.7117959,28.677 C39.954642,28.7818894 40.1575652,28.9326657 40.3205715,29.1293333 C40.4835778,29.326001 40.6083256,29.5619986 40.6948188,29.8373333 C40.7813119,30.112668 40.8245578,30.4207761 40.8245578,30.7616667 C40.8245578,30.9386676 40.814578,31.0861661 40.7946181,31.2041667 L37.5212018,31.2041667 C37.5544683,31.7220581 37.7158089,32.1317763 38.0052282,32.4333333 C38.2946476,32.7348904 38.6722178,32.8856667 39.13795,32.8856667 C39.3708162,32.8856667 39.5853825,32.8512503 39.7816554,32.7824167 C39.9779283,32.713583 40.1658817,32.623445 40.3455213,32.512 L40.6349392,33.043 C40.422033,33.1741118 40.1858438,33.2888328 39.9263643,33.3871667 C39.6668849,33.4855005 39.3708167,33.5346667 39.0381508,33.5346667 C38.7121382,33.5346667 38.4077534,33.4773061 38.1249874,33.3625833 C37.8422213,33.2478605 37.5960523,33.0839733 37.3864727,32.8709167 C37.1768932,32.65786 37.012226,32.3972793 36.8924663,32.0891667 C36.7727066,31.781054 36.7128276,31.4303353 36.7128276,31.037 L36.7128276,31.037 Z M40.106003,30.6731667 C40.106003,30.1814975 40.0012148,29.8061957 39.7916353,29.54725 C39.5820558,29.2883043 39.2876509,29.1588333 38.9084117,29.1588333 C38.7354254,29.1588333 38.5707583,29.1932497 38.4144053,29.2620833 C38.2580523,29.330917 38.1166714,29.4292494 37.9902584,29.5570833 C37.8638453,29.6849173 37.7590571,29.8422491 37.6758906,30.0290833 C37.5927242,30.2159176 37.5378351,30.4306099 37.5112218,30.6731667 L40.106003,30.6731667 Z M42.8405033,33.8198333 L42.8405033,35.4325 L42.0221492,35.4325 L42.0221492,28.6376667 L42.7007843,28.6376667 L42.7706438,29.1883333 L42.8005835,29.1883333 C43.020143,29.0047769 43.2613222,28.8474451 43.5241283,28.7163333 C43.7869344,28.5852216 44.0613797,28.5196667 44.3474723,28.5196667 C44.6601783,28.5196667 44.9362869,28.5770272 45.1758063,28.69175 C45.4153258,28.8064728 45.6149224,28.97036 45.774602,29.1834167 C45.9342817,29.3964733 46.0557029,29.6521374 46.1388694,29.9504167 C46.2220359,30.2486959 46.2636185,30.5846648 46.2636185,30.9583333 C46.2636185,31.3647798 46.2070661,31.7269706 46.0939597,32.0449167 C45.9808533,32.3628627 45.8278293,32.6332767 45.634883,32.8561667 C45.4419368,33.0790567 45.219054,33.2478605 44.9662279,33.3625833 C44.7134018,33.4773061 44.447273,33.5346667 44.1678336,33.5346667 C43.9416208,33.5346667 43.7170747,33.4855005 43.4941885,33.3871667 C43.2713024,33.2888328 43.0467562,33.1544453 42.8205434,32.984 L42.8405033,33.8198333 Z M42.8405033,32.3546667 C43.0600628,32.5382231 43.2729658,32.6676941 43.4792186,32.7430833 C43.6854715,32.8184726 43.868435,32.8561667 44.0281147,32.8561667 C44.2277142,32.8561667 44.412341,32.8119171 44.5820006,32.7234167 C44.7516603,32.6349162 44.8980311,32.5103619 45.0211175,32.34975 C45.1442039,32.1891381 45.2406755,31.9908345 45.3105354,31.7548333 C45.3803952,31.5188322 45.4153246,31.2533348 45.4153246,30.9583333 C45.4153246,30.6961098 45.3920383,30.4568344 45.3454651,30.2405 C45.2988919,30.0241656 45.2240432,29.838973 45.1209167,29.6849167 C45.0177903,29.5308603 44.8847259,29.4112226 44.7217196,29.326 C44.5587133,29.2407774 44.3641067,29.1981667 44.1378939,29.1981667 C43.931641,29.1981667 43.7237279,29.2538883 43.5141484,29.3653333 C43.3045688,29.4767783 43.0800227,29.6373878 42.8405033,29.8471667 L42.8405033,32.3546667 Z M47.2017317,31.037 C47.2017317,30.6436647 47.263274,30.2913071 47.3863603,29.9799167 C47.5094467,29.6685262 47.6724506,29.4046677 47.8753768,29.1883333 C48.078303,28.9719989 48.3095024,28.8064728 48.5689818,28.69175 C48.8284612,28.5770272 49.0979166,28.5196667 49.3773559,28.5196667 C49.6834086,28.5196667 49.9578539,28.5721106 50.2007,28.677 C50.4435461,28.7818894 50.6464693,28.9326657 50.8094756,29.1293333 C50.9724819,29.326001 51.0972297,29.5619986 51.1837229,29.8373333 C51.270216,30.112668 51.3134619,30.4207761 51.3134619,30.7616667 C51.3134619,30.9386676 51.3034821,31.0861661 51.2835221,31.2041667 L48.0101058,31.2041667 C48.0433724,31.7220581 48.204713,32.1317763 48.4941323,32.4333333 C48.7835517,32.7348904 49.1611218,32.8856667 49.6268541,32.8856667 C49.8597203,32.8856667 50.0742866,32.8512503 50.2705595,32.7824167 C50.4668324,32.713583 50.6547858,32.623445 50.8344254,32.512 L51.1238433,33.043 C50.9109371,33.1741118 50.6747478,33.2888328 50.4152684,33.3871667 C50.155789,33.4855005 49.8597208,33.5346667 49.5270549,33.5346667 C49.2010422,33.5346667 48.8966575,33.4773061 48.6138915,33.3625833 C48.3311254,33.2478605 48.0849563,33.0839733 47.8753768,32.8709167 C47.6657973,32.65786 47.5011301,32.3972793 47.3813704,32.0891667 C47.2616107,31.781054 47.2017317,31.4303353 47.2017317,31.037 L47.2017317,31.037 Z M50.5949071,30.6731667 C50.5949071,30.1814975 50.4901189,29.8061957 50.2805394,29.54725 C50.0709599,29.2883043 49.7765549,29.1588333 49.3973158,29.1588333 C49.2243295,29.1588333 49.0596624,29.1932497 48.9033094,29.2620833 C48.7469564,29.330917 48.6055755,29.4292494 48.4791624,29.5570833 C48.3527494,29.6849173 48.2479612,29.8422491 48.1647947,30.0290833 C48.0816282,30.2159176 48.0267392,30.4306099 48.0001259,30.6731667 L50.5949071,30.6731667 Z M52.5110533,28.6376667 L53.1896883,28.6376667 L53.2595478,29.326 L53.2894876,29.326 C53.5223538,29.0965544 53.7668596,28.9048063 54.0230123,28.75075 C54.2791651,28.5966937 54.5768966,28.5196667 54.9162158,28.5196667 C55.4285214,28.5196667 55.8027649,28.6769984 56.0389577,28.9916667 C56.2751505,29.3063349 56.3932452,29.7717747 56.3932452,30.388 L56.3932452,33.4166667 L55.5748911,33.4166667 L55.5748911,30.4961667 C55.5748911,30.0438311 55.5017057,29.7176954 55.3553327,29.51775 C55.2089597,29.3178046 54.976097,29.2178333 54.6567377,29.2178333 C54.4039116,29.2178333 54.1810288,29.2801105 53.9880826,29.4046667 C53.7951363,29.5292228 53.5755801,29.7127766 53.3294073,29.9553333 L53.3294073,33.4166667 L52.5110533,33.4166667 L52.5110533,28.6376667 Z M57.6207763,31.037 C57.6207763,30.6502203 57.6789919,30.3011404 57.795425,29.98975 C57.9118581,29.6783596 58.0665454,29.4145011 58.2594916,29.1981667 C58.4524379,28.9818323 58.6753207,28.8146673 58.9281468,28.6966667 C59.1809729,28.5786661 59.4471017,28.5196667 59.726541,28.5196667 C60.0059804,28.5196667 60.2488229,28.5688328 60.4550758,28.6671667 C60.6613286,28.7655005 60.870905,28.899888 61.0838112,29.0703333 L61.0438915,28.2541667 L61.0438915,26.4153333 L61.8722255,26.4153333 L61.8722255,33.4166667 L61.1935904,33.4166667 L61.1237309,32.8561667 L61.0937911,32.8561667 C60.9008449,33.0397231 60.6796254,33.1986938 60.4301259,33.3330833 C60.1806265,33.4674729 59.9128344,33.5346667 59.6267418,33.5346667 C59.0146365,33.5346667 58.5272882,33.3183355 58.1646823,32.8856667 C57.8020765,32.4529978 57.6207763,31.8367818 57.6207763,31.037 L57.6207763,31.037 Z M58.4690701,31.0271667 C58.4690701,31.6040584 58.5855015,32.0531095 58.8183676,32.3743333 C59.0512337,32.6955572 59.3805681,32.8561667 59.8063805,32.8561667 C60.0325933,32.8561667 60.2454963,32.8020839 60.4450958,32.6939167 C60.6446954,32.5857495 60.8442919,32.4202233 61.0438915,32.1973333 L61.0438915,29.6996667 C60.8376386,29.5161102 60.6397054,29.3866393 60.4500858,29.31125 C60.2604662,29.2358607 60.0658596,29.1981667 59.86626,29.1981667 C59.6733138,29.1981667 59.4920136,29.2424162 59.322354,29.3309167 C59.1526943,29.4194171 59.0046602,29.5439714 58.8782472,29.7045833 C58.7518341,29.8651952 58.6520358,30.0569433 58.5788493,30.2798333 C58.5056628,30.5027233 58.4690701,30.751832 58.4690701,31.0271667 L58.4690701,31.0271667 Z M63.1496563,31.037 C63.1496563,30.6436647 63.2111985,30.2913071 63.3342849,29.9799167 C63.4573713,29.6685262 63.6203752,29.4046677 63.8233014,29.1883333 C64.0262276,28.9719989 64.2574269,28.8064728 64.5169064,28.69175 C64.7763858,28.5770272 65.0458411,28.5196667 65.3252805,28.5196667 C65.6313332,28.5196667 65.9057784,28.5721106 66.1486245,28.677 C66.3914707,28.7818894 66.5943938,28.9326657 66.7574001,29.1293333 C66.9204064,29.326001 67.0451543,29.5619986 67.1316474,29.8373333 C67.2181406,30.112668 67.2613865,30.4207761 67.2613865,30.7616667 C67.2613865,30.9386676 67.2514067,31.0861661 67.2314467,31.2041667 L63.9580304,31.2041667 C63.991297,31.7220581 64.1526375,32.1317763 64.4420569,32.4333333 C64.7314762,32.7348904 65.1090464,32.8856667 65.5747787,32.8856667 C65.8076448,32.8856667 66.0222111,32.8512503 66.218484,32.7824167 C66.4147569,32.713583 66.6027104,32.623445 66.78235,32.512 L67.0717679,33.043 C66.8588617,33.1741118 66.6226724,33.2888328 66.363193,33.3871667 C66.1037136,33.4855005 65.8076453,33.5346667 65.4749794,33.5346667 C65.1489668,33.5346667 64.8445821,33.4773061 64.561816,33.3625833 C64.27905,33.2478605 64.0328809,33.0839733 63.8233014,32.8709167 C63.6137218,32.65786 63.4490547,32.3972793 63.329295,32.0891667 C63.2095352,31.781054 63.1496563,31.4303353 63.1496563,31.037 L63.1496563,31.037 Z M66.5428317,30.6731667 C66.5428317,30.1814975 66.4380435,29.8061957 66.228464,29.54725 C66.0188844,29.2883043 65.7244795,29.1588333 65.3452404,29.1588333 C65.1722541,29.1588333 65.0075869,29.1932497 64.8512339,29.2620833 C64.694881,29.330917 64.5535001,29.4292494 64.427087,29.5570833 C64.300674,29.6849173 64.1958858,29.8422491 64.1127193,30.0290833 C64.0295528,30.2159176 63.9746637,30.4306099 63.9480505,30.6731667 L66.5428317,30.6731667 Z M68.4589778,28.6376667 L69.1376129,28.6376667 L69.2074724,29.326 L69.2374122,29.326 C69.4702783,29.0965544 69.7147841,28.9048063 69.9709369,28.75075 C70.2270896,28.5966937 70.5248212,28.5196667 70.8641404,28.5196667 C71.3764459,28.5196667 71.7506895,28.6769984 71.9868823,28.9916667 C72.2230751,29.3063349 72.3411697,29.7717747 72.3411697,30.388 L72.3411697,33.4166667 L71.5228156,33.4166667 L71.5228156,30.4961667 C71.5228156,30.0438311 71.4496302,29.7176954 71.3032572,29.51775 C71.1568842,29.3178046 70.9240216,29.2178333 70.6046623,29.2178333 C70.3518362,29.2178333 70.1289534,29.2801105 69.9360071,29.4046667 C69.7430609,29.5292228 69.5235047,29.7127766 69.2773319,29.9553333 L69.2773319,33.4166667 L68.4589778,33.4166667 L68.4589778,28.6376667 Z M73.5587209,31.037 C73.5587209,30.6371091 73.6219265,30.2814738 73.7483395,29.9700833 C73.8747526,29.6586929 74.0444097,29.3948344 74.2573159,29.1785 C74.470222,28.9621656 74.7180544,28.7982783 75.0008205,28.6868333 C75.2835865,28.5753883 75.581318,28.5196667 75.894024,28.5196667 C76.2133833,28.5196667 76.4878286,28.5770272 76.717368,28.69175 C76.9469075,28.8064728 77.1448408,28.9392215 77.3111737,29.09 L76.9019967,29.6111667 C76.7556237,29.4866105 76.604263,29.3850004 76.44791,29.3063333 C76.291557,29.2276663 76.11691,29.1883333 75.9239638,29.1883333 C75.7044043,29.1883333 75.5014811,29.2325829 75.3151882,29.3210833 C75.1288953,29.4095838 74.969218,29.535777 74.8361517,29.6996667 C74.7030853,29.8635564 74.5982971,30.0585822 74.5217839,30.28475 C74.4452708,30.5109178 74.4070148,30.7616653 74.4070148,31.037 C74.4070148,31.3123347 74.4436075,31.5614433 74.516794,31.7843333 C74.5899805,32.0072233 74.6914421,32.1989714 74.8211818,32.3595833 C74.9509215,32.5201952 75.1089354,32.6447496 75.2952283,32.73325 C75.4815213,32.8217504 75.6844444,32.866 75.9040039,32.866 C76.1368701,32.866 76.3481098,32.8184727 76.5377293,32.7234167 C76.7273489,32.6283606 76.8953427,32.5152784 77.0417157,32.3841667 L77.410973,32.9151667 C77.1914135,33.1052787 76.9469077,33.256055 76.6774483,33.3675 C76.4079889,33.478945 76.1268905,33.5346667 75.8341444,33.5346667 C75.5147852,33.5346667 75.2153903,33.478945 74.9359509,33.3675 C74.6565116,33.256055 74.4153324,33.0938066 74.2124062,32.88075 C74.00948,32.6676934 73.8498027,32.4054738 73.7333696,32.0940833 C73.6169366,31.7826929 73.5587209,31.4303353 73.5587209,31.037 L73.5587209,31.037 Z M78.8880023,27.6543333 C78.7283227,27.6543333 78.593595,27.6051672 78.4838153,27.5068333 C78.3740355,27.4084995 78.3191465,27.2839452 78.3191465,27.1331667 C78.3191465,26.9758325 78.3740355,26.8496394 78.4838153,26.7545833 C78.593595,26.6595273 78.7283227,26.612 78.8880023,26.612 C79.047682,26.612 79.1824097,26.6595273 79.2921894,26.7545833 C79.4019692,26.8496394 79.4568582,26.9758325 79.4568582,27.1331667 C79.4568582,27.2839452 79.4019692,27.4084995 79.2921894,27.5068333 C79.1824097,27.6051672 79.047682,27.6543333 78.8880023,27.6543333 L78.8880023,27.6543333 Z M78.4688454,28.6376667 L79.2871994,28.6376667 L79.2871994,33.4166667 L78.4688454,33.4166667 L78.4688454,28.6376667 Z M80.5646302,31.037 C80.5646302,30.6436647 80.6261725,30.2913071 80.7492589,29.9799167 C80.8723453,29.6685262 81.0353491,29.4046677 81.2382753,29.1883333 C81.4412015,28.9719989 81.6724009,28.8064728 81.9318803,28.69175 C82.1913597,28.5770272 82.4608151,28.5196667 82.7402545,28.5196667 C83.0463071,28.5196667 83.3207524,28.5721106 83.5635985,28.677 C83.8064446,28.7818894 84.0093678,28.9326657 84.1723741,29.1293333 C84.3353804,29.326001 84.4601282,29.5619986 84.5466214,29.8373333 C84.6331145,30.112668 84.6763604,30.4207761 84.6763604,30.7616667 C84.6763604,30.9386676 84.6663806,31.0861661 84.6464207,31.2041667 L81.3730043,31.2041667 C81.4062709,31.7220581 81.5676115,32.1317763 81.8570308,32.4333333 C82.1464502,32.7348904 82.5240204,32.8856667 82.9897526,32.8856667 C83.2226188,32.8856667 83.4371851,32.8512503 83.633458,32.7824167 C83.8297309,32.713583 84.0176843,32.623445 84.1973239,32.512 L84.4867418,33.043 C84.2738356,33.1741118 84.0376464,33.2888328 83.7781669,33.3871667 C83.5186875,33.4855005 83.2226193,33.5346667 82.8899534,33.5346667 C82.5639408,33.5346667 82.259556,33.4773061 81.97679,33.3625833 C81.6940239,33.2478605 81.4478549,33.0839733 81.2382753,32.8709167 C81.0286958,32.65786 80.8640286,32.3972793 80.7442689,32.0891667 C80.6245092,31.781054 80.5646302,31.4303353 80.5646302,31.037 L80.5646302,31.037 Z M83.9578056,30.6731667 C83.9578056,30.1814975 83.8530174,29.8061957 83.6434379,29.54725 C83.4338584,29.2883043 83.1394535,29.1588333 82.7602143,29.1588333 C82.587228,29.1588333 82.4225609,29.1932497 82.2662079,29.2620833 C82.1098549,29.330917 81.968474,29.4292494 81.842061,29.5570833 C81.7156479,29.6849173 81.6108597,29.8422491 81.5276932,30.0290833 C81.4445267,30.2159176 81.3896377,30.4306099 81.3630244,30.6731667 L83.9578056,30.6731667 Z M85.7442127,32.335 C85.9571189,32.5054453 86.1750118,32.6431106 86.397898,32.748 C86.6207841,32.8528894 86.8785964,32.9053333 87.1713424,32.9053333 C87.4907017,32.9053333 87.7302175,32.8332229 87.8898972,32.689 C88.0495768,32.5447771 88.1294154,32.3677788 88.1294154,32.158 C88.1294154,32.0334438 88.0961494,31.9252782 88.0296162,31.8335 C87.963083,31.7417218 87.8782544,31.661417 87.775128,31.5925833 C87.6720016,31.5237497 87.5539069,31.4631114 87.4208406,31.4106667 C87.2877742,31.358222 87.1547098,31.305778 87.0216435,31.2533333 C86.8486572,31.194333 86.6756735,31.1271393 86.5026872,31.05175 C86.3297009,30.9763607 86.1750136,30.8845839 86.0386206,30.7764167 C85.9022276,30.6682495 85.7907861,30.5420563 85.704293,30.3978333 C85.6177999,30.2536104 85.5745539,30.0798899 85.5745539,29.8766667 C85.5745539,29.6865546 85.6128099,29.5079175 85.6893231,29.34075 C85.7658363,29.1735825 85.8756144,29.0293617 86.0186607,28.9080833 C86.1617071,28.7868049 86.3363541,28.6917503 86.5426069,28.6229167 C86.7488598,28.554083 86.9817225,28.5196667 87.2412019,28.5196667 C87.5472545,28.5196667 87.828353,28.5721106 88.0845058,28.677 C88.3406585,28.7818894 88.5618781,28.9097215 88.748171,29.0605 L88.3589538,29.5718333 C88.1926208,29.4472772 88.0196371,29.3456671 87.8399975,29.267 C87.6603579,29.1883329 87.464088,29.149 87.2511818,29.149 C86.9451292,29.149 86.720583,29.2178326 86.5775367,29.3555 C86.4344903,29.4931674 86.3629682,29.6537769 86.3629682,29.8373333 C86.3629682,29.9487783 86.3929077,30.0454718 86.4527876,30.1274167 C86.5126674,30.2093615 86.5925061,30.2814719 86.6923058,30.34375 C86.7921056,30.4060281 86.9068736,30.4617498 87.0366134,30.5109167 C87.1663531,30.5600836 87.3010807,30.6108886 87.4408004,30.6633333 C87.6137867,30.7288892 87.7884337,30.7977219 87.9647466,30.8698333 C88.1410596,30.9419448 88.2990735,31.0320828 88.4387932,31.14025 C88.5785129,31.2484172 88.6932809,31.3811659 88.7831007,31.5385 C88.8729205,31.6958341 88.9178297,31.8859433 88.9178297,32.1088333 C88.9178297,32.305501 88.8795737,32.4890547 88.8030606,32.6595 C88.7265474,32.8299453 88.6134427,32.9807216 88.463743,33.1118333 C88.3140434,33.2429451 88.1277532,33.3461941 87.9048671,33.4215833 C87.6819809,33.4969726 87.4274953,33.5346667 87.1414026,33.5346667 C86.79543,33.5346667 86.4660957,33.4723895 86.1533897,33.3478333 C85.8406838,33.2232772 85.5679018,33.0659454 85.3350357,32.8758333 L85.7442127,32.335 Z" id="264-dependencies"></path>
                <path d="M0.155243321,54.4119259 C1.00686808,53.5728106 1.76385651,52.8152873 2.42623133,52.1393333 C3.08860614,51.4633793 3.64451952,50.8369658 4.09398815,50.2600741 C4.54345677,49.6831823 4.88646715,49.152916 5.12302959,48.6692593 C5.35959202,48.1856025 5.47787146,47.7165208 5.47787146,47.262 C5.47787146,46.6210091 5.3004523,46.0965699 4.94560865,45.6886667 C4.590765,45.2807634 4.05259353,45.0768148 3.33107811,45.0768148 C2.85795324,45.0768148 2.42031931,45.2079246 2.01816317,45.4701481 C1.61600703,45.7323717 1.24934076,46.0499488 0.918153354,46.4228889 L0.0842749456,45.6012593 C0.557399813,45.0884666 1.06008744,44.6776559 1.59235292,44.3688148 C2.12461839,44.0599738 2.76332738,43.9055556 3.50849905,43.9055556 C4.56120188,43.9055556 5.38915798,44.2056513 5.99239218,44.8058519 C6.59562639,45.4060524 6.89723897,46.2014518 6.89723897,47.1920741 C6.89723897,47.7165211 6.78191651,48.2438739 6.55126814,48.7741481 C6.32061976,49.3044224 6.00126527,49.85217 5.59319507,50.4174074 C5.18512487,50.9826448 4.70017916,51.5711821 4.13834338,52.183037 C3.5765076,52.7948919 2.95849751,53.4446138 2.28429458,54.1322222 C2.59182574,54.1089135 2.91118024,54.0856051 3.24236764,54.0622963 C3.57355505,54.0389875 3.88699557,54.0273333 4.18269861,54.0273333 L7.46498597,54.0273333 L7.46498597,55.2685185 L0.155243321,55.2685185 L0.155243321,54.4119259 Z M8.97306394,54.4119259 C9.8246887,53.5728106 10.5816771,52.8152873 11.2440519,52.1393333 C11.9064268,51.4633793 12.4623401,50.8369658 12.9118088,50.2600741 C13.3612774,49.6831823 13.7042878,49.152916 13.9408502,48.6692593 C14.1774126,48.1856025 14.2956921,47.7165208 14.2956921,47.262 C14.2956921,46.6210091 14.1182729,46.0965699 13.7634293,45.6886667 C13.4085856,45.2807634 12.8704142,45.0768148 12.1488987,45.0768148 C11.6757739,45.0768148 11.2381399,45.2079246 10.8359838,45.4701481 C10.4338277,45.7323717 10.0671614,46.0499488 9.73597397,46.4228889 L8.90209557,45.6012593 C9.37522043,45.0884666 9.87790806,44.6776559 10.4101735,44.3688148 C10.942439,44.0599738 11.581148,43.9055556 12.3263197,43.9055556 C13.3790225,43.9055556 14.2069786,44.2056513 14.8102128,44.8058519 C15.413447,45.4060524 15.7150596,46.2014518 15.7150596,47.1920741 C15.7150596,47.7165211 15.5997371,48.2438739 15.3690888,48.7741481 C15.1384404,49.3044224 14.8190859,49.85217 14.4110157,50.4174074 C14.0029455,50.9826448 13.5179998,51.5711821 12.956164,52.183037 C12.3943282,52.7948919 11.7763181,53.4446138 11.1021152,54.1322222 C11.4096464,54.1089135 11.7290009,54.0856051 12.0601883,54.0622963 C12.3913757,54.0389875 12.7048162,54.0273333 13.0005192,54.0273333 L16.2828066,54.0273333 L16.2828066,55.2685185 L8.97306394,55.2685185 L8.97306394,54.4119259 Z M23.5337785,55.6716852 L23.5337785,57.2843519 L22.7154245,57.2843519 L22.7154245,50.4895185 L23.3940596,50.4895185 L23.4639191,51.0401852 L23.4938588,51.0401852 C23.7134183,50.8566287 23.9545975,50.699297 24.2174036,50.5681852 C24.4802097,50.4370734 24.7546549,50.3715185 25.0407476,50.3715185 C25.3534536,50.3715185 25.6295622,50.4288791 25.8690816,50.5436019 C26.1086011,50.6583246 26.3081977,50.8222119 26.4678773,51.0352685 C26.627557,51.2483251 26.7489782,51.5039892 26.8321447,51.8022685 C26.9153112,52.1005478 26.9568938,52.4365167 26.9568938,52.8101852 C26.9568938,53.2166317 26.9003414,53.5788225 26.787235,53.8967685 C26.6741286,54.2147146 26.5211046,54.4851285 26.3281583,54.7080185 C26.1352121,54.9309085 25.9123293,55.0997124 25.6595032,55.2144352 C25.4066771,55.329158 25.1405483,55.3865185 24.8611089,55.3865185 C24.6348961,55.3865185 24.41035,55.3373523 24.1874638,55.2390185 C23.9645777,55.1406847 23.7400315,55.0062971 23.5138187,54.8358519 L23.5337785,55.6716852 Z M23.5337785,54.2065185 C23.7533381,54.390075 23.9662411,54.5195459 24.1724939,54.5949352 C24.3787468,54.6703245 24.5617103,54.7080185 24.72139,54.7080185 C24.9209895,54.7080185 25.1056163,54.663769 25.2752759,54.5752685 C25.4449356,54.4867681 25.5913064,54.3622138 25.7143928,54.2016019 C25.8374792,54.0409899 25.9339508,53.8426864 26.0038107,53.6066852 C26.0736705,53.370684 26.1085999,53.1051867 26.1085999,52.8101852 C26.1085999,52.5479617 26.0853136,52.3086863 26.0387404,52.0923519 C25.9921672,51.8760174 25.9173185,51.6908248 25.814192,51.5367685 C25.7110656,51.3827122 25.5780012,51.2630745 25.4149949,51.1778519 C25.2519886,51.0926292 25.057382,51.0500185 24.8311692,51.0500185 C24.6249163,51.0500185 24.4170032,51.1057402 24.2074237,51.2171852 C23.9978441,51.3286302 23.773298,51.4892397 23.5337785,51.6990185 L23.5337785,54.2065185 Z M28.2542844,48.2671852 L29.0726385,48.2671852 L29.0726385,54.3638519 C29.0726385,54.4949636 29.0959247,54.5867405 29.142498,54.6391852 C29.1890712,54.6916299 29.2422969,54.7178519 29.3021768,54.7178519 L29.3770263,54.7178519 C29.4003129,54.7178519 29.4352423,54.7112964 29.4818155,54.6981852 L29.5915947,55.3078519 C29.5383682,55.3340742 29.4751626,55.3537407 29.4019761,55.3668519 C29.3287896,55.379963 29.2356445,55.3865185 29.1225381,55.3865185 C28.8098321,55.3865185 28.5869493,55.2947417 28.4538829,55.1111852 C28.3208166,54.9276287 28.2542844,54.6588536 28.2542844,54.3048519 L28.2542844,48.2671852 Z M30.7293065,50.4895185 L31.5576405,50.4895185 L31.5576405,53.4100185 C31.5576405,53.8623541 31.6291626,54.1884897 31.7722089,54.3884352 C31.9152553,54.5883806 32.1464546,54.6883519 32.4658139,54.6883519 C32.71864,54.6883519 32.9415228,54.6244358 33.1344691,54.4966019 C33.3274153,54.3687679 33.5403183,54.1639088 33.7731844,53.8820185 L33.7731844,50.4895185 L34.5915385,50.4895185 L34.5915385,55.2685185 L33.9129034,55.2685185 L33.8430439,54.5211852 L33.8131041,54.5211852 C33.5868913,54.7834087 33.3490388,54.9931844 33.0995393,55.1505185 C32.8500399,55.3078526 32.5556349,55.3865185 32.2163157,55.3865185 C31.6973569,55.3865185 31.3197867,55.2291868 31.0835939,54.9145185 C30.8474011,54.5998503 30.7293065,54.1344105 30.7293065,53.5181852 L30.7293065,50.4895185 Z M36.5775441,56.0748519 C36.5775441,56.3305198 36.702292,56.53374 36.9517914,56.6845185 C37.2012909,56.8352971 37.5455949,56.9106852 37.984714,56.9106852 C38.2175801,56.9106852 38.4288198,56.8828244 38.6184394,56.8271019 C38.8080589,56.7713794 38.9693995,56.699269 39.1024659,56.6107685 C39.2355322,56.5222681 39.3386571,56.4190191 39.4118436,56.3010185 C39.4850301,56.1830179 39.5216228,56.0617414 39.5216228,55.9371852 C39.5216228,55.7142952 39.4384576,55.5602412 39.2721246,55.4750185 C39.1057917,55.3897959 38.8629492,55.3471852 38.5435899,55.3471852 L37.705276,55.3471852 C37.6121295,55.3471852 37.5106679,55.3422686 37.4008882,55.3324352 C37.2911084,55.3226018 37.1829936,55.3012965 37.0765405,55.2685185 C36.9035542,55.3930747 36.7771431,55.5241845 36.6973033,55.6618519 C36.6174634,55.7995192 36.5775441,55.9371845 36.5775441,56.0748519 L36.5775441,56.0748519 Z M35.8589893,56.1830185 C35.8589893,55.9797953 35.9221949,55.7864083 36.048608,55.6028519 C36.175021,55.4192954 36.3480047,55.2521304 36.5675642,55.1013519 L36.5675642,55.0620185 C36.4478045,54.989907 36.3463429,54.8899358 36.2631764,54.7621019 C36.1800099,54.6342679 36.1384273,54.4752972 36.1384273,54.2851852 C36.1384273,54.0819619 36.1949797,53.9049637 36.3080861,53.7541852 C36.4211925,53.6034067 36.5409504,53.4854078 36.6673635,53.4001852 L36.6673635,53.3608519 C36.5076838,53.2297401 36.3629763,53.0543807 36.2332366,52.8347685 C36.1034969,52.6151563 36.038628,52.3611311 36.038628,52.0726852 C36.038628,51.8104617 36.0868639,51.574464 36.183337,51.3646852 C36.2798101,51.1549064 36.4112112,50.9762693 36.5775441,50.8287685 C36.7438771,50.6812678 36.9384837,50.5681856 37.1613699,50.4895185 C37.3842561,50.4108515 37.618782,50.3715185 37.8649548,50.3715185 C37.9980212,50.3715185 38.122769,50.3829906 38.2392021,50.4059352 C38.3556352,50.4288797 38.4604234,50.4567406 38.5535698,50.4895185 L40.2401776,50.4895185 L40.2401776,51.1090185 L39.2421849,51.1090185 C39.3552913,51.2204635 39.4500996,51.3614066 39.5266128,51.5318519 C39.603126,51.7022971 39.641382,51.8891286 39.641382,52.0923519 C39.641382,52.3480198 39.5948094,52.5791008 39.501663,52.7856019 C39.4085165,52.9921029 39.2821054,53.1658234 39.1224257,53.3067685 C38.9627461,53.4477137 38.7747926,53.5575181 38.5585598,53.6361852 C38.3423269,53.7148522 38.1111276,53.7541852 37.8649548,53.7541852 C37.7451951,53.7541852 37.6221105,53.7394353 37.4956975,53.7099352 C37.3692844,53.680435 37.2495265,53.6394632 37.1364201,53.5870185 C37.049927,53.65913 36.9767415,53.7394347 36.9168617,53.8279352 C36.8569818,53.9164356 36.8270423,54.0262401 36.8270423,54.1573519 C36.8270423,54.3081304 36.8869213,54.4326847 37.006681,54.5310185 C37.1264408,54.6293523 37.3526502,54.6785185 37.6853161,54.6785185 L38.6234293,54.6785185 C39.1889614,54.6785185 39.6131041,54.7686565 39.8958701,54.9489352 C40.1786362,55.1292139 40.320017,55.4192943 40.320017,55.8191852 C40.320017,56.0420752 40.2634647,56.2534897 40.1503583,56.4534352 C40.0372519,56.6533806 39.874248,56.82874 39.6613418,56.9795185 C39.4484356,57.1302971 39.1906234,57.2499347 38.8878974,57.3384352 C38.5851714,57.4269356 38.244194,57.4711852 37.8649548,57.4711852 C37.5655555,57.4711852 37.2927735,57.4433244 37.0466007,57.3876019 C36.800428,57.3318794 36.5891883,57.2482969 36.4128753,57.1368519 C36.2365624,57.0254069 36.1001714,56.8910193 36.0036983,56.7336852 C35.9072252,56.5763511 35.8589893,56.3927973 35.8589893,56.1830185 L35.8589893,56.1830185 Z M37.8649548,53.2133519 C38.0046745,53.2133519 38.1360756,53.1871299 38.259162,53.1346852 C38.3822484,53.0822405 38.4920265,53.0068523 38.5884996,52.9085185 C38.6849727,52.8101847 38.7598214,52.690547 38.813048,52.5496019 C38.8662745,52.4086567 38.8928874,52.2496861 38.8928874,52.0726852 C38.8928874,51.7186834 38.7930891,51.4449917 38.5934895,51.2516019 C38.39389,51.058212 38.1510475,50.9615185 37.8649548,50.9615185 C37.5788621,50.9615185 37.3360196,51.058212 37.1364201,51.2516019 C36.9368205,51.4449917 36.8370223,51.7186834 36.8370223,52.0726852 C36.8370223,52.2496861 36.8636351,52.4086567 36.9168617,52.5496019 C36.9700882,52.690547 37.0449369,52.8101847 37.1414101,52.9085185 C37.2378832,53.0068523 37.3476613,53.0822405 37.4707477,53.1346852 C37.5938341,53.1871299 37.7252351,53.2133519 37.8649548,53.2133519 L37.8649548,53.2133519 Z M41.6772872,49.5061852 C41.5176076,49.5061852 41.3828799,49.457019 41.2731002,49.3586852 C41.1633204,49.2603514 41.1084313,49.1357971 41.1084313,48.9850185 C41.1084313,48.8276844 41.1633204,48.7014912 41.2731002,48.6064352 C41.3828799,48.5113792 41.5176076,48.4638519 41.6772872,48.4638519 C41.8369669,48.4638519 41.9716945,48.5113792 42.0814743,48.6064352 C42.1912541,48.7014912 42.2461431,48.8276844 42.2461431,48.9850185 C42.2461431,49.1357971 42.1912541,49.2603514 42.0814743,49.3586852 C41.9716945,49.457019 41.8369669,49.5061852 41.6772872,49.5061852 L41.6772872,49.5061852 Z M41.2581303,50.4895185 L42.0764843,50.4895185 L42.0764843,55.2685185 L41.2581303,55.2685185 L41.2581303,50.4895185 Z M43.7131925,50.4895185 L44.3918276,50.4895185 L44.4616871,51.1778519 L44.4916269,51.1778519 C44.724493,50.9484063 44.9689988,50.7566582 45.2251515,50.6026019 C45.4813043,50.4485455 45.7790358,50.3715185 46.1183551,50.3715185 C46.6306606,50.3715185 47.0049041,50.5288503 47.241097,50.8435185 C47.4772898,51.1581868 47.5953844,51.6236265 47.5953844,52.2398519 L47.5953844,55.2685185 L46.7770303,55.2685185 L46.7770303,52.3480185 C46.7770303,51.8956829 46.7038449,51.5695473 46.5574719,51.3696019 C46.4110989,51.1696564 46.1782362,51.0696852 45.858877,51.0696852 C45.6060509,51.0696852 45.383168,51.1319623 45.1902218,51.2565185 C44.9972756,51.3810747 44.7777193,51.5646284 44.5315466,51.8071852 L44.5315466,55.2685185 L43.7131925,55.2685185 L43.7131925,50.4895185 Z M49.0424739,54.1868519 C49.2553801,54.3572971 49.473273,54.4949624 49.6961592,54.5998519 C49.9190454,54.7047413 50.1768576,54.7571852 50.4696036,54.7571852 C50.7889629,54.7571852 51.0284787,54.6850748 51.1881584,54.5408519 C51.347838,54.3966289 51.4276767,54.2196307 51.4276767,54.0098519 C51.4276767,53.8852957 51.3944106,53.7771301 51.3278774,53.6853519 C51.2613442,53.5935736 51.1765157,53.5132689 51.0733892,53.4444352 C50.9702628,53.3756015 50.8521681,53.3149632 50.7191018,53.2625185 C50.5860354,53.2100738 50.452971,53.1576299 50.3199047,53.1051852 C50.1469184,53.0461849 49.9739347,52.9789911 49.8009484,52.9036019 C49.6279621,52.8282126 49.4732748,52.7364357 49.3368818,52.6282685 C49.2004888,52.5201013 49.0890473,52.3939081 49.0025542,52.2496852 C48.9160611,52.1054622 48.8728151,51.9317418 48.8728151,51.7285185 C48.8728151,51.5384065 48.9110712,51.3597694 48.9875843,51.1926019 C49.0640975,51.0254343 49.1738756,50.8812136 49.3169219,50.7599352 C49.4599683,50.6386568 49.6346153,50.5436022 49.8408681,50.4747685 C50.047121,50.4059348 50.2799837,50.3715185 50.5394631,50.3715185 C50.8455157,50.3715185 51.1266142,50.4239624 51.382767,50.5288519 C51.6389197,50.6337413 51.8601393,50.7615733 52.0464322,50.9123519 L51.657215,51.4236852 C51.490882,51.299129 51.3178983,51.1975189 51.1382587,51.1188519 C50.9586191,51.0401848 50.7623492,51.0008519 50.549443,51.0008519 C50.2433904,51.0008519 50.0188442,51.0696845 49.8757979,51.2073519 C49.7327515,51.3450192 49.6612294,51.5056287 49.6612294,51.6891852 C49.6612294,51.8006302 49.6911689,51.8973237 49.7510488,51.9792685 C49.8109287,52.0612134 49.8907673,52.1333238 49.9905671,52.1956019 C50.0903668,52.2578799 50.2051349,52.3136016 50.3348746,52.3627685 C50.4646143,52.4119354 50.5993419,52.4627405 50.7390616,52.5151852 C50.9120479,52.5807411 51.0866949,52.6495737 51.2630078,52.7216852 C51.4393208,52.7937967 51.5973347,52.8839346 51.7370544,52.9921019 C51.8767741,53.1002691 51.9915421,53.2330177 52.0813619,53.3903519 C52.1711817,53.547686 52.2160909,53.7377952 52.2160909,53.9606852 C52.2160909,54.1573528 52.1778349,54.3409066 52.1013218,54.5113519 C52.0248086,54.6817971 51.9117039,54.8325734 51.7620042,54.9636852 C51.6123046,55.094797 51.4260144,55.1980459 51.2031283,55.2734352 C50.9802421,55.3488245 50.7257565,55.3865185 50.4396638,55.3865185 C50.0936912,55.3865185 49.7643569,55.3242414 49.451651,55.1996852 C49.138945,55.075129 48.866163,54.9177972 48.6332969,54.7276852 L49.0424739,54.1868519 Z" id="22-plugins"></path>
            </g>
        </g>
    </g>
</svg>