<?xml version="1.0" encoding="UTF-8" standalone="no"?><svg xmlns="http://www.w3.org/2000/svg" xmlns:xlink="http://www.w3.org/1999/xlink" contentScriptType="application/ecmascript" contentStyleType="text/css" height="670px" preserveAspectRatio="none" style="width:907px;height:670px;" version="1.1" viewBox="0 0 907 670" width="907px" zoomAndPan="magnify"><defs><filter height="300%" id="f6m2fato3m2ju" width="300%" x="-1" y="-1"><feGaussianBlur result="blurOut" stdDeviation="2.0"/><feColorMatrix in="blurOut" result="blurOut2" type="matrix" values="0 0 0 0 0 0 0 0 0 0 0 0 0 0 0 0 0 0 .4 0"/><feOffset dx="4.0" dy="4.0" in="blurOut2" result="blurOut3"/><feBlend in="SourceGraphic" in2="blurOut3" mode="normal"/></filter></defs><g><text fill="#000000" font-family="sans-serif" font-size="14" font-weight="bold" lengthAdjust="spacingAndGlyphs" textLength="173" x="369.25" y="23.5352">Authoring a build script</text><rect fill="#E5FFF7" height="628.6797" style="stroke: #02303A; stroke-width: 1.0;" width="274" x="312" y="34.4883"/><text fill="#000000" font-family="sans-serif" font-size="13" font-weight="bold" lengthAdjust="spacingAndGlyphs" textLength="45" x="426.5" y="47.0566">Gradle</text><rect fill="#FFFFFF" filter="url(#f6m2fato3m2ju)" height="292.8633" style="stroke: #000000; stroke-width: 2.0;" width="423.5" x="475" y="256.0625"/><rect fill="#FFFFFF" filter="url(#f6m2fato3m2ju)" height="101.9316" style="stroke: #000000; stroke-width: 2.0;" width="402.5" x="485" y="305.373"/><line style="stroke: #02303A; stroke-width: 1.0; stroke-dasharray: 5.0,5.0;" x1="29" x2="29" y1="120.5098" y2="669.168"/><line style="stroke: #02303A; stroke-width: 1.0; stroke-dasharray: 5.0,5.0;" x1="192.5" x2="192.5" y1="120.5098" y2="669.168"/><line style="stroke: #02303A; stroke-width: 1.0; stroke-dasharray: 5.0,5.0;" x1="359" x2="359" y1="120.5098" y2="669.168"/><line style="stroke: #02303A; stroke-width: 1.0; stroke-dasharray: 5.0,5.0;" x1="538" x2="538" y1="120.5098" y2="669.168"/><text fill="#02303A" font-family="sans-serif" font-size="17" lengthAdjust="spacingAndGlyphs" textLength="37" x="8" y="116.9238">User</text><ellipse cx="29.5" cy="43.4883" fill="#FFFFFF" filter="url(#f6m2fato3m2ju)" rx="8" ry="8" style="stroke: #00C489; stroke-width: 2.0;"/><path d="M29.5,51.4883 L29.5,78.4883 M16.5,59.4883 L42.5,59.4883 M29.5,78.4883 L16.5,93.4883 M29.5,78.4883 L42.5,93.4883 " fill="#FFFFFF" filter="url(#f6m2fato3m2ju)" style="stroke: #00C489; stroke-width: 2.0;"/><rect fill="#FFFFFF" filter="url(#f6m2fato3m2ju)" height="30.4883" style="stroke: #00C489; stroke-width: 1.5;" width="36" x="172.5" y="85.0215"/><text fill="#02303A" font-family="sans-serif" font-size="14" lengthAdjust="spacingAndGlyphs" textLength="22" x="179.5" y="105.5566">IDE</text><rect fill="#FFFFFF" filter="url(#f6m2fato3m2ju)" height="46.9766" style="stroke: #00C489; stroke-width: 1.5;" width="83" x="316" y="68.5332"/><text fill="#02303A" font-family="sans-serif" font-size="14" lengthAdjust="spacingAndGlyphs" textLength="69" x="323" y="89.0684">Kotlin DSL</text><text fill="#02303A" font-family="sans-serif" font-size="14" lengthAdjust="spacingAndGlyphs" textLength="40" x="337.5" y="105.5566">Client</text><rect fill="#FFFFFF" filter="url(#f6m2fato3m2ju)" height="46.9766" style="stroke: #00C489; stroke-width: 1.5;" width="83" x="495" y="68.5332"/><text fill="#02303A" font-family="sans-serif" font-size="14" lengthAdjust="spacingAndGlyphs" textLength="69" x="502" y="89.0684">Kotlin DSL</text><text fill="#02303A" font-family="sans-serif" font-size="14" lengthAdjust="spacingAndGlyphs" textLength="43" x="515" y="105.5566">Server</text><polygon fill="#00C489" points="180.5,162.5098,190.5,166.5098,180.5,170.5098,184.5,166.5098" style="stroke: #00C489; stroke-width: 1.0;"/><line style="stroke: #00C489; stroke-width: 2.0;" x1="29.5" x2="186.5" y1="166.5098" y2="166.5098"/><text fill="#000000" font-family="sans-serif" font-size="13" lengthAdjust="spacingAndGlyphs" textLength="40" x="36.5" y="147.0781">Opens</text><text fill="#000000" font-family="sans-serif" font-size="13" lengthAdjust="spacingAndGlyphs" textLength="139" x="36.5" y="162.3887">`build.gradle.kts` file</text><polygon fill="#00C489" points="347.5,192.1309,357.5,196.1309,347.5,200.1309,351.5,196.1309" style="stroke: #00C489; stroke-width: 1.0;"/><line style="stroke: #00C489; stroke-width: 2.0;" x1="192.5" x2="353.5" y1="196.1309" y2="196.1309"/><text fill="#000000" font-family="sans-serif" font-size="13" lengthAdjust="spacingAndGlyphs" textLength="143" x="199.5" y="191.6992">Resolves the classpath</text><polygon fill="#00C489" points="526.5,236.4414,536.5,240.4414,526.5,244.4414,530.5,240.4414" style="stroke: #00C489; stroke-width: 1.0;"/><line style="stroke: #00C489; stroke-width: 2.0;" x1="359.5" x2="532.5" y1="240.4414" y2="240.4414"/><text fill="#000000" font-family="sans-serif" font-size="13" lengthAdjust="spacingAndGlyphs" textLength="155" x="366.5" y="221.0098">Queries classpath model</text><text fill="#000000" font-family="sans-serif" font-size="13" lengthAdjust="spacingAndGlyphs" textLength="59" x="366.5" y="236.3203">over TAPI</text><rect fill="none" height="292.8633" style="stroke: #000000; stroke-width: 2.0;" width="423.5" x="475" y="256.0625"/><polygon fill="#EEEEEE" points="475,256.0625,675,256.0625,675,263.0625,665,273.0625,475,273.0625,475,256.0625" style="stroke: #000000; stroke-width: 2.0;"/><text fill="#000000" font-family="sans-serif" font-size="13" font-weight="bold" lengthAdjust="spacingAndGlyphs" textLength="155" x="490" y="269.6309">Classpath computation</text><rect fill="none" height="101.9316" style="stroke: #000000; stroke-width: 2.0;" width="402.5" x="485" y="305.373"/><polygon fill="#EEEEEE" points="485,305.373,705,305.373,705,312.373,695,322.373,485,322.373,485,305.373" style="stroke: #000000; stroke-width: 2.0;"/><text fill="#000000" font-family="sans-serif" font-size="13" font-weight="bold" lengthAdjust="spacingAndGlyphs" textLength="175" x="500" y="318.9414">Build script dependencies</text><line style="stroke: #00C489; stroke-width: 2.0;" x1="538.5" x2="580.5" y1="343.9941" y2="343.9941"/><line style="stroke: #00C489; stroke-width: 2.0;" x1="580.5" x2="580.5" y1="343.9941" y2="356.9941"/><line style="stroke: #00C489; stroke-width: 2.0;" x1="539.5" x2="580.5" y1="356.9941" y2="356.9941"/><polygon fill="#00C489" points="549.5,352.9941,539.5,356.9941,549.5,360.9941,545.5,356.9941" style="stroke: #00C489; stroke-width: 1.0;"/><text fill="#000000" font-family="sans-serif" font-size="13" lengthAdjust="spacingAndGlyphs" textLength="330" x="545.5" y="339.252">Extracts, compiles and executes `buildscript` block</text><line style="stroke: #00C489; stroke-width: 2.0;" x1="538.5" x2="580.5" y1="386.3047" y2="386.3047"/><line style="stroke: #00C489; stroke-width: 2.0;" x1="580.5" x2="580.5" y1="386.3047" y2="399.3047"/><line style="stroke: #00C489; stroke-width: 2.0;" x1="539.5" x2="580.5" y1="399.3047" y2="399.3047"/><polygon fill="#00C489" points="549.5,395.3047,539.5,399.3047,549.5,403.3047,545.5,399.3047" style="stroke: #00C489; stroke-width: 1.0;"/><text fill="#000000" font-family="sans-serif" font-size="13" lengthAdjust="spacingAndGlyphs" textLength="309" x="545.5" y="381.5625">Extracts, compiles and executes `plugins` block</text><line style="stroke: #00C489; stroke-width: 2.0;" x1="538.5" x2="580.5" y1="460.6152" y2="460.6152"/><line style="stroke: #00C489; stroke-width: 2.0;" x1="580.5" x2="580.5" y1="460.6152" y2="473.6152"/><line style="stroke: #00C489; stroke-width: 2.0;" x1="539.5" x2="580.5" y1="473.6152" y2="473.6152"/><polygon fill="#00C489" points="549.5,469.6152,539.5,473.6152,549.5,477.6152,545.5,473.6152" style="stroke: #00C489; stroke-width: 1.0;"/><text fill="#000000" font-family="sans-serif" font-size="13" lengthAdjust="spacingAndGlyphs" textLength="227" x="545.5" y="455.873">Assemble dynamic model accessors</text><line style="stroke: #00C489; stroke-width: 2.0;" x1="538.5" x2="580.5" y1="502.9258" y2="502.9258"/><line style="stroke: #00C489; stroke-width: 2.0;" x1="580.5" x2="580.5" y1="502.9258" y2="515.9258"/><line style="stroke: #00C489; stroke-width: 2.0;" x1="539.5" x2="580.5" y1="515.9258" y2="515.9258"/><polygon fill="#00C489" points="549.5,511.9258,539.5,515.9258,549.5,519.9258,545.5,515.9258" style="stroke: #00C489; stroke-width: 1.0;"/><text fill="#000000" font-family="sans-serif" font-size="13" lengthAdjust="spacingAndGlyphs" textLength="341" x="545.5" y="498.1836">Compiles and executes the body of `build.gradle.kts`</text><polygon fill="#00C489" points="370.5,572.9258,360.5,576.9258,370.5,580.9258,366.5,576.9258" style="stroke: #00C489; stroke-width: 1.0;"/><line style="stroke: #00C489; stroke-width: 2.0;" x1="364.5" x2="537.5" y1="576.9258" y2="576.9258"/><text fill="#000000" font-family="sans-serif" font-size="13" lengthAdjust="spacingAndGlyphs" textLength="105" x="376.5" y="572.4941">Classpath model</text><polygon fill="#00C489" points="203.5,602.2363,193.5,606.2363,203.5,610.2363,199.5,606.2363" style="stroke: #00C489; stroke-width: 1.0;"/><line style="stroke: #00C489; stroke-width: 2.0;" x1="197.5" x2="358.5" y1="606.2363" y2="606.2363"/><text fill="#000000" font-family="sans-serif" font-size="13" lengthAdjust="spacingAndGlyphs" textLength="130" x="209.5" y="601.8047">Classpath IDE model</text><polygon fill="#00C489" points="40.5,646.5469,30.5,650.5469,40.5,654.5469,36.5,650.5469" style="stroke: #00C489; stroke-width: 1.0;"/><line style="stroke: #00C489; stroke-width: 2.0;" x1="34.5" x2="191.5" y1="650.5469" y2="650.5469"/><text fill="#000000" font-family="sans-serif" font-size="13" lengthAdjust="spacingAndGlyphs" textLength="66" x="46.5" y="631.1152">Highlights</text><text fill="#000000" font-family="sans-serif" font-size="13" lengthAdjust="spacingAndGlyphs" textLength="115" x="46.5" y="646.4258">`build.gradle.kts`</text><!--
@startuml
skinparam sequence {
    ArrowThickness 2
    ArrowColor #00C489

	ParticipantBorderColor #00C489
	ParticipantBackgroundColor White
	ParticipantFontColor #02303A

    ActorBorderColor #00C489
	ActorBackgroundColor White
	ActorFontColor #02303A
	ActorFontSize 17

	LifeLineBorderColor #02303A

	BoxBorderColor #02303A
	BoxBackgroundColor #e5fff7
}

title Authoring a build script
hide footbox

actor User as U
participant IDE as I
box "Gradle"
    participant "Kotlin DSL\nClient" as K
    participant "Kotlin DSL\nServer" as G
end box

U -> I: Opens\n`build.gradle.kts` file
I -> K: Resolves the classpath
K -> G: Queries classpath model\nover TAPI

group Classpath computation
    |||
    group Build script dependencies
        G -> G: Extracts, compiles and executes `buildscript` block
        G -> G: Extracts, compiles and executes `plugins` block
    end
    |||
    G -> G: Assemble dynamic model accessors
    G -> G: Compiles and executes the body of `build.gradle.kts`
    |||
end

G -> K: Classpath model
K -> I: Classpath IDE model
I -> U: Highlights\n`build.gradle.kts`

@enduml

PlantUML version 1.2017.13(Wed May 10 09:52:33 PDT 2017)
(GPL source distribution)
Java Runtime: Java(TM) SE Runtime Environment
JVM: Java HotSpot(TM) 64-Bit Server VM
Java Version: 1.8.0_71-b15
Operating System: Mac OS X
OS Version: 10.12.5
Default Encoding: UTF-8
Language: fr
Country: FR
--></g></svg>